<svg width="25" height="24" viewBox="0 0 25 24" fill="none" xmlns="http://www.w3.org/2000/svg">
<path d="M22.3715 0.905762H2.62965C1.95344 0.905762 1.40527 1.45393 1.40527 2.13014V21.872C1.40527 22.5482 1.95344 23.0964 2.62965 23.0964H22.3715C23.0477 23.0964 23.5959 22.5482 23.5959 21.872V2.13014C23.5959 1.45393 23.0477 0.905762 22.3715 0.905762Z" fill="#3D5A98"/>
<path d="M16.715 23.0943V14.5012H19.5987L20.03 11.1524H16.715V9.01494C16.715 8.04557 16.985 7.38369 18.3743 7.38369H20.1481V4.38369C19.2892 4.29418 18.426 4.25161 17.5625 4.25619C15.0087 4.25619 13.25 5.81244 13.25 8.68307V11.1524H10.3662V14.5012H13.25V23.0943H16.715Z" fill="white"/>
</svg>
