<svg width="25" height="24" viewBox="0 0 25 24" fill="none" xmlns="http://www.w3.org/2000/svg">
<g clip-path="url(#clip0_1072_17867)">
<path d="M1.10167 11.8563C1.10112 13.8728 1.628 15.8417 2.62986 17.5771L1.00586 23.5066L7.07395 21.9156C8.75231 22.8292 10.6328 23.308 12.5437 23.3081H12.5487C18.8571 23.3081 23.9923 18.1748 23.995 11.8653C23.9962 8.80792 22.8066 5.93295 20.6453 3.76997C18.4844 1.60718 15.6104 0.415458 12.5483 0.414062C6.23916 0.414062 1.10437 5.54709 1.10177 11.8563" fill="url(#paint0_linear_1072_17867)"/>
<path d="M0.693285 11.8527C0.692634 13.9417 1.2384 15.981 2.27598 17.7786L0.59375 23.9207L6.87942 22.2726C8.61133 23.2168 10.5613 23.7147 12.5455 23.7154H12.5506C19.0853 23.7154 24.4049 18.3975 24.4077 11.8621C24.4088 8.69488 23.1764 5.71656 20.9379 3.47609C18.6991 1.23591 15.7224 0.00130233 12.5506 0C6.01477 0 0.69589 5.31721 0.693285 11.8527ZM4.43663 17.469L4.20194 17.0965C3.21533 15.5277 2.69459 13.7149 2.69533 11.8534C2.69738 6.4213 7.11822 2.00186 12.5543 2.00186C15.1869 2.00298 17.6609 3.02921 19.5217 4.89116C21.3825 6.7533 22.4064 9.22865 22.4058 11.8614C22.4033 17.2935 17.9824 21.7135 12.5506 21.7135H12.5467C10.778 21.7126 9.04342 21.2376 7.53068 20.34L7.17068 20.1265L3.44063 21.1045L4.43663 17.469Z" fill="url(#paint1_linear_1072_17867)"/>
<path d="M9.58679 6.89771C9.36483 6.4044 9.13125 6.39445 8.92018 6.3858C8.74734 6.37836 8.54976 6.37892 8.35237 6.37892C8.15479 6.37892 7.83376 6.45324 7.56241 6.74952C7.29079 7.04608 6.52539 7.76273 6.52539 9.22031C6.52539 10.678 7.58707 12.0866 7.73507 12.2845C7.88325 12.482 9.78465 15.5689 12.796 16.7564C15.2987 17.7433 15.808 17.547 16.3512 17.4975C16.8944 17.4482 18.1041 16.7811 18.3509 16.0892C18.5979 15.3975 18.5979 14.8046 18.5238 14.6807C18.4498 14.5572 18.2522 14.4831 17.9559 14.335C17.6595 14.1868 16.203 13.4701 15.9314 13.3712C15.6598 13.2724 15.4623 13.2231 15.2647 13.5198C15.0672 13.8159 14.4998 14.4831 14.3269 14.6807C14.1541 14.8787 13.9812 14.9034 13.685 14.7552C13.3886 14.6065 12.4344 14.2941 11.3024 13.2849C10.4217 12.4996 9.82706 11.5298 9.65423 11.2331C9.48139 10.937 9.63572 10.7764 9.78427 10.6288C9.91739 10.496 10.0806 10.2828 10.2289 10.1099C10.3766 9.93687 10.4259 9.81343 10.5247 9.61585C10.6236 9.41808 10.5741 9.24506 10.5002 9.09687C10.4259 8.94868 9.85023 7.48347 9.58679 6.89771Z" fill="white"/>
</g>
<defs>
<linearGradient id="paint0_linear_1072_17867" x1="1150.46" y1="2309.67" x2="1150.46" y2="0.414062" gradientUnits="userSpaceOnUse">
<stop stop-color="#1FAF38"/>
<stop offset="1" stop-color="#60D669"/>
</linearGradient>
<linearGradient id="paint1_linear_1072_17867" x1="1191.29" y1="2392.07" x2="1191.29" y2="0" gradientUnits="userSpaceOnUse">
<stop stop-color="#F9F9F9"/>
<stop offset="1" stop-color="white"/>
</linearGradient>
<clipPath id="clip0_1072_17867">
<rect width="23.815" height="24" fill="white" transform="translate(0.592773)"/>
</clipPath>
</defs>
</svg>
