<?xml version="1.0" encoding="UTF-8"?>
<!DOCTYPE svg PUBLIC "-//W3C//DTD SVG 1.1//EN" "http://www.w3.org/Graphics/SVG/1.1/DTD/svg11.dtd">
<svg xmlns="http://www.w3.org/2000/svg" version="1.1" width="768px" height="768px" style="shape-rendering:geometricPrecision; text-rendering:geometricPrecision; image-rendering:optimizeQuality; fill-rule:evenodd; clip-rule:evenodd" xmlns:xlink="http://www.w3.org/1999/xlink">
<g><path style="opacity:1" fill="#c78fd5" d="M 368.5,96.5 C 366.485,97.9238 364.152,98.5905 361.5,98.5C 363.515,97.0762 365.848,96.4095 368.5,96.5 Z"/></g>
<g><path style="opacity:1" fill="#8b15a8" d="M 397.5,96.5 C 399.794,98.8182 402.461,99.4849 405.5,98.5C 405.833,98.5 406.167,98.5 406.5,98.5C 408.597,100.482 411.264,101.482 414.5,101.5C 415.635,103.213 417.302,103.88 419.5,103.5C 420.492,103.328 421.158,103.662 421.5,104.5C 421.572,106.311 422.405,107.644 424,108.5C 426.154,109.274 428.321,109.941 430.5,110.5C 431.035,112.446 432.368,113.446 434.5,113.5C 434.539,114.583 434.873,115.583 435.5,116.5C 438.176,118.562 440.842,120.562 443.5,122.5C 443.427,124.027 444.094,125.027 445.5,125.5C 446.08,127.749 447.413,129.415 449.5,130.5C 449.427,132.027 450.094,133.027 451.5,133.5C 452.338,133.842 452.672,134.508 452.5,135.5C 452.427,137.027 453.094,138.027 454.5,138.5C 455.338,138.842 455.672,139.508 455.5,140.5C 455.427,142.027 456.094,143.027 457.5,143.5C 457.5,143.833 457.5,144.167 457.5,144.5C 457.12,146.698 457.787,148.365 459.5,149.5C 460.913,152.219 461.58,155.219 461.5,158.5C 461.994,164.992 462.661,171.325 463.5,177.5C 463.5,219.833 463.5,262.167 463.5,304.5C 508.167,304.5 552.833,304.5 597.5,304.5C 601.215,304.423 604.881,304.756 608.5,305.5C 608.833,305.5 609.167,305.5 609.5,305.5C 609.611,306.117 609.944,306.617 610.5,307C 613.513,307.502 616.513,308.002 619.5,308.5C 621.395,310.241 623.728,311.241 626.5,311.5C 626.833,311.5 627.167,311.5 627.5,311.5C 628.035,313.446 629.368,314.446 631.5,314.5C 631.833,314.5 632.167,314.5 632.5,314.5C 633.351,318.071 635.684,319.737 639.5,319.5C 640.13,322.705 642.13,324.371 645.5,324.5C 645.833,325.5 646.5,326.167 647.5,326.5C 647.833,326.5 648.167,326.5 648.5,326.5C 648.414,329.958 650.081,331.958 653.5,332.5C 653.427,334.027 654.094,335.027 655.5,335.5C 655.738,337.404 656.738,338.738 658.5,339.5C 659.338,339.842 659.672,340.508 659.5,341.5C 659.427,343.027 660.094,344.027 661.5,344.5C 661.427,346.027 662.094,347.027 663.5,347.5C 663.655,352.831 665.321,357.498 668.5,361.5C 668.41,364.152 669.076,366.485 670.5,368.5C 671.452,374.075 671.786,379.741 671.5,385.5C 671.706,389.898 671.373,394.232 670.5,398.5C 668.926,400.102 668.259,402.102 668.5,404.5C 666.745,410.319 664.745,415.985 662.5,421.5C 660.453,423.55 658.786,425.883 657.5,428.5C 650.46,437.874 642.126,445.874 632.5,452.5C 628.077,454.519 623.744,456.519 619.5,458.5C 617.297,458.604 615.297,459.27 613.5,460.5C 608.651,461.216 603.985,462.216 599.5,463.5C 597.167,463.5 594.833,463.5 592.5,463.5C 549.5,463.5 506.5,463.5 463.5,463.5C 462.793,475.038 462.127,486.704 461.5,498.5C 461.5,498.833 461.5,499.167 461.5,499.5C 459.755,501.033 458.755,503.033 458.5,505.5C 454.974,508.094 451.308,510.427 447.5,512.5C 442.167,513.833 436.833,513.833 431.5,512.5C 425.255,510.589 420.922,506.589 418.5,500.5C 417.365,478.197 417.199,455.864 418,433.5C 418.98,429.604 420.48,425.938 422.5,422.5C 425.205,418.807 428.872,416.807 433.5,416.5C 489.294,415.841 544.961,415.175 600.5,414.5C 600.842,413.662 601.508,413.328 602.5,413.5C 604.967,413.245 606.967,412.245 608.5,410.5C 619.599,402.507 624.265,391.84 622.5,378.5C 621.469,376.039 620.802,373.373 620.5,370.5C 620.741,367.966 619.741,366.3 617.5,365.5C 616.5,360.5 613.5,357.5 608.5,356.5C 606.967,354.755 604.967,353.755 602.5,353.5C 602.167,353.5 601.833,353.5 601.5,353.5C 600.01,351.72 598.01,351.054 595.5,351.5C 541.843,349.67 487.843,348.837 433.5,349C 431.134,348.56 428.801,348.06 426.5,347.5C 419.985,342.801 416.318,336.468 415.5,328.5C 415.667,274.499 415.5,220.499 415,166.5C 414.617,165.944 414.117,165.611 413.5,165.5C 413.5,165.167 413.5,164.833 413.5,164.5C 413.264,161.379 411.931,159.046 409.5,157.5C 407.844,155.54 406.177,153.54 404.5,151.5C 403.522,148.675 401.522,147.342 398.5,147.5C 397.365,145.787 395.698,145.12 393.5,145.5C 393.167,145.5 392.833,145.5 392.5,145.5C 389.644,143.994 386.477,143.328 383,143.5C 379.523,143.328 376.356,143.994 373.5,145.5C 372.791,146.404 371.791,146.737 370.5,146.5C 368.62,146.229 367.287,146.896 366.5,148.5C 362.833,151.5 359.5,154.833 356.5,158.5C 354.755,160.033 353.755,162.033 353.5,164.5C 353.5,164.833 353.5,165.167 353.5,165.5C 351.508,195.815 350.841,226.482 351.5,257.5C 351.567,258.959 351.234,260.292 350.5,261.5C 348.787,262.635 348.12,264.302 348.5,266.5C 346.5,270.5 343.5,273.5 339.5,275.5C 338.391,275.557 337.391,275.89 336.5,276.5C 331.86,277.397 327.194,277.564 322.5,277C 319.07,274.953 315.403,273.453 311.5,272.5C 310.598,270.659 309.264,269.326 307.5,268.5C 307.771,266.62 307.104,265.287 305.5,264.5C 305.5,264.167 305.5,263.833 305.5,263.5C 304.173,228.507 304.173,193.507 305.5,158.5C 305.42,155.219 306.087,152.219 307.5,149.5C 309.213,148.365 309.88,146.698 309.5,144.5C 309.5,144.167 309.5,143.833 309.5,143.5C 310.906,143.027 311.573,142.027 311.5,140.5C 313.408,139.514 314.408,137.848 314.5,135.5C 316.408,134.514 317.408,132.848 317.5,130.5C 319.587,129.415 320.92,127.749 321.5,125.5C 322.906,125.027 323.573,124.027 323.5,122.5C 325.5,118.5 328.5,115.5 332.5,113.5C 334.027,113.573 335.027,112.906 335.5,111.5C 337.966,110.702 339.966,109.369 341.5,107.5C 346.537,106.461 350.87,104.128 354.5,100.5C 357.152,100.59 359.485,99.9238 361.5,98.5C 364.152,98.5905 366.485,97.9238 368.5,96.5C 378.265,95.1835 387.932,95.1835 397.5,96.5 Z"/></g>
<g><path style="opacity:1" fill="#b973ca" d="M 397.5,96.5 C 400.495,96.2938 403.162,96.9605 405.5,98.5C 402.461,99.4849 399.794,98.8182 397.5,96.5 Z"/></g>
<g><path style="opacity:1" fill="#be7cce" d="M 361.5,98.5 C 359.485,99.9238 357.152,100.59 354.5,100.5C 356.515,99.0762 358.848,98.4095 361.5,98.5 Z"/></g>
<g><path style="opacity:1" fill="#c285d1" d="M 406.5,98.5 C 409.542,98.7329 412.208,99.7329 414.5,101.5C 411.264,101.482 408.597,100.482 406.5,98.5 Z"/></g>
<g><path style="opacity:1" fill="#c07fcf" d="M 414.5,101.5 C 416.553,101.402 418.22,102.069 419.5,103.5C 417.302,103.88 415.635,103.213 414.5,101.5 Z"/></g>
<g><path style="opacity:1" fill="#a854bd" d="M 354.5,100.5 C 350.87,104.128 346.537,106.461 341.5,107.5C 345.059,103.885 349.393,101.551 354.5,100.5 Z"/></g>
<g><path style="opacity:1" fill="#aa58bf" d="M 421.5,104.5 C 424.709,106.265 427.709,108.265 430.5,110.5C 428.321,109.941 426.154,109.274 424,108.5C 422.405,107.644 421.572,106.311 421.5,104.5 Z"/></g>
<g><path style="opacity:1" fill="#b974ca" d="M 341.5,107.5 C 339.966,109.369 337.966,110.702 335.5,111.5C 336.802,109.178 338.802,107.845 341.5,107.5 Z"/></g>
<g><path style="opacity:1" fill="#c58bd3" d="M 335.5,111.5 C 335.027,112.906 334.027,113.573 332.5,113.5C 332.973,112.094 333.973,111.427 335.5,111.5 Z"/></g>
<g><path style="opacity:1" fill="#c285d0" d="M 430.5,110.5 C 432.23,111.026 433.564,112.026 434.5,113.5C 432.368,113.446 431.035,112.446 430.5,110.5 Z"/></g>
<g><path style="opacity:1" fill="#b265c5" d="M 434.5,113.5 C 438.5,115.5 441.5,118.5 443.5,122.5C 440.842,120.562 438.176,118.562 435.5,116.5C 434.873,115.583 434.539,114.583 434.5,113.5 Z"/></g>
<g><path style="opacity:1" fill="#c891d5" d="M 323.5,122.5 C 323.573,124.027 322.906,125.027 321.5,125.5C 321.427,123.973 322.094,122.973 323.5,122.5 Z"/></g>
<g><path style="opacity:1" fill="#c890d5" d="M 443.5,122.5 C 444.906,122.973 445.573,123.973 445.5,125.5C 444.094,125.027 443.427,124.027 443.5,122.5 Z"/></g>
<g><path style="opacity:1" fill="#be7dce" d="M 445.5,125.5 C 447.587,126.585 448.92,128.251 449.5,130.5C 447.413,129.415 446.08,127.749 445.5,125.5 Z"/></g>
<g><path style="opacity:1" fill="#c082d0" d="M 321.5,125.5 C 320.92,127.749 319.587,129.415 317.5,130.5C 318.08,128.251 319.413,126.585 321.5,125.5 Z"/></g>
<g><path style="opacity:1" fill="#c893d6" d="M 449.5,130.5 C 450.906,130.973 451.573,131.973 451.5,133.5C 450.094,133.027 449.427,132.027 449.5,130.5 Z"/></g>
<g><path style="opacity:1" fill="#b469c6" d="M 317.5,130.5 C 317.408,132.848 316.408,134.514 314.5,135.5C 314.75,133.326 315.75,131.659 317.5,130.5 Z"/></g>
<g><path style="opacity:1" fill="#be7ece" d="M 452.5,135.5 C 453.906,135.973 454.573,136.973 454.5,138.5C 453.094,138.027 452.427,137.027 452.5,135.5 Z"/></g>
<g><path style="opacity:1" fill="#ad5cc1" d="M 314.5,135.5 C 314.408,137.848 313.408,139.514 311.5,140.5C 311.75,138.326 312.75,136.659 314.5,135.5 Z"/></g>
<g><path style="opacity:1" fill="#d4aadf" d="M 311.5,140.5 C 311.573,142.027 310.906,143.027 309.5,143.5C 309.427,141.973 310.094,140.973 311.5,140.5 Z"/></g>
<g><path style="opacity:1" fill="#d4aadf" d="M 455.5,140.5 C 456.906,140.973 457.573,141.973 457.5,143.5C 456.094,143.027 455.427,142.027 455.5,140.5 Z"/></g>
<g><path style="opacity:1" fill="#d3a9de" d="M 392.5,145.5 C 386.172,144.232 379.839,144.232 373.5,145.5C 376.356,143.994 379.523,143.328 383,143.5C 386.477,143.328 389.644,143.994 392.5,145.5 Z"/></g>
<g><path style="opacity:1" fill="#be7dce" d="M 393.5,145.5 C 395.698,145.12 397.365,145.787 398.5,147.5C 396.597,147.204 394.93,146.537 393.5,145.5 Z"/></g>
<g><path style="opacity:1" fill="#c080cf" d="M 309.5,144.5 C 309.88,146.698 309.213,148.365 307.5,149.5C 307.796,147.597 308.463,145.93 309.5,144.5 Z"/></g>
<g><path style="opacity:1" fill="#d1a3dc" d="M 370.5,146.5 C 369.486,147.674 368.153,148.34 366.5,148.5C 367.287,146.896 368.62,146.229 370.5,146.5 Z"/></g>
<g><path style="opacity:1" fill="#c080cf" d="M 457.5,144.5 C 458.537,145.93 459.204,147.597 459.5,149.5C 457.787,148.365 457.12,146.698 457.5,144.5 Z"/></g>
<g><path style="opacity:1" fill="#b66dc8" d="M 398.5,147.5 C 401.522,147.342 403.522,148.675 404.5,151.5C 402.223,150.551 400.223,149.218 398.5,147.5 Z"/></g>
<g><path style="opacity:1" fill="#cc98d8" d="M 356.5,158.5 C 356.245,160.967 355.245,162.967 353.5,164.5C 353.755,162.033 354.755,160.033 356.5,158.5 Z"/></g>
<g><path style="opacity:1" fill="#c891d5" d="M 409.5,157.5 C 411.931,159.046 413.264,161.379 413.5,164.5C 411.805,162.465 410.472,160.132 409.5,157.5 Z"/></g>
<g><path style="opacity:1" fill="#c283d1" d="M 461.5,158.5 C 462.222,158.918 462.722,159.584 463,160.5C 463.499,166.157 463.666,171.824 463.5,177.5C 462.661,171.325 461.994,164.992 461.5,158.5 Z"/></g>
<g><path style="opacity:1" fill="#ba74cb" d="M 305.5,158.5 C 304.173,193.507 304.173,228.507 305.5,263.5C 304.778,263.082 304.278,262.416 304,261.5C 303.333,227.833 303.333,194.167 304,160.5C 304.278,159.584 304.778,158.918 305.5,158.5 Z"/></g>
<g><path style="opacity:1" fill="#d1a5dc" d="M 353.5,165.5 C 352.848,196.294 352.181,226.961 351.5,257.5C 350.841,226.482 351.508,195.815 353.5,165.5 Z"/></g>
<g><path style="opacity:1" fill="#cc8fdb" d="M 413.5,165.5 C 414.117,165.611 414.617,165.944 415,166.5C 415.5,220.499 415.667,274.499 415.5,328.5C 414.501,281.003 414.168,233.336 414.5,185.5C 414.756,178.776 414.423,172.109 413.5,165.5 Z"/></g>
<g><path style="opacity:1" fill="#ce89df" d="M 463.5,177.5 C 464.167,177.5 464.5,177.833 464.5,178.5C 464.5,219.833 464.5,261.167 464.5,302.5C 479.833,302.5 495.167,302.5 510.5,302.5C 539.456,303.484 568.456,303.817 597.5,303.5C 597.5,303.833 597.5,304.167 597.5,304.5C 552.833,304.5 508.167,304.5 463.5,304.5C 463.5,262.167 463.5,219.833 463.5,177.5 Z"/></g>
<g><path style="opacity:1" fill="#ecb7fa" d="M 464.5,178.5 C 489.893,187.231 505.06,204.898 510,231.5C 510.5,255.164 510.667,278.831 510.5,302.5C 495.167,302.5 479.833,302.5 464.5,302.5C 464.5,261.167 464.5,219.833 464.5,178.5 Z"/></g>
<g><path style="opacity:1" fill="#ecb7fa" d="M 414.5,185.5 C 414.168,233.336 414.501,281.003 415.5,328.5C 416.318,336.468 419.985,342.801 426.5,347.5C 428.176,349.834 430.509,350.834 433.5,350.5C 433.611,351.117 433.944,351.617 434.5,352C 459.831,352.5 485.164,352.667 510.5,352.5C 510.5,362.833 510.5,373.167 510.5,383.5C 547.471,384.648 584.471,384.814 621.5,384C 622.406,382.301 622.739,380.467 622.5,378.5C 624.265,391.84 619.599,402.507 608.5,410.5C 606.033,410.755 604.033,411.755 602.5,413.5C 601.508,413.328 600.842,413.662 600.5,414.5C 545.166,414.333 489.832,414.5 434.5,415C 433.944,415.383 433.611,415.883 433.5,416.5C 428.872,416.807 425.205,418.807 422.5,422.5C 419.272,425.069 417.272,428.402 416.5,432.5C 415.778,432.918 415.278,433.584 415,434.5C 414.333,453.833 414.333,473.167 415,492.5C 415.232,493.737 415.732,494.737 416.5,495.5C 416.12,497.698 416.787,499.365 418.5,500.5C 420.922,506.589 425.255,510.589 431.5,512.5C 431.611,513.117 431.944,513.617 432.5,514C 437.167,514.667 441.833,514.667 446.5,514C 447.056,513.617 447.389,513.117 447.5,512.5C 451.308,510.427 454.974,508.094 458.5,505.5C 460.245,503.967 461.245,501.967 461.5,499.5C 461.5,499.167 461.5,498.833 461.5,498.5C 462.117,498.389 462.617,498.056 463,497.5C 463.495,495.527 463.662,493.527 463.5,491.5C 464.493,482.682 464.827,473.682 464.5,464.5C 507.337,464.832 550.003,464.499 592.5,463.5C 594.833,463.5 597.167,463.5 599.5,463.5C 603.202,463.579 606.868,463.246 610.5,462.5C 612.03,462.36 613.03,461.693 613.5,460.5C 615.297,459.27 617.297,458.604 619.5,458.5C 624.78,458.357 629.114,456.357 632.5,452.5C 642.126,445.874 650.46,437.874 657.5,428.5C 660.323,427.008 661.99,424.674 662.5,421.5C 664.745,415.985 666.745,410.319 668.5,404.5C 670.074,402.898 670.741,400.898 670.5,398.5C 671.373,394.232 671.706,389.898 671.5,385.5C 706.865,399.069 722.032,424.736 717,462.5C 710.908,482.587 698.408,497.087 679.5,506C 674.305,507.933 668.972,509.267 663.5,510C 612.501,510.5 561.501,510.667 510.5,510.5C 510.667,561.501 510.5,612.501 510,663.5C 504.253,695.247 485.42,713.414 453.5,718C 419.404,719.125 396.737,703.625 385.5,671.5C 389.898,671.706 394.232,671.373 398.5,670.5C 406.227,670.126 413.227,667.793 419.5,663.5C 419.842,662.662 420.508,662.328 421.5,662.5C 424.674,661.99 427.008,660.323 428.5,657.5C 429.167,657.167 429.833,656.833 430.5,656.5C 434.704,654.967 438.037,652.3 440.5,648.5C 440.738,646.596 441.738,645.262 443.5,644.5C 446.433,642.638 448.933,640.305 451,637.5C 451.608,635.846 452.108,634.179 452.5,632.5C 454.23,628.83 456.063,625.163 458,621.5C 460.204,614.314 461.704,606.981 462.5,599.5C 463.166,593.175 463.5,586.675 463.5,580C 463.497,573.131 462.83,566.631 461.5,560.5C 460.53,557.339 458.863,554.506 456.5,552C 446.837,544.589 436.503,543.589 425.5,549C 423.959,550.371 422.625,551.871 421.5,553.5C 417.946,555.798 416.279,559.132 416.5,563.5C 415.778,563.918 415.278,564.584 415,565.5C 414.5,577.162 414.333,588.829 414.5,600.5C 413.662,600.842 413.328,601.508 413.5,602.5C 411.755,604.033 410.755,606.033 410.5,608.5C 404.639,616.858 396.639,621.692 386.5,623C 383.633,623.801 380.966,623.634 378.5,622.5C 380.467,622.739 382.301,622.406 384,621.5C 384.814,584.471 384.648,547.471 383.5,510.5C 373.167,510.5 362.833,510.5 352.5,510.5C 352.667,485.164 352.5,459.831 352,434.5C 351.617,433.944 351.117,433.611 350.5,433.5C 350.834,430.509 349.834,428.176 347.5,426.5C 342.801,419.985 336.468,416.318 328.5,415.5C 281.003,414.501 233.336,414.168 185.5,414.5C 194.646,399.871 207.646,390.371 224.5,386C 277.144,384.707 329.811,384.04 382.5,384C 383,383.5 383.5,383 384,382.5C 384.04,329.811 384.707,277.144 386,224.5C 390.758,207.927 400.258,194.927 414.5,185.5 Z"/></g>
<g><path style="opacity:1" fill="#ba74ca" d="M 350.5,261.5 C 350.598,263.553 349.931,265.22 348.5,266.5C 348.12,264.302 348.787,262.635 350.5,261.5 Z"/></g>
<g><path style="opacity:1" fill="#c790d5" d="M 305.5,264.5 C 307.104,265.287 307.771,266.62 307.5,268.5C 306.326,267.486 305.66,266.153 305.5,264.5 Z"/></g>
<g><path style="opacity:1" fill="#c183d0" d="M 307.5,268.5 C 309.264,269.326 310.598,270.659 311.5,272.5C 309.29,272.106 307.957,270.773 307.5,268.5 Z"/></g>
<g><path style="opacity:1" fill="#cd9cda" d="M 315.5,275.5 C 317.027,275.427 318.027,276.094 318.5,277.5C 316.973,277.573 315.973,276.906 315.5,275.5 Z"/></g>
<g><path style="opacity:1" fill="#d7afe1" d="M 339.5,275.5 C 339.027,276.906 338.027,277.573 336.5,277.5C 336.5,277.167 336.5,276.833 336.5,276.5C 337.391,275.89 338.391,275.557 339.5,275.5 Z"/></g>
<g><path style="opacity:1" fill="#ad5cc1" d="M 311.5,272.5 C 315.403,273.453 319.07,274.953 322.5,277C 327.194,277.564 331.86,277.397 336.5,276.5C 336.5,276.833 336.5,277.167 336.5,277.5C 330.5,278.833 324.5,278.833 318.5,277.5C 318.027,276.094 317.027,275.427 315.5,275.5C 313.596,275.262 312.262,274.262 311.5,272.5 Z"/></g>
<g><path style="opacity:1" fill="#b970ca" d="M 336.5,305.5 C 277.173,304.17 217.84,304.17 158.5,305.5C 158.918,304.778 159.584,304.278 160.5,304C 218.5,303.333 276.5,303.333 334.5,304C 335.416,304.278 336.082,304.778 336.5,305.5 Z"/></g>
<g><path style="opacity:1" fill="#d0a3dc" d="M 597.5,304.5 C 597.5,304.167 597.5,303.833 597.5,303.5C 600.518,303.335 603.518,303.502 606.5,304C 607.416,304.278 608.082,304.778 608.5,305.5C 604.881,304.756 601.215,304.423 597.5,304.5 Z"/></g>
<g><path style="opacity:1" fill="#8b15a8" d="M 336.5,305.5 C 340.565,305.897 343.565,307.897 345.5,311.5C 345.427,313.027 346.094,314.027 347.5,314.5C 347.427,316.027 348.094,317.027 349.5,317.5C 350.434,318.568 350.768,319.901 350.5,321.5C 350.5,325.5 350.5,329.5 350.5,333.5C 350.768,335.099 350.434,336.432 349.5,337.5C 348.094,337.973 347.427,338.973 347.5,340.5C 346.167,343.833 343.833,346.167 340.5,347.5C 338.973,347.427 337.973,348.094 337.5,349.5C 283.012,350.137 228.678,350.804 174.5,351.5C 171.482,351.335 168.482,351.502 165.5,352C 164.944,352.383 164.611,352.883 164.5,353.5C 162.033,353.755 160.033,354.755 158.5,356.5C 154.833,359.5 151.5,362.833 148.5,366.5C 146.896,367.287 146.229,368.62 146.5,370.5C 145.883,370.611 145.383,370.944 145,371.5C 144.094,375.279 143.594,379.112 143.5,383C 143.328,386.477 143.994,389.644 145.5,392.5C 145.5,392.833 145.5,393.167 145.5,393.5C 145.12,395.698 145.787,397.365 147.5,398.5C 147.342,401.522 148.675,403.522 151.5,404.5C 153.54,406.177 155.54,407.844 157.5,409.5C 159.046,411.931 161.379,413.264 164.5,413.5C 164.833,413.5 165.167,413.5 165.5,413.5C 165.611,414.117 165.944,414.617 166.5,415C 220.499,415.5 274.499,415.667 328.5,415.5C 336.468,416.318 342.801,419.985 347.5,426.5C 348.06,428.801 348.56,431.134 349,433.5C 348.837,487.843 349.67,541.843 351.5,595.5C 351.054,598.01 351.72,600.01 353.5,601.5C 353.5,601.833 353.5,602.167 353.5,602.5C 353.755,604.967 354.755,606.967 356.5,608.5C 357.5,613.5 360.5,616.5 365.5,617.5C 366.3,619.741 367.966,620.741 370.5,620.5C 373.373,620.802 376.039,621.469 378.5,622.5C 380.966,623.634 383.633,623.801 386.5,623C 396.639,621.692 404.639,616.858 410.5,608.5C 412.245,606.967 413.245,604.967 413.5,602.5C 413.328,601.508 413.662,600.842 414.5,600.5C 415.246,588.316 415.913,575.982 416.5,563.5C 417.927,560.123 419.594,556.79 421.5,553.5C 422.625,551.871 423.959,550.371 425.5,549C 436.503,543.589 446.837,544.589 456.5,552C 458.863,554.506 460.53,557.339 461.5,560.5C 462.463,573.451 462.796,586.451 462.5,599.5C 461.704,606.981 460.204,614.314 458,621.5C 456.063,625.163 454.23,628.83 452.5,632.5C 449.016,636.134 446.016,640.134 443.5,644.5C 441.738,645.262 440.738,646.596 440.5,648.5C 436.873,650.794 433.539,653.46 430.5,656.5C 429.833,656.833 429.167,657.167 428.5,657.5C 425.883,658.786 423.55,660.453 421.5,662.5C 420.508,662.328 419.842,662.662 419.5,663.5C 412.517,666.05 405.517,668.383 398.5,670.5C 394.232,671.373 389.898,671.706 385.5,671.5C 379.741,671.786 374.075,671.452 368.5,670.5C 366.485,669.076 364.152,668.41 361.5,668.5C 357.498,665.321 352.831,663.655 347.5,663.5C 347.027,662.094 346.027,661.427 344.5,661.5C 344.027,660.094 343.027,659.427 341.5,659.5C 340.508,659.672 339.842,659.338 339.5,658.5C 338.738,656.738 337.404,655.738 335.5,655.5C 335.027,654.094 334.027,653.427 332.5,653.5C 331.958,650.081 329.958,648.414 326.5,648.5C 326.5,648.167 326.5,647.833 326.5,647.5C 326.167,646.5 325.5,645.833 324.5,645.5C 324.371,642.13 322.705,640.13 319.5,639.5C 319.737,635.684 318.071,633.351 314.5,632.5C 314.5,632.167 314.5,631.833 314.5,631.5C 314.446,629.368 313.446,628.035 311.5,627.5C 311.5,627.167 311.5,626.833 311.5,626.5C 311.241,623.728 310.241,621.395 308.5,619.5C 308.002,616.513 307.502,613.513 307,610.5C 306.617,609.944 306.117,609.611 305.5,609.5C 305.5,609.167 305.5,608.833 305.5,608.5C 304.756,604.881 304.423,601.215 304.5,597.5C 304.5,552.833 304.5,508.167 304.5,463.5C 262.167,463.5 219.833,463.5 177.5,463.5C 171.325,462.661 164.992,461.994 158.5,461.5C 155.219,461.58 152.219,460.913 149.5,459.5C 148.365,457.787 146.698,457.12 144.5,457.5C 144.167,457.5 143.833,457.5 143.5,457.5C 143.027,456.094 142.027,455.427 140.5,455.5C 139.508,455.672 138.842,455.338 138.5,454.5C 138.027,453.094 137.027,452.427 135.5,452.5C 134.508,452.672 133.842,452.338 133.5,451.5C 133.027,450.094 132.027,449.427 130.5,449.5C 129.415,447.413 127.749,446.08 125.5,445.5C 125.027,444.094 124.027,443.427 122.5,443.5C 120.562,440.842 118.562,438.176 116.5,435.5C 115.583,434.873 114.583,434.539 113.5,434.5C 113.446,432.368 112.446,431.035 110.5,430.5C 109.941,428.321 109.274,426.154 108.5,424C 107.644,422.405 106.311,421.572 104.5,421.5C 103.662,421.158 103.328,420.492 103.5,419.5C 103.88,417.302 103.213,415.635 101.5,414.5C 101.598,412.447 100.931,410.78 99.5,409.5C 97.8676,405.756 96.7009,401.756 96,397.5C 95.1943,387.756 95.361,378.089 96.5,368.5C 97.9238,366.485 98.5905,364.152 98.5,361.5C 101.679,357.498 103.345,352.831 103.5,347.5C 104.906,347.027 105.573,346.027 105.5,344.5C 106.906,344.027 107.573,343.027 107.5,341.5C 109.369,339.966 110.702,337.966 111.5,335.5C 112.906,335.027 113.573,334.027 113.5,332.5C 114.167,331.167 115.167,330.167 116.5,329.5C 117.833,328.833 118.833,327.833 119.5,326.5C 120.167,325.167 121.167,324.167 122.5,323.5C 124.027,323.573 125.027,322.906 125.5,321.5C 127.749,320.92 129.415,319.587 130.5,317.5C 132.027,317.573 133.027,316.906 133.5,315.5C 133.842,314.662 134.508,314.328 135.5,314.5C 137.027,314.573 138.027,313.906 138.5,312.5C 138.842,311.662 139.508,311.328 140.5,311.5C 146.513,309.833 152.18,307.833 157.5,305.5C 157.833,305.5 158.167,305.5 158.5,305.5C 217.84,304.17 277.173,304.17 336.5,305.5 Z"/></g>
<g><path style="opacity:1" fill="#c285d1" d="M 609.5,305.5 C 613.214,305.59 616.548,306.59 619.5,308.5C 616.513,308.002 613.513,307.502 610.5,307C 609.944,306.617 609.611,306.117 609.5,305.5 Z"/></g>
<g><path style="opacity:1" fill="#ba76cb" d="M 157.5,305.5 C 152.18,307.833 146.513,309.833 140.5,311.5C 145.57,308.147 151.237,306.147 157.5,305.5 Z"/></g>
<g><path style="opacity:1" fill="#ca94d7" d="M 619.5,308.5 C 622.346,308.552 624.68,309.552 626.5,311.5C 623.728,311.241 621.395,310.241 619.5,308.5 Z"/></g>
<g><path style="opacity:1" fill="#c081cf" d="M 345.5,311.5 C 346.906,311.973 347.573,312.973 347.5,314.5C 346.094,314.027 345.427,313.027 345.5,311.5 Z"/></g>
<g><path style="opacity:1" fill="#ba76cb" d="M 627.5,311.5 C 629.23,312.026 630.564,313.026 631.5,314.5C 629.368,314.446 628.035,313.446 627.5,311.5 Z"/></g>
<g><path style="opacity:1" fill="#ba76cb" d="M 138.5,312.5 C 138.027,313.906 137.027,314.573 135.5,314.5C 135.973,313.094 136.973,312.427 138.5,312.5 Z"/></g>
<g><path style="opacity:1" fill="#c48ad3" d="M 133.5,315.5 C 133.027,316.906 132.027,317.573 130.5,317.5C 130.973,316.094 131.973,315.427 133.5,315.5 Z"/></g>
<g><path style="opacity:1" fill="#c489d3" d="M 347.5,314.5 C 348.906,314.973 349.573,315.973 349.5,317.5C 348.094,317.027 347.427,316.027 347.5,314.5 Z"/></g>
<g><path style="opacity:1" fill="#ae5fc2" d="M 632.5,314.5 C 635.135,315.811 637.469,317.478 639.5,319.5C 635.684,319.737 633.351,318.071 632.5,314.5 Z"/></g>
<g><path style="opacity:1" fill="#b974cb" d="M 130.5,317.5 C 129.415,319.587 127.749,320.92 125.5,321.5C 126.585,319.413 128.251,318.08 130.5,317.5 Z"/></g>
<g><path style="opacity:1" fill="#c68cd4" d="M 125.5,321.5 C 125.027,322.906 124.027,323.573 122.5,323.5C 122.973,322.094 123.973,321.427 125.5,321.5 Z"/></g>
<g><path style="opacity:1" fill="#ad5cc0" d="M 639.5,319.5 C 641.909,320.701 643.909,322.367 645.5,324.5C 642.13,324.371 640.13,322.705 639.5,319.5 Z"/></g>
<g><path style="opacity:1" fill="#d1a2dc" d="M 645.5,324.5 C 646.833,324.5 647.5,325.167 647.5,326.5C 646.5,326.167 645.833,325.5 645.5,324.5 Z"/></g>
<g><path style="opacity:1" fill="#c68dd4" d="M 350.5,321.5 C 353.167,325.5 353.167,329.5 350.5,333.5C 350.5,329.5 350.5,325.5 350.5,321.5 Z"/></g>
<g><path style="opacity:1" fill="#c58cd4" d="M 119.5,326.5 C 118.833,327.833 117.833,328.833 116.5,329.5C 116.5,327.5 117.5,326.5 119.5,326.5 Z"/></g>
<g><path style="opacity:1" fill="#b76fc9" d="M 648.5,326.5 C 650.137,328.475 651.804,330.475 653.5,332.5C 650.081,331.958 648.414,329.958 648.5,326.5 Z"/></g>
<g><path style="opacity:1" fill="#c790d4" d="M 113.5,332.5 C 113.573,334.027 112.906,335.027 111.5,335.5C 111.427,333.973 112.094,332.973 113.5,332.5 Z"/></g>
<g><path style="opacity:1" fill="#ce9dda" d="M 653.5,332.5 C 654.906,332.973 655.573,333.973 655.5,335.5C 654.094,335.027 653.427,334.027 653.5,332.5 Z"/></g>
<g><path style="opacity:1" fill="#bf80cf" d="M 655.5,335.5 C 657.262,336.262 658.262,337.596 658.5,339.5C 656.738,338.738 655.738,337.404 655.5,335.5 Z"/></g>
<g><path style="opacity:1" fill="#c994d6" d="M 349.5,337.5 C 349.573,339.027 348.906,340.027 347.5,340.5C 347.427,338.973 348.094,337.973 349.5,337.5 Z"/></g>
<g><path style="opacity:1" fill="#b266c5" d="M 111.5,335.5 C 110.702,337.966 109.369,339.966 107.5,341.5C 107.845,338.802 109.178,336.802 111.5,335.5 Z"/></g>
<g><path style="opacity:1" fill="#be7ece" d="M 107.5,341.5 C 107.573,343.027 106.906,344.027 105.5,344.5C 105.427,342.973 106.094,341.973 107.5,341.5 Z"/></g>
<g><path style="opacity:1" fill="#be7ece" d="M 659.5,341.5 C 660.906,341.973 661.573,342.973 661.5,344.5C 660.094,344.027 659.427,343.027 659.5,341.5 Z"/></g>
<g><path style="opacity:1" fill="#c388d2" d="M 105.5,344.5 C 105.573,346.027 104.906,347.027 103.5,347.5C 103.427,345.973 104.094,344.973 105.5,344.5 Z"/></g>
<g><path style="opacity:1" fill="#c388d2" d="M 661.5,344.5 C 662.906,344.973 663.573,345.973 663.5,347.5C 662.094,347.027 661.427,346.027 661.5,344.5 Z"/></g>
<g><path style="opacity:1" fill="#cd9cd9" d="M 340.5,347.5 C 340.027,348.906 339.027,349.573 337.5,349.5C 337.973,348.094 338.973,347.427 340.5,347.5 Z"/></g>
<g><path style="opacity:1" fill="#972eb1" d="M 426.5,347.5 C 428.801,348.06 431.134,348.56 433.5,349C 487.843,348.837 541.843,349.67 595.5,351.5C 567.5,351.5 539.5,351.5 511.5,351.5C 485.455,351.815 459.455,351.482 433.5,350.5C 430.509,350.834 428.176,349.834 426.5,347.5 Z"/></g>
<g><path style="opacity:1" fill="#a44bba" d="M 337.5,349.5 C 335.401,350.612 333.067,351.279 330.5,351.5C 278.5,351.5 226.5,351.5 174.5,351.5C 228.678,350.804 283.012,350.137 337.5,349.5 Z"/></g>
<g><path style="opacity:1" fill="#d2a7dd" d="M 174.5,351.5 C 226.5,351.5 278.5,351.5 330.5,351.5C 275.306,352.179 219.973,352.846 164.5,353.5C 164.611,352.883 164.944,352.383 165.5,352C 168.482,351.502 171.482,351.335 174.5,351.5 Z"/></g>
<g><path style="opacity:1" fill="#c97ddc" d="M 433.5,350.5 C 459.455,351.482 485.455,351.815 511.5,351.5C 511.5,351.833 511.5,352.167 511.5,352.5C 511.167,352.5 510.833,352.5 510.5,352.5C 485.164,352.667 459.831,352.5 434.5,352C 433.944,351.617 433.611,351.117 433.5,350.5 Z"/></g>
<g><path style="opacity:1" fill="#d1a5dc" d="M 511.5,352.5 C 511.5,352.167 511.5,351.833 511.5,351.5C 539.5,351.5 567.5,351.5 595.5,351.5C 598.01,351.054 600.01,351.72 601.5,353.5C 571.544,352.516 541.544,352.182 511.5,352.5 Z"/></g>
<g><path style="opacity:1" fill="#b66dc7" d="M 103.5,347.5 C 103.345,352.831 101.679,357.498 98.5,361.5C 99.0792,356.362 100.746,351.695 103.5,347.5 Z"/></g>
<g><path style="opacity:1" fill="#cc99d9" d="M 164.5,353.5 C 162.967,355.245 160.967,356.245 158.5,356.5C 160.033,354.755 162.033,353.755 164.5,353.5 Z"/></g>
<g><path style="opacity:1" fill="#c489d2" d="M 602.5,353.5 C 604.967,353.755 606.967,354.755 608.5,356.5C 606.033,356.245 604.033,355.245 602.5,353.5 Z"/></g>
<g><path style="opacity:1" fill="#b56dc7" d="M 663.5,347.5 C 666.254,351.695 667.921,356.362 668.5,361.5C 665.321,357.498 663.655,352.831 663.5,347.5 Z"/></g>
<g><path style="opacity:1" fill="#af60c2" d="M 608.5,356.5 C 613.5,357.5 616.5,360.5 617.5,365.5C 614.527,362.527 611.527,359.527 608.5,356.5 Z"/></g>
<g><path style="opacity:1" fill="#c993d6" d="M 98.5,361.5 C 98.5905,364.152 97.9238,366.485 96.5,368.5C 96.4095,365.848 97.0762,363.515 98.5,361.5 Z"/></g>
<g><path style="opacity:1" fill="#c488d2" d="M 617.5,365.5 C 619.741,366.3 620.741,367.966 620.5,370.5C 619.263,369.035 618.263,367.368 617.5,365.5 Z"/></g>
<g><path style="opacity:1" fill="#c78fd5" d="M 668.5,361.5 C 669.924,363.515 670.59,365.848 670.5,368.5C 669.076,366.485 668.41,364.152 668.5,361.5 Z"/></g>
<g><path style="opacity:1" fill="#cd9cd9" d="M 148.5,366.5 C 148.34,368.153 147.674,369.486 146.5,370.5C 146.229,368.62 146.896,367.287 148.5,366.5 Z"/></g>
<g><path style="opacity:1" fill="#cc9ad9" d="M 146.5,370.5 C 144.44,377.761 144.107,385.095 145.5,392.5C 143.994,389.644 143.328,386.477 143.5,383C 143.594,379.112 144.094,375.279 145,371.5C 145.383,370.944 145.883,370.611 146.5,370.5 Z"/></g>
<g><path style="opacity:1" fill="#be7dce" d="M 145.5,393.5 C 146.537,394.93 147.204,396.597 147.5,398.5C 145.787,397.365 145.12,395.698 145.5,393.5 Z"/></g>
<g><path style="opacity:1" fill="#b66dc8" d="M 147.5,398.5 C 149.218,400.223 150.551,402.223 151.5,404.5C 148.675,403.522 147.342,401.522 147.5,398.5 Z"/></g>
<g><path style="opacity:1" fill="#c06fd5" d="M 670.5,398.5 C 670.741,400.898 670.074,402.898 668.5,404.5C 668.259,402.102 668.926,400.102 670.5,398.5 Z"/></g>
<g><path style="opacity:1" fill="#ca97d7" d="M 99.5,409.5 C 100.931,410.78 101.598,412.447 101.5,414.5C 100.069,413.22 99.4021,411.553 99.5,409.5 Z"/></g>
<g><path style="opacity:1" fill="#c891d5" d="M 157.5,409.5 C 160.132,410.472 162.465,411.805 164.5,413.5C 161.379,413.264 159.046,411.931 157.5,409.5 Z"/></g>
<g><path style="opacity:1" fill="#bb67d0" d="M 608.5,410.5 C 606.967,412.245 604.967,413.245 602.5,413.5C 604.033,411.755 606.033,410.755 608.5,410.5 Z"/></g>
<g><path style="opacity:1" fill="#cc8fdb" d="M 165.5,413.5 C 172.109,414.423 178.776,414.756 185.5,414.5C 233.336,414.168 281.003,414.501 328.5,415.5C 274.499,415.667 220.499,415.5 166.5,415C 165.944,414.617 165.611,414.117 165.5,413.5 Z"/></g>
<g><path style="opacity:1" fill="#c77bdb" d="M 600.5,414.5 C 544.961,415.175 489.294,415.841 433.5,416.5C 433.611,415.883 433.944,415.383 434.5,415C 489.832,414.5 545.166,414.333 600.5,414.5 Z"/></g>
<g><path style="opacity:1" fill="#c07fcf" d="M 101.5,414.5 C 103.213,415.635 103.88,417.302 103.5,419.5C 102.069,418.22 101.402,416.553 101.5,414.5 Z"/></g>
<g><path style="opacity:1" fill="#aa58bf" d="M 104.5,421.5 C 106.311,421.572 107.644,422.405 108.5,424C 109.274,426.154 109.941,428.321 110.5,430.5C 108.265,427.709 106.265,424.709 104.5,421.5 Z"/></g>
<g><path style="opacity:1" fill="#c576d9" d="M 662.5,421.5 C 661.99,424.674 660.323,427.008 657.5,428.5C 658.786,425.883 660.453,423.55 662.5,421.5 Z"/></g>
<g><path style="opacity:1" fill="#c285d0" d="M 110.5,430.5 C 112.446,431.035 113.446,432.368 113.5,434.5C 112.026,433.564 111.026,432.23 110.5,430.5 Z"/></g>
<g><path style="opacity:1" fill="#b265c5" d="M 113.5,434.5 C 114.583,434.539 115.583,434.873 116.5,435.5C 118.562,438.176 120.562,440.842 122.5,443.5C 118.5,441.5 115.5,438.5 113.5,434.5 Z"/></g>
<g><path style="opacity:1" fill="#c97ddc" d="M 350.5,433.5 C 351.117,433.611 351.617,433.944 352,434.5C 352.5,459.831 352.667,485.164 352.5,510.5C 352.5,510.833 352.5,511.167 352.5,511.5C 352.167,511.5 351.833,511.5 351.5,511.5C 351.815,485.455 351.482,459.455 350.5,433.5 Z"/></g>
<g><path style="opacity:1" fill="#c87ddc" d="M 416.5,432.5 C 415.167,453.5 415.167,474.5 416.5,495.5C 415.732,494.737 415.232,493.737 415,492.5C 414.333,473.167 414.333,453.833 415,434.5C 415.278,433.584 415.778,432.918 416.5,432.5 Z"/></g>
<g><path style="opacity:1" fill="#982db3" d="M 422.5,422.5 C 420.48,425.938 418.98,429.604 418,433.5C 417.199,455.864 417.365,478.197 418.5,500.5C 416.787,499.365 416.12,497.698 416.5,495.5C 415.167,474.5 415.167,453.5 416.5,432.5C 417.272,428.402 419.272,425.069 422.5,422.5 Z"/></g>
<g><path style="opacity:1" fill="#c890d5" d="M 122.5,443.5 C 124.027,443.427 125.027,444.094 125.5,445.5C 123.973,445.573 122.973,444.906 122.5,443.5 Z"/></g>
<g><path style="opacity:1" fill="#be7dce" d="M 125.5,445.5 C 127.749,446.08 129.415,447.413 130.5,449.5C 128.251,448.92 126.585,447.587 125.5,445.5 Z"/></g>
<g><path style="opacity:1" fill="#c893d6" d="M 130.5,449.5 C 132.027,449.427 133.027,450.094 133.5,451.5C 131.973,451.573 130.973,450.906 130.5,449.5 Z"/></g>
<g><path style="opacity:1" fill="#be7ece" d="M 135.5,452.5 C 137.027,452.427 138.027,453.094 138.5,454.5C 136.973,454.573 135.973,453.906 135.5,452.5 Z"/></g>
<g><path style="opacity:1" fill="#d4aadf" d="M 140.5,455.5 C 142.027,455.427 143.027,456.094 143.5,457.5C 141.973,457.573 140.973,456.906 140.5,455.5 Z"/></g>
<g><path style="opacity:1" fill="#cd84df" d="M 632.5,452.5 C 629.114,456.357 624.78,458.357 619.5,458.5C 623.744,456.519 628.077,454.519 632.5,452.5 Z"/></g>
<g><path style="opacity:1" fill="#c080cf" d="M 144.5,457.5 C 146.698,457.12 148.365,457.787 149.5,459.5C 147.597,459.204 145.93,458.537 144.5,457.5 Z"/></g>
<g><path style="opacity:1" fill="#d38ee5" d="M 613.5,460.5 C 613.03,461.693 612.03,462.36 610.5,462.5C 606.868,463.246 603.202,463.579 599.5,463.5C 603.985,462.216 608.651,461.216 613.5,460.5 Z"/></g>
<g><path style="opacity:1" fill="#c283d1" d="M 158.5,461.5 C 164.992,461.994 171.325,462.661 177.5,463.5C 171.824,463.666 166.157,463.499 160.5,463C 159.584,462.722 158.918,462.222 158.5,461.5 Z"/></g>
<g><path style="opacity:1" fill="#ce89df" d="M 177.5,463.5 C 219.833,463.5 262.167,463.5 304.5,463.5C 304.5,508.167 304.5,552.833 304.5,597.5C 304.167,597.5 303.833,597.5 303.5,597.5C 303.817,568.456 303.484,539.456 302.5,510.5C 302.5,495.167 302.5,479.833 302.5,464.5C 261.167,464.5 219.833,464.5 178.5,464.5C 177.833,464.5 177.5,464.167 177.5,463.5 Z"/></g>
<g><path style="opacity:1" fill="#b357c9" d="M 463.5,463.5 C 463.5,472.833 463.5,482.167 463.5,491.5C 463.662,493.527 463.495,495.527 463,497.5C 462.617,498.056 462.117,498.389 461.5,498.5C 462.127,486.704 462.793,475.038 463.5,463.5 Z"/></g>
<g><path style="opacity:1" fill="#d997e9" d="M 463.5,463.5 C 506.5,463.5 549.5,463.5 592.5,463.5C 550.003,464.499 507.337,464.832 464.5,464.5C 464.827,473.682 464.493,482.682 463.5,491.5C 463.5,482.167 463.5,472.833 463.5,463.5 Z"/></g>
<g><path style="opacity:1" fill="#ecb7fa" d="M 178.5,464.5 C 219.833,464.5 261.167,464.5 302.5,464.5C 302.5,479.833 302.5,495.167 302.5,510.5C 278.831,510.667 255.164,510.5 231.5,510C 204.898,505.06 187.231,489.893 178.5,464.5 Z"/></g>
<g><path style="opacity:1" fill="#c272d6" d="M 461.5,499.5 C 461.245,501.967 460.245,503.967 458.5,505.5C 458.755,503.033 459.755,501.033 461.5,499.5 Z"/></g>
<g><path style="opacity:1" fill="#972eb1" d="M 347.5,426.5 C 349.834,428.176 350.834,430.509 350.5,433.5C 351.482,459.455 351.815,485.455 351.5,511.5C 351.5,539.5 351.5,567.5 351.5,595.5C 349.67,541.843 348.837,487.843 349,433.5C 348.56,431.134 348.06,428.801 347.5,426.5 Z"/></g>
<g><path style="opacity:1" fill="#d1a5dc" d="M 351.5,511.5 C 351.833,511.5 352.167,511.5 352.5,511.5C 352.182,541.544 352.516,571.544 353.5,601.5C 351.72,600.01 351.054,598.01 351.5,595.5C 351.5,567.5 351.5,539.5 351.5,511.5 Z"/></g>
<g><path style="opacity:1" fill="#c77adb" d="M 431.5,512.5 C 436.833,513.833 442.167,513.833 447.5,512.5C 447.389,513.117 447.056,513.617 446.5,514C 441.833,514.667 437.167,514.667 432.5,514C 431.944,513.617 431.611,513.117 431.5,512.5 Z"/></g>
<g><path style="opacity:1" fill="#b257c8" d="M 421.5,553.5 C 419.594,556.79 417.927,560.123 416.5,563.5C 416.279,559.132 417.946,555.798 421.5,553.5 Z"/></g>
<g><path style="opacity:1" fill="#b459ca" d="M 461.5,560.5 C 462.83,566.631 463.497,573.131 463.5,580C 463.5,586.675 463.166,593.175 462.5,599.5C 462.796,586.451 462.463,573.451 461.5,560.5 Z"/></g>
<g><path style="opacity:1" fill="#c577d9" d="M 416.5,563.5 C 415.913,575.982 415.246,588.316 414.5,600.5C 414.333,588.829 414.5,577.162 415,565.5C 415.278,564.584 415.778,563.918 416.5,563.5 Z"/></g>
<g><path style="opacity:1" fill="#d0a3dc" d="M 303.5,597.5 C 303.833,597.5 304.167,597.5 304.5,597.5C 304.423,601.215 304.756,604.881 305.5,608.5C 304.778,608.082 304.278,607.416 304,606.5C 303.502,603.518 303.335,600.518 303.5,597.5 Z"/></g>
<g><path style="opacity:1" fill="#c489d2" d="M 353.5,602.5 C 355.245,604.033 356.245,606.033 356.5,608.5C 354.755,606.967 353.755,604.967 353.5,602.5 Z"/></g>
<g><path style="opacity:1" fill="#bb67d0" d="M 413.5,602.5 C 413.245,604.967 412.245,606.967 410.5,608.5C 410.755,606.033 411.755,604.033 413.5,602.5 Z"/></g>
<g><path style="opacity:1" fill="#c285d1" d="M 305.5,609.5 C 306.117,609.611 306.617,609.944 307,610.5C 307.502,613.513 308.002,616.513 308.5,619.5C 306.59,616.548 305.59,613.214 305.5,609.5 Z"/></g>
<g><path style="opacity:1" fill="#af60c2" d="M 356.5,608.5 C 359.527,611.527 362.527,614.527 365.5,617.5C 360.5,616.5 357.5,613.5 356.5,608.5 Z"/></g>
<g><path style="opacity:1" fill="#c488d2" d="M 365.5,617.5 C 367.368,618.263 369.035,619.263 370.5,620.5C 367.966,620.741 366.3,619.741 365.5,617.5 Z"/></g>
<g><path style="opacity:1" fill="#ca94d7" d="M 308.5,619.5 C 310.241,621.395 311.241,623.728 311.5,626.5C 309.552,624.68 308.552,622.346 308.5,619.5 Z"/></g>
<g><path style="opacity:1" fill="#ba76cb" d="M 311.5,627.5 C 313.446,628.035 314.446,629.368 314.5,631.5C 313.026,630.564 312.026,629.23 311.5,627.5 Z"/></g>
<g><path style="opacity:1" fill="#ae5fc2" d="M 314.5,632.5 C 318.071,633.351 319.737,635.684 319.5,639.5C 317.478,637.469 315.811,635.135 314.5,632.5 Z"/></g>
<g><path style="opacity:1" fill="#d490e6" d="M 452.5,632.5 C 452.108,634.179 451.608,635.846 451,637.5C 448.933,640.305 446.433,642.638 443.5,644.5C 446.016,640.134 449.016,636.134 452.5,632.5 Z"/></g>
<g><path style="opacity:1" fill="#ad5cc0" d="M 319.5,639.5 C 322.705,640.13 324.371,642.13 324.5,645.5C 322.367,643.909 320.701,641.909 319.5,639.5 Z"/></g>
<g><path style="opacity:1" fill="#d1a2dc" d="M 324.5,645.5 C 325.5,645.833 326.167,646.5 326.5,647.5C 325.167,647.5 324.5,646.833 324.5,645.5 Z"/></g>
<g><path style="opacity:1" fill="#b76fc9" d="M 326.5,648.5 C 329.958,648.414 331.958,650.081 332.5,653.5C 330.475,651.804 328.475,650.137 326.5,648.5 Z"/></g>
<g><path style="opacity:1" fill="#ce9dda" d="M 332.5,653.5 C 334.027,653.427 335.027,654.094 335.5,655.5C 333.973,655.573 332.973,654.906 332.5,653.5 Z"/></g>
<g><path style="opacity:1" fill="#d089e2" d="M 440.5,648.5 C 438.037,652.3 434.704,654.967 430.5,656.5C 433.539,653.46 436.873,650.794 440.5,648.5 Z"/></g>
<g><path style="opacity:1" fill="#bf80cf" d="M 335.5,655.5 C 337.404,655.738 338.738,656.738 339.5,658.5C 337.596,658.262 336.262,657.262 335.5,655.5 Z"/></g>
<g><path style="opacity:1" fill="#be7ece" d="M 341.5,659.5 C 343.027,659.427 344.027,660.094 344.5,661.5C 342.973,661.573 341.973,660.906 341.5,659.5 Z"/></g>
<g><path style="opacity:1" fill="#c678da" d="M 428.5,657.5 C 427.008,660.323 424.674,661.99 421.5,662.5C 423.55,660.453 425.883,658.786 428.5,657.5 Z"/></g>
<g><path style="opacity:1" fill="#c388d2" d="M 344.5,661.5 C 346.027,661.427 347.027,662.094 347.5,663.5C 345.973,663.573 344.973,662.906 344.5,661.5 Z"/></g>
<g><path style="opacity:1" fill="#b56dc7" d="M 347.5,663.5 C 352.831,663.655 357.498,665.321 361.5,668.5C 356.362,667.921 351.695,666.254 347.5,663.5 Z"/></g>
<g><path style="opacity:1" fill="#c78fd5" d="M 361.5,668.5 C 364.152,668.41 366.485,669.076 368.5,670.5C 365.848,670.59 363.515,669.924 361.5,668.5 Z"/></g>
<g><path style="opacity:1" fill="#d38ee5" d="M 419.5,663.5 C 413.227,667.793 406.227,670.126 398.5,670.5C 405.517,668.383 412.517,666.05 419.5,663.5 Z"/></g>
</svg>
