<?xml version="1.0" encoding="UTF-8"?>
<svg version="1.1" xmlns="http://www.w3.org/2000/svg" width="768" height="768">
<path d="M0 0 C1.26976452 -0.00523668 2.53952905 -0.01047336 3.84777129 -0.01586872 C7.35630127 -0.02998911 10.86474242 -0.03171316 14.37329674 -0.03127182 C18.16344899 -0.03292525 21.9535652 -0.04600132 25.74369812 -0.0574646 C34.02255693 -0.08027026 42.30139004 -0.08822998 50.58027601 -0.09329104 C55.75243097 -0.09655231 60.92457852 -0.10307726 66.09672928 -0.11029243 C80.4263224 -0.12985021 94.75590865 -0.14626002 109.08551598 -0.14916897 C110.45971174 -0.14945032 110.45971174 -0.14945032 111.86166904 -0.14973736 C113.71873863 -0.1501036 115.57580823 -0.1504673 117.43287782 -0.15082847 C118.35468299 -0.15101128 119.27648815 -0.1511941 120.22622681 -0.15138245 C121.61062792 -0.15165327 121.61062792 -0.15165327 123.02299674 -0.15192956 C137.98257255 -0.15547233 152.94200452 -0.18250475 167.90153043 -0.21988034 C183.27226836 -0.25797517 198.64293492 -0.27732652 214.01372111 -0.27762848 C222.63914673 -0.27821268 231.26440059 -0.28668072 239.88978195 -0.31562614 C247.23271925 -0.34015543 254.5754221 -0.34741231 261.91838931 -0.33237862 C265.66254804 -0.32521676 269.40624393 -0.32603539 273.15035057 -0.34878922 C277.2149119 -0.37325339 281.27842329 -0.35872403 285.34301758 -0.34057617 C287.1062669 -0.36037612 287.1062669 -0.36037612 288.90513742 -0.38057607 C297.12321406 -0.29685758 304.21353099 1.24449857 310.23787534 7.18728071 C315.31468579 13.16277651 316.61275403 19.6483632 316.23599243 27.33665466 C315.24161093 34.70879337 311.21320416 40.41042152 305.3799926 44.92692167 C297.97982962 49.7166132 289.30434733 49.69989208 280.78753662 49.63250732 C278.94982187 49.63612747 278.94982187 49.63612747 277.07498157 49.63982075 C273.70007515 49.64360791 270.32568977 49.63410563 266.95084786 49.61894023 C263.30113469 49.60590908 259.6514386 49.61042238 256.00170898 49.61299133 C249.68417277 49.61532106 243.36671753 49.60742476 237.04919815 49.59314919 C227.90218299 49.57302172 218.75527012 49.57517397 209.60824166 49.58382025 C194.7486412 49.59782155 179.8890557 49.6029115 165.02944946 49.59812927 C163.69687693 49.59770964 163.69687693 49.59770964 162.33738373 49.59728154 C149.73107897 49.59289298 137.12479921 49.57957831 124.5185058 49.56267079 C123.63073049 49.56148146 122.74295518 49.56029214 121.82827759 49.55906677 C120.94159099 49.55787318 120.05490439 49.55667958 119.1413485 49.55544982 C104.33777228 49.53612344 89.53430862 49.53993975 74.73073757 49.56260175 C65.61077754 49.57563857 56.49123973 49.56932453 47.37132286 49.53781178 C41.11894911 49.51773032 34.86681736 49.51937422 28.61443962 49.53785578 C25.01170619 49.54780111 21.40966635 49.54811711 17.80699921 49.52192116 C13.89216248 49.49367556 9.97830522 49.512242 6.06341553 49.53485107 C4.37515174 49.51140238 4.37515174 49.51140238 2.65278161 49.48747998 C-6.35346374 49.60256046 -14.17886028 52.213985 -20.97342193 58.31374723 C-27.8525011 65.60513571 -29.79955165 73.61270996 -29.67416382 83.41087341 C-29.021406 91.5146229 -24.77654823 98.96779261 -18.70150757 104.27415466 C-8.93216103 111.47945344 1.66314399 111.2511599 13.29849243 111.27415466 C13.42224243 110.46977966 13.54599243 109.66540466 13.67349243 108.83665466 C13.87974243 107.99102966 14.08599243 107.14540466 14.29849243 106.27415466 C14.95849243 105.94415466 15.61849243 105.61415466 16.29849243 105.27415466 C16.79349243 103.78915466 16.79349243 103.78915466 17.29849243 102.27415466 C17.95849243 102.27415466 18.61849243 102.27415466 19.29849243 102.27415466 C19.79349243 100.78915466 19.79349243 100.78915466 20.29849243 99.27415466 C20.95849243 99.27415466 21.61849243 99.27415466 22.29849243 99.27415466 C22.79349243 97.78915466 22.79349243 97.78915466 23.29849243 96.27415466 C23.95849243 96.27415466 24.61849243 96.27415466 25.29849243 96.27415466 C25.29849243 95.61415466 25.29849243 94.95415466 25.29849243 94.27415466 C26.28849243 93.94415466 27.27849243 93.61415466 28.29849243 93.27415466 C28.79349243 92.75852966 29.28849243 92.24290466 29.79849243 91.71165466 C31.29849243 90.27415466 31.29849243 90.27415466 34.29849243 90.27415466 C34.29849243 89.61415466 34.29849243 88.95415466 34.29849243 88.27415466 C35.71075169 87.59820151 37.12852148 86.93375407 38.54849243 86.27415466 C39.33739868 85.90290466 40.12630493 85.53165466 40.93911743 85.14915466 C43.29849243 84.27415466 43.29849243 84.27415466 47.29849243 84.27415466 C47.29849243 83.61415466 47.29849243 82.95415466 47.29849243 82.27415466 C57.11475053 81.22772512 66.86816456 81.13546196 76.72433472 81.15390015 C78.47123249 81.15346342 80.21813021 81.15258664 81.96502757 81.15131098 C86.73798641 81.149086 91.51092261 81.15305984 96.28387856 81.15808904 C101.44118003 81.16242215 106.5984803 81.16094509 111.75578308 81.16018677 C120.68210399 81.15966334 129.60841757 81.16279118 138.53473663 81.16842461 C151.44057191 81.1765642 164.34640366 81.17915735 177.25224122 81.1804126 C198.19295327 81.18259925 219.13366141 81.18924886 240.07437134 81.19871521 C260.41193624 81.20789932 280.74950009 81.21497527 301.08706665 81.21922302 C302.34143911 81.21948575 303.59581156 81.21974847 304.88819531 81.22001915 C311.18124168 81.22132423 317.47428807 81.22258793 323.76733446 81.22383106 C375.94438982 81.23419163 428.12144093 81.25179944 480.29849243 81.27415466 C480.15461802 79.66793128 480.00600318 78.06213202 479.8553772 76.45652771 C479.77312393 75.56225571 479.69087067 74.6679837 479.60612488 73.74661255 C478.6748602 66.26199018 474.30526675 60.64958114 468.75161743 55.84446716 C460.71426992 50.69954089 453.99932131 49.70780931 444.46020889 49.78829956 C442.32211559 49.80578652 440.18534801 49.79793474 438.04724121 49.78404236 C432.73951807 49.75461673 427.43206053 49.76752575 422.1242981 49.77922058 C417.62787839 49.7874821 413.13204511 49.77925588 408.63570786 49.75009155 C406.54896348 49.74308974 404.46330627 49.75955344 402.37664795 49.77720642 C393.08160261 49.72820922 385.43192438 48.39885237 377.42349243 43.52415466 C371.44907005 37.19829568 368.94775483 31.1854286 369.07974243 22.45774841 C369.69999304 16.26631825 371.8736396 10.69900749 376.29849243 6.27415466 C382.42441297 1.71229894 386.98409852 0.02852003 394.62051392 -0.01637268 C395.34002731 -0.0230899 396.05954071 -0.02980713 396.80085754 -0.03672791 C399.17383803 -0.05568193 401.54653474 -0.05963213 403.91958618 -0.06178284 C405.58284111 -0.06821745 407.24609492 -0.0749463 408.90934753 -0.08195496 C412.39870825 -0.09392476 415.88797006 -0.09763658 419.37734985 -0.09645081 C423.81190237 -0.09624875 428.2458058 -0.12343335 432.68020535 -0.15799522 C436.11985581 -0.18043537 439.55935501 -0.184283 442.99907112 -0.18323135 C444.63147255 -0.1855662 446.26387953 -0.19426787 447.89620781 -0.20989609 C461.51770713 -0.32799625 473.44381196 1.68425267 485.67349243 8.14915466 C486.34122681 8.49285095 487.00896118 8.83654724 487.69692993 9.19065857 C492.62745508 11.78472149 497.09114724 14.59272762 501.29849243 18.27415466 C501.29849243 18.93415466 501.29849243 19.59415466 501.29849243 20.27415466 C501.85021118 20.49716248 502.40192993 20.72017029 502.97036743 20.94993591 C515.68893812 28.18415649 523.67647271 45.00443368 527.48989868 58.51243591 C529.24627077 66.68338435 530.27791498 74.98372653 531.29849243 83.27415466 C532.18057373 83.55766785 532.18057373 83.55766785 533.08047485 83.84690857 C549.37782006 89.1665168 549.37782006 89.1665168 554.29849243 96.27415466 C555.12349243 96.91352966 555.94849243 97.55290466 556.79849243 98.21165466 C559.6873448 100.59495787 561.40918084 103.05532751 563.29849243 106.27415466 C563.29849243 106.93415466 563.29849243 107.59415466 563.29849243 108.27415466 C563.95849243 108.27415466 564.61849243 108.27415466 565.29849243 108.27415466 C565.97203743 109.70844467 566.63708944 111.14672523 567.29849243 112.58665466 C567.66974243 113.38716248 568.04099243 114.18767029 568.42349243 115.01243591 C569.29849243 117.27415466 569.29849243 117.27415466 569.29849243 120.27415466 C569.95849243 120.27415466 570.61849243 120.27415466 571.29849243 120.27415466 C571.62849243 123.57415466 571.95849243 126.87415466 572.29849243 130.27415466 C572.95849243 130.27415466 573.61849243 130.27415466 574.29849243 130.27415466 C574.35675331 134.64909836 574.392177 139.02394164 574.42349243 143.39915466 C574.44025024 144.63665466 574.45700806 145.87415466 574.47427368 147.14915466 C574.48394165 148.94739685 574.48394165 148.94739685 574.49380493 150.78196716 C574.50951538 152.43156433 574.50951538 152.43156433 574.52554321 154.11448669 C574.28422271 157.47273391 573.46317897 160.12789492 572.29849243 163.27415466 C571.93743146 164.93503511 571.5938707 166.60034447 571.29849243 168.27415466 C570.63849243 168.27415466 569.97849243 168.27415466 569.29849243 168.27415466 C568.96849243 170.25415466 568.63849243 172.23415466 568.29849243 174.27415466 C567.63849243 174.27415466 566.97849243 174.27415466 566.29849243 174.27415466 C566.17474243 175.24352966 566.05099243 176.21290466 565.92349243 177.21165466 C565.71724243 178.22227966 565.51099243 179.23290466 565.29849243 180.27415466 C564.63849243 180.60415466 563.97849243 180.93415466 563.29849243 181.27415466 C562.96849243 182.26415466 562.63849243 183.25415466 562.29849243 184.27415466 C561.63849243 184.27415466 560.97849243 184.27415466 560.29849243 184.27415466 C560.23661743 185.03727966 560.17474243 185.80040466 560.11099243 186.58665466 C559.01521087 190.21116292 557.58937898 190.48562936 554.29849243 192.27415466 C553.13330354 193.23020709 551.98860291 194.21155667 550.86099243 195.21165466 C542.90206429 202.13471363 542.90206429 202.13471363 538.42349243 202.52415466 C537.72224243 202.44165466 537.02099243 202.35915466 536.29849243 202.27415466 C536.29849243 202.93415466 536.29849243 203.59415466 536.29849243 204.27415466 C535.37165649 204.4069281 534.44482056 204.53970154 533.48989868 204.67649841 C531.69359009 204.94140076 531.69359009 204.94140076 529.86099243 205.21165466 C528.66603149 205.3856781 527.47107056 205.55970154 526.23989868 205.73899841 C523.41893567 205.96400679 523.41893567 205.96400679 522.29849243 207.27415466 C519.82340678 207.3738797 517.37618238 207.40777852 514.90054321 207.3999958 C513.71908864 207.40217597 513.71908864 207.40217597 512.51376629 207.40440017 C509.84042705 207.40808697 507.16714388 207.40456144 504.49380493 207.40113831 C502.5714973 207.40228907 500.64918988 207.40387629 498.72688293 207.40586555 C493.41793359 207.41006505 488.10900208 207.4079654 482.80005264 207.40487933 C477.08493169 207.40262796 471.36981393 207.40610353 465.6546936 207.40885925 C454.44826962 207.41331878 443.2418523 207.41233968 432.03542805 207.40944661 C422.93219765 207.40719329 413.82896912 207.40687975 404.72573853 207.40797043 C403.4328444 207.40812366 402.13995028 207.40827689 400.80787754 207.40843477 C398.1818428 207.40875448 395.55580807 207.40907869 392.92977333 207.40940736 C368.97706726 207.4121812 345.02436481 207.40929882 321.07165933 207.40406477 C299.18633091 207.39931885 277.3010083 207.39974346 255.41567993 207.40452576 C230.85087486 207.40987557 206.28607331 207.41198799 181.7212677 207.40891349 C179.10459391 207.40859493 176.48792013 207.40828056 173.87124634 207.40797043 C171.93978681 207.40773902 171.93978681 207.40773902 169.9693079 207.40750293 C160.87119023 207.4066375 151.77307462 207.4081012 142.67495728 207.41044998 C131.59575485 207.41324718 120.51655951 207.41251143 109.4373579 207.40716924 C103.77862851 207.40453113 98.11991096 207.40352899 92.46118164 207.40681839 C87.28984571 207.40977912 82.1185327 207.4081923 76.94719887 207.40284084 C75.06768123 207.40171569 73.18816168 207.40230996 71.30864525 207.40471663 C68.77121577 207.40771867 66.23386678 207.40467816 63.69644165 207.3999958 C62.95172954 207.40233697 62.20701742 207.40467814 61.43973827 207.40709025 C56.41264277 207.388305 56.41264277 207.388305 55.29849243 206.27415466 C53.44993794 205.94880907 51.59414101 205.66427223 49.73599243 205.39915466 C44.54944927 204.56980289 40.08302793 203.44073678 35.29849243 201.27415466 C34.96849243 200.61415466 34.63849243 199.95415466 34.29849243 199.27415466 C33.30849243 198.94415466 32.31849243 198.61415466 31.29849243 198.27415466 C31.29849243 197.61415466 31.29849243 196.95415466 31.29849243 196.27415466 C30.55599243 196.21227966 29.81349243 196.15040466 29.04849243 196.08665466 C25.42831876 195.0170579 24.52465345 193.26555853 22.29849243 190.27415466 C21.41161743 189.61415466 20.52474243 188.95415466 19.61099243 188.27415466 C16.94046996 185.9645136 16.58607624 184.7251604 16.29849243 181.27415466 C15.30849243 180.94415466 14.31849243 180.61415466 13.29849243 180.27415466 C13.29849243 179.28415466 13.29849243 178.29415466 13.29849243 177.27415466 C12.63849243 177.27415466 11.97849243 177.27415466 11.29849243 177.27415466 C10.96849243 175.29415466 10.63849243 173.31415466 10.29849243 171.27415466 C9.63849243 171.27415466 8.97849243 171.27415466 8.29849243 171.27415466 C7.80349243 166.81915466 7.80349243 166.81915466 7.29849243 162.27415466 C4.32276034 161.28224397 1.81431689 161.12965929 -1.29745483 161.03562927 C-23.49030838 160.2949712 -40.83592453 151.25215263 -56.70150757 136.27415466 C-57.32412476 135.70309998 -57.94674194 135.13204529 -58.58822632 134.54368591 C-59.70150757 133.27415466 -59.70150757 133.27415466 -59.70150757 131.27415466 C-60.36150757 131.27415466 -61.02150757 131.27415466 -61.70150757 131.27415466 C-71.72552886 120.03349754 -76.54599556 105.86531285 -78.70150757 91.27415466 C-78.88971069 90.13977966 -79.07791382 89.00540466 -79.27182007 87.83665466 C-81.67276462 67.93064165 -75.5493498 48.23022701 -63.70150757 32.27415466 C-63.04150757 31.28415466 -62.38150757 30.29415466 -61.70150757 29.27415466 C-61.04150757 29.27415466 -60.38150757 29.27415466 -59.70150757 29.27415466 C-59.36892944 28.44657654 -59.36892944 28.44657654 -59.02963257 27.60227966 C-51.68413602 14.7260563 -34.2731878 6.24731322 -20.70150757 2.27415466 C-19.58788534 1.93353469 -18.47426311 1.59291471 -17.32689476 1.24197292 C-11.59787092 -0.1693324 -5.86907965 -0.01201253 0 0 Z " fill="#ECB6FA" transform="translate(158.70150756835938,303.72584533691406)"/>
<path d="M0 0 C0.7195134 -0.00671722 1.43902679 -0.01343445 2.18034363 -0.02035522 C4.55332411 -0.03930925 6.92602082 -0.04325945 9.29907227 -0.04541016 C10.96232719 -0.05184477 12.62558101 -0.05857362 14.28883362 -0.06558228 C17.77819434 -0.07755208 21.26745614 -0.0812639 24.75683594 -0.08007812 C29.19138846 -0.07987607 33.62529189 -0.10706067 38.05969143 -0.14162254 C41.4993419 -0.16406269 44.9388411 -0.16791032 48.37855721 -0.16685867 C50.01095863 -0.16919351 51.64336561 -0.17789519 53.27569389 -0.19352341 C66.89719321 -0.31162357 78.82329805 1.70062535 91.05297852 8.16552734 C91.72071289 8.50922363 92.38844727 8.85291992 93.07641602 9.20703125 C98.00694117 11.80109417 102.47063332 14.6091003 106.67797852 18.29052734 C106.67797852 18.95052734 106.67797852 19.61052734 106.67797852 20.29052734 C107.22969727 20.51353516 107.78141602 20.73654297 108.34985352 20.96630859 C121.20223801 28.27664138 129.2025371 45.33216941 133.00219727 58.97412109 C134.24015511 65.04941712 134.52417716 71.10503816 134.67797852 77.29052734 C134.71793945 78.28697266 134.75790039 79.28341797 134.79907227 80.31005859 C134.94065878 86.3982785 134.46444938 92.37050648 133.80297852 98.41552734 C133.7245874 99.16302246 133.64619629 99.91051758 133.56542969 100.68066406 C132.91997354 106.04853232 132.91997354 106.04853232 130.67797852 108.29052734 C130.19443718 109.71320098 129.76248772 111.15382198 129.36547852 112.60302734 C127.9535906 117.02834768 126.10473313 119.09741509 122.67797852 122.29052734 C120.79739028 124.91441503 119.0039046 127.58263518 117.22875977 130.27880859 C116.71700195 130.94267578 116.20524414 131.60654297 115.67797852 132.29052734 C115.01797852 132.29052734 114.35797852 132.29052734 113.67797852 132.29052734 C113.43821289 132.86544922 113.19844727 133.44037109 112.95141602 134.03271484 C111.4236365 136.74147729 109.64167467 138.37208187 107.30297852 140.41552734 C106.53211914 141.09873047 105.76125977 141.78193359 104.96704102 142.48583984 C102.91169944 144.10626273 101.00165275 145.13365534 98.67797852 146.29052734 C98.05922852 147.09490234 97.44047852 147.89927734 96.80297852 148.72802734 C92.42592876 154.00623441 86.19051983 155.2489996 79.67797852 156.29052734 C76.61547852 156.41552734 76.61547852 156.41552734 74.67797852 156.29052734 C74.67797852 156.95052734 74.67797852 157.61052734 74.67797852 158.29052734 C70.81266049 160.08912936 67.78327375 160.53962907 63.53419018 160.536623 C61.66957426 160.54259615 61.66957426 160.54259615 59.76728934 160.54868996 C58.39069112 160.54298425 57.01409367 160.53709306 55.63749695 160.53103638 C54.17300158 160.53190854 52.70850653 160.53365973 51.24401313 160.53621471 C47.21911282 160.54069009 43.19431881 160.53268194 39.16943204 160.52265859 C34.82932944 160.51402915 30.48923292 160.51694389 26.14912415 160.51846313 C18.62939214 160.51951231 11.10969482 160.51323234 3.58997154 160.50198746 C-7.28230827 160.48573979 -18.15457129 160.4805252 -29.02686193 160.47801147 C-46.66602944 160.47363322 -64.30517846 160.46032058 -81.94433594 160.44140625 C-99.08007718 160.42305083 -116.21581341 160.40889267 -133.3515625 160.40039062 C-134.40764532 160.39986518 -135.46372813 160.39933973 -136.55181346 160.39879836 C-141.84982148 160.3961883 -147.14782954 160.39366088 -152.44583762 160.39117455 C-196.40457838 160.370438 -240.36329898 160.33520891 -284.32202148 160.29052734 C-284.32202148 159.63052734 -284.32202148 158.97052734 -284.32202148 158.29052734 C-285.0606543 158.20029297 -285.79928711 158.11005859 -286.56030273 158.01708984 C-291.411207 156.74089721 -294.25578118 153.10782426 -297.32202148 149.29052734 C-300.40955164 142.60087867 -300.45147552 134.33554876 -298.48217773 127.28271484 C-295.90281569 120.90812987 -292.56940525 116.39055489 -286.32202148 113.29052734 C-282.60583744 112.37404886 -279.14069983 112.16401138 -275.31993198 112.16024208 C-274.10842207 112.15661773 -272.89691215 112.15299339 -271.64868981 112.14925921 C-270.30766834 112.15025576 -268.96664694 112.15133787 -267.62562561 112.15249634 C-266.19840477 112.15007762 -264.77118462 112.14721515 -263.34396547 112.14394701 C-259.42189779 112.13619802 -255.49984761 112.13457481 -251.57777321 112.13389587 C-247.34798089 112.13205545 -243.11819879 112.12444826 -238.88841248 112.11741638 C-231.55860077 112.10589258 -224.22879136 112.09764739 -216.89897346 112.09129715 C-205.31580717 112.08097173 -193.73266956 112.06040901 -182.14952087 112.03817749 C-178.18700132 112.03069793 -174.22448165 112.0232842 -170.26196194 112.01589012 C-168.77658087 112.01311427 -168.77658087 112.01311427 -167.2611921 112.01028235 C-155.98988606 111.98935671 -144.71857686 111.97052697 -133.44726562 111.95263672 C-131.90173861 111.95017945 -131.90173861 111.95017945 -130.32498883 111.94767253 C-113.61986046 111.92137534 -96.91472987 111.90273807 -80.20958955 111.88604482 C-63.06256806 111.86863303 -45.91559004 111.83979891 -28.76860327 111.80115545 C-18.1896307 111.77774136 -7.61072897 111.76375961 2.96826971 111.76182781 C10.21530854 111.75972077 17.46227683 111.74681113 24.709284 111.72534849 C28.89227866 111.71330442 33.07513328 111.70617816 37.25814438 111.71206093 C41.08689506 111.7173492 44.91535982 111.70890436 48.74406273 111.68950455 C50.12960236 111.68492298 51.51516988 111.68540775 52.9007039 111.69145294 C54.78381429 111.69893621 56.66697252 111.68620533 58.55004787 111.67249489 C60.11916366 111.67046009 60.11916366 111.67046009 61.71997875 111.66838419 C69.37785387 110.69016215 73.75609694 105.69258228 78.36547852 99.97802734 C79.12860352 99.09115234 79.89172852 98.20427734 80.67797852 97.29052734 C81.33797852 97.29052734 81.99797852 97.29052734 82.67797852 97.29052734 C82.80172852 96.48615234 82.92547852 95.68177734 83.05297852 94.85302734 C83.52610487 92.15620712 84.09199198 89.56926304 84.74047852 86.91552734 C86.78681895 77.4708792 85.33354867 71.70935003 80.67797852 63.29052734 C76.45383601 56.89396869 69.91443236 52.70267863 62.67797852 50.29052734 C60.60486069 50.19304549 58.5287678 50.15505723 56.45336914 50.14868164 C55.16773071 50.14164719 53.88209229 50.13461273 52.55749512 50.12736511 C51.52620232 50.12464128 51.52620232 50.12464128 50.47407532 50.12186241 C48.31159907 50.11467084 46.14934634 50.09898049 43.98693848 50.08052063 C37.83841183 50.02820607 31.69000373 49.98018084 25.54125977 49.96459961 C21.77685481 49.95443667 18.01300805 49.92489828 14.24882507 49.8832798 C12.82334138 49.87107453 11.39777843 49.86582913 9.97224426 49.86807823 C-0.07743729 49.88002231 -8.50450525 48.83162418 -17.19702148 43.54052734 C-23.17144386 37.21466836 -25.67275909 31.20180128 -25.54077148 22.47412109 C-24.92052088 16.28269094 -22.74687432 10.71538018 -18.32202148 6.29052734 C-12.19610095 1.72867162 -7.63641539 0.04489271 0 0 Z " fill="#8C16A9" transform="translate(553.322021484375,303.70947265625)"/>
<path d="M0 0 C1.26976452 -0.00523668 2.53952905 -0.01047336 3.84777129 -0.01586872 C7.35630127 -0.02998911 10.86474242 -0.03171316 14.37329674 -0.03127182 C18.16344899 -0.03292525 21.9535652 -0.04600132 25.74369812 -0.0574646 C34.02255693 -0.08027026 42.30139004 -0.08822998 50.58027601 -0.09329104 C55.75243097 -0.09655231 60.92457852 -0.10307726 66.09672928 -0.11029243 C80.4263224 -0.12985021 94.75590865 -0.14626002 109.08551598 -0.14916897 C110.45971174 -0.14945032 110.45971174 -0.14945032 111.86166904 -0.14973736 C113.71873863 -0.1501036 115.57580823 -0.1504673 117.43287782 -0.15082847 C118.35468299 -0.15101128 119.27648815 -0.1511941 120.22622681 -0.15138245 C121.61062792 -0.15165327 121.61062792 -0.15165327 123.02299674 -0.15192956 C137.98257255 -0.15547233 152.94200452 -0.18250475 167.90153043 -0.21988034 C183.27226836 -0.25797517 198.64293492 -0.27732652 214.01372111 -0.27762848 C222.63914673 -0.27821268 231.26440059 -0.28668072 239.88978195 -0.31562614 C247.23271925 -0.34015543 254.5754221 -0.34741231 261.91838931 -0.33237862 C265.66254804 -0.32521676 269.40624393 -0.32603539 273.15035057 -0.34878922 C277.2149119 -0.37325339 281.27842329 -0.35872403 285.34301758 -0.34057617 C287.1062669 -0.36037612 287.1062669 -0.36037612 288.90513742 -0.38057607 C297.12321406 -0.29685758 304.21353099 1.24449857 310.23787534 7.18728071 C315.31468579 13.16277651 316.61275403 19.6483632 316.23599243 27.33665466 C315.24161093 34.70879337 311.21320416 40.41042152 305.3799926 44.92692167 C297.97982962 49.7166132 289.30434733 49.69989208 280.78753662 49.63250732 C278.94982187 49.63612747 278.94982187 49.63612747 277.07498157 49.63982075 C273.70007515 49.64360791 270.32568977 49.63410563 266.95084786 49.61894023 C263.30113469 49.60590908 259.6514386 49.61042238 256.00170898 49.61299133 C249.68417277 49.61532106 243.36671753 49.60742476 237.04919815 49.59314919 C227.90218299 49.57302172 218.75527012 49.57517397 209.60824166 49.58382025 C194.7486412 49.59782155 179.8890557 49.6029115 165.02944946 49.59812927 C163.69687693 49.59770964 163.69687693 49.59770964 162.33738373 49.59728154 C149.73107897 49.59289298 137.12479921 49.57957831 124.5185058 49.56267079 C123.63073049 49.56148146 122.74295518 49.56029214 121.82827759 49.55906677 C120.94159099 49.55787318 120.05490439 49.55667958 119.1413485 49.55544982 C104.33777228 49.53612344 89.53430862 49.53993975 74.73073757 49.56260175 C65.61077754 49.57563857 56.49123973 49.56932453 47.37132286 49.53781178 C41.11894911 49.51773032 34.86681736 49.51937422 28.61443962 49.53785578 C25.01170619 49.54780111 21.40966635 49.54811711 17.80699921 49.52192116 C13.89216248 49.49367556 9.97830522 49.512242 6.06341553 49.53485107 C4.37515174 49.51140238 4.37515174 49.51140238 2.65278161 49.48747998 C-6.35346374 49.60256046 -14.17886028 52.213985 -20.97342193 58.31374723 C-27.8525011 65.60513571 -29.79955165 73.61270996 -29.67416382 83.41087341 C-29.01819859 91.5544417 -24.73234855 98.87536688 -18.70150757 104.27415466 C-16.37087197 105.73757702 -14.02685137 107.01900268 -11.55697632 108.23118591 C-9.70150757 109.27415466 -9.70150757 109.27415466 -8.70150757 111.27415466 C-8.11248657 111.293974 -7.52346558 111.31379333 -6.91659546 111.33421326 C-4.19868406 111.43058743 -1.48142654 111.53980179 1.23599243 111.64915466 C2.16218384 111.68009216 3.08837524 111.71102966 4.04263306 111.74290466 C10.02670566 111.99486561 15.48910979 112.80840273 21.29849243 114.27415466 C21.29849243 114.93415466 21.29849243 115.59415466 21.29849243 116.27415466 C21.87083618 116.34376404 22.44317993 116.41337341 23.03286743 116.48509216 C28.19324883 118.28232844 31.0030773 123.59129125 33.29849243 128.27415466 C34.56968764 135.60622704 34.51167256 143.22358285 30.49380493 149.69993591 C26.86067357 154.48474618 23.18684632 157.77882348 17.29849243 159.27415466 C13.00517008 159.60914472 8.73988414 159.62306161 4.43521118 159.55540466 C2.40768256 159.52390907 0.38093033 159.51439304 -1.64682007 159.50852966 C-11.54729838 159.42836385 -11.54729838 159.42836385 -12.70150757 158.27415466 C-14.38891271 158.24669237 -16.07645386 158.22755355 -17.76400757 158.21165466 C-29.0530108 157.3754322 -40.30276443 150.64619774 -48.70150757 143.27415466 C-49.66443726 142.44142029 -50.62736694 141.60868591 -51.61947632 140.75071716 C-57.17215584 135.85930092 -57.17215584 135.85930092 -59.70150757 133.27415466 C-59.70150757 132.61415466 -59.70150757 131.95415466 -59.70150757 131.27415466 C-60.36150757 131.27415466 -61.02150757 131.27415466 -61.70150757 131.27415466 C-71.72552886 120.03349754 -76.54599556 105.86531285 -78.70150757 91.27415466 C-78.88971069 90.13977966 -79.07791382 89.00540466 -79.27182007 87.83665466 C-81.67276462 67.93064165 -75.5493498 48.23022701 -63.70150757 32.27415466 C-63.04150757 31.28415466 -62.38150757 30.29415466 -61.70150757 29.27415466 C-61.04150757 29.27415466 -60.38150757 29.27415466 -59.70150757 29.27415466 C-59.36892944 28.44657654 -59.36892944 28.44657654 -59.02963257 27.60227966 C-51.68413602 14.7260563 -34.2731878 6.24731322 -20.70150757 2.27415466 C-19.58788534 1.93353469 -18.47426311 1.59291471 -17.32689476 1.24197292 C-11.59787092 -0.1693324 -5.86907965 -0.01201253 0 0 Z " fill="#8C16A9" transform="translate(158.70150756835938,303.72584533691406)"/>
<path d="M0 0 C99.99 0 199.98 0 303 0 C298.2622745 2.36886275 295.09605634 3.1250021 289.85053062 3.12469864 C288.80371475 3.12708959 287.75689887 3.12948054 286.6783613 3.13194394 C285.52954937 3.12951145 284.38073745 3.12707896 283.19711304 3.12457275 C281.97568529 3.1259829 280.75425754 3.12739305 279.49581683 3.12884593 C276.81223083 3.13123708 274.12871613 3.13179704 271.44513702 3.12928963 C267.07860154 3.12523009 262.71208546 3.12799903 258.34555054 3.13163757 C252.82719986 3.1357286 247.30885352 3.13796722 241.79050131 3.13805357 C230.94255937 3.13825633 220.09466212 3.15071831 209.24673462 3.16766357 C207.53869547 3.17026937 205.8306563 3.17286818 204.12261713 3.1754601 C201.53393465 3.17939858 198.94525218 3.1833451 196.35656976 3.18732132 C186.59562509 3.20226888 176.83467905 3.21589228 167.07373047 3.22802734 C166.18143115 3.2291409 165.28913183 3.23025447 164.36979313 3.23140177 C149.91764356 3.24896797 135.46552199 3.25184647 121.01336353 3.25017694 C106.1715577 3.24889708 91.32985598 3.2666546 76.48809016 3.30119491 C67.33635415 3.32182875 58.18486764 3.32719453 49.03311844 3.3128666 C42.75734199 3.30439548 36.4817592 3.31417048 30.20602362 3.3381761 C26.58747479 3.35145913 22.96939066 3.35671405 19.35084534 3.34005547 C15.42190721 3.32216853 11.49370341 3.34307203 7.56478882 3.36749268 C6.42936122 3.3561373 5.29393363 3.34478192 4.12409914 3.33308244 C-2.62736845 3.41456006 -7.2269808 4.56359752 -13.05891836 8.02614284 C-13.6994753 8.3475157 -14.34003224 8.66888856 -15 9 C-15.66 8.67 -16.32 8.34 -17 8 C-15.6875 6.5 -15.6875 6.5 -14 5 C-13.01 5 -12.02 5 -11 5 C-11 4.34 -11 3.68 -11 3 C-7.32589215 1.82428549 -3.83070817 1.92633254 0 2 C0 1.34 0 0.68 0 0 Z " fill="#AD5BC1" transform="translate(157,350)"/>
<path d="M0 0 C0.96318983 2.67552729 0.9611807 4.25938441 0.53344727 7.11743164 C-0.04348193 11.31647285 -0.12670363 15.3301738 -0.09765625 19.55859375 C-0.0962413 20.34774673 -0.09482635 21.13689972 -0.09336853 21.94996643 C-0.08781555 24.44585115 -0.07527208 26.94164285 -0.0625 29.4375 C-0.05747891 31.13997265 -0.05291707 32.84244673 -0.04882812 34.54492188 C-0.03786158 38.69664988 -0.02062991 42.84830922 0 47 C0.66 47 1.32 47 2 47 C1.505 49.475 1.505 49.475 1 52 C-0.88645402 49.17031897 -1.34555238 48.03546458 -1.8515625 44.83203125 C-2.04492188 43.61483398 -2.04492188 43.61483398 -2.2421875 42.37304688 C-2.36851563 41.52806641 -2.49484375 40.68308594 -2.625 39.8125 C-2.7590625 38.98685547 -2.893125 38.16121094 -3.03125 37.31054688 C-4.37921857 28.58313811 -4.02137887 20.8797039 -2.5625 12.1875 C-2.42779297 11.34251953 -2.29308594 10.49753906 -2.15429688 9.62695312 C-1.61177061 6.29504791 -1.07014115 3.21042346 0 0 Z " fill="#B56AC7" transform="translate(83,358)"/>
<path d="M0 0 C1.52634923 3.05269846 0.83794444 5.75845689 0.5625 9.125 C0.40974609 11.04699219 0.40974609 11.04699219 0.25390625 13.0078125 C0.17011719 13.99523437 0.08632813 14.98265625 0 16 C0.66 16 1.32 16 2 16 C2.12375 17.134375 2.2475 18.26875 2.375 19.4375 C2.684375 21.2009375 2.684375 21.2009375 3 23 C3.66 23.33 4.32 23.66 5 24 C4.01 24 3.02 24 2 24 C-2.0654332 18.52730147 -2.55907208 12.66985989 -2 6 C-1 2.5 -1 2.5 0 0 Z " fill="#BE7ECF" transform="translate(530,318)"/>
<path d="M0 0 C0.33 0.66 0.66 1.32 1 2 C-0.43775696 5.21783702 -2.04417512 8.06626269 -4 11 C-4.66 11 -5.32 11 -6 11 C-4.74194623 6.49197399 -3.09592835 3.5087188 0 0 Z " fill="#B367C6" transform="translate(95,336)"/>
<path d="M0 0 C0.66 0.33 1.32 0.66 2 1 C-0.5550839 3.98093122 -3.38281401 5.52359755 -7 7 C-9.375 6.6875 -9.375 6.6875 -11 6 C-10.34 6 -9.68 6 -9 6 C-9 5.34 -9 4.68 -9 4 C-8.43410156 3.79503906 -7.86820313 3.59007812 -7.28515625 3.37890625 C-6.55167969 3.10949219 -5.81820312 2.84007812 -5.0625 2.5625 C-4.33160156 2.29566406 -3.60070312 2.02882813 -2.84765625 1.75390625 C-1.01694322 1.14613052 -1.01694322 1.14613052 0 0 Z " fill="#B45BCB" transform="translate(649,451)"/>
<path d="M0 0 C0.66 0 1.32 0 2 0 C2 2.31 2 4.62 2 7 C2.66 7 3.32 7 4 7 C3.67 8.65 3.34 10.3 3 12 C0.97649676 8.96474514 0.67875982 7.80573798 0.375 4.3125 C0.30023438 3.50425781 0.22546875 2.69601562 0.1484375 1.86328125 C0.09945312 1.24839844 0.05046875 0.63351562 0 0 Z " fill="#B974CB" transform="translate(81,398)"/>
<path d="M0 0 C0.33 0.66 0.66 1.32 1 2 C0.01 3.485 0.01 3.485 -1 5 C-1.66 5 -2.32 5 -3 5 C-3 5.66 -3 6.32 -3 7 C-3.66 7 -4.32 7 -5 7 C-5 7.66 -5 8.32 -5 9 C-5.66 8.67 -6.32 8.34 -7 8 C-6.67 7.34 -6.34 6.68 -6 6 C-5.34 6 -4.68 6 -4 6 C-3.71125 5.38125 -3.4225 4.7625 -3.125 4.125 C-2 2 -2 2 0 0 Z " fill="#B061C4" transform="translate(103,327)"/>
<path d="M0 0 C0.66 0 1.32 0 2 0 C2.185625 1.7015625 2.185625 1.7015625 2.375 3.4375 C2.684375 5.2009375 2.684375 5.2009375 3 7 C3.66 7.33 4.32 7.66 5 8 C4.01 8 3.02 8 2 8 C-0.1519437 4.77208445 -0.20086443 3.71599191 0 0 Z " fill="#A954BF" transform="translate(530,334)"/>
</svg>
