<svg width="36" height="36" viewBox="0 0 22 22" fill="none" xmlns="http://www.w3.org/2000/svg">
<g transform="rotate(180, 11, 11)">
    <path d="M6.59 3.49049C6.755 3.47883 6.93166 3.50383 7.08166 3.44883C8.325 2.98883 9.61833 2.90549 10.915 3.01216C12.1017 3.11049 13.2283 3.46883 14.2783 4.04716C16.3817 5.20383 17.825 6.9255 18.5833 9.19216C19.205 11.0455 19.165 12.9238 18.6017 14.7955C18.5467 14.9755 18.5417 15.1705 18.5117 15.3572V15.3355C18.4533 15.4105 18.395 15.4855 18.3383 15.5605C16.245 18.1838 12.3467 19.1805 9.18166 17.9988C8.565 17.7688 7.99166 17.4238 7.4 17.1305C6.83833 16.8522 6.40166 16.9305 6.17499 17.3488C5.96333 17.7388 6.1 18.1422 6.60999 18.4455C8.15166 19.3622 9.79 20.0022 11.615 19.9838C12.4683 19.9755 13.32 19.8888 14.1733 19.8388C13.5783 20.5572 12.6933 20.6522 11.8833 20.8122C9.25166 21.3355 6.81166 20.8572 4.62666 19.2355C2.80166 17.8805 1.65499 16.0888 1.17499 13.8822C0.809995 12.2072 0.943328 10.5472 1.50999 8.9355C1.64999 8.53883 1.93666 8.19383 2.15666 7.82549C2.00666 9.1705 1.89999 10.5105 2.16499 11.8588C2.38499 12.9822 2.77666 14.0372 3.35666 15.0155C3.72166 15.6322 4.45833 15.6072 4.70833 14.9622C4.79666 14.7355 4.68166 14.3772 4.55666 14.1305C3.95166 12.9322 3.54499 11.6755 3.51666 10.3338C3.46166 7.57883 4.46166 5.2755 6.59 3.49049ZM13.4267 10.2505C13.1833 10.5072 12.9817 10.7288 12.77 10.9422C11.8883 11.8272 10.9983 12.7038 10.125 13.5955C9.72333 14.0055 9.68999 14.4438 9.99666 14.7672C10.32 15.1072 10.6917 15.0822 11.14 14.6388C12.305 13.4888 13.4667 12.3338 14.6117 11.1638C15.195 10.5672 15.1933 9.93883 14.61 9.33716C13.7217 8.4205 12.8067 7.5305 11.905 6.62716C11.61 6.33216 11.3317 6.02216 11.0217 5.74549C10.6533 5.41549 10.2933 5.42383 9.99666 5.73049C9.72999 6.00716 9.72833 6.43883 10.005 6.78216C10.11 6.9105 10.2367 7.02049 10.355 7.13883C11.18 7.96216 12.0067 8.78383 12.8283 9.61049C13.0217 9.80049 13.2 10.0072 13.4267 10.2505Z" fill="#EAB8F7"/>
<path d="M14.1717 19.8395C13.3183 19.8912 12.4667 19.9762 11.6133 19.9845C9.78832 20.0029 8.14999 19.3629 6.60832 18.4462C6.09832 18.1429 5.96165 17.7395 6.17332 17.3495C6.40165 16.9312 6.83665 16.8545 7.39832 17.1312C7.99165 17.4245 8.56499 17.7695 9.17999 17.9995C12.345 19.1812 16.2433 18.1845 18.3383 15.5595C18.3967 15.4845 18.455 15.4095 18.5117 15.3345V15.3562C20.1283 13.5195 20.6717 11.3545 20.42 8.96954C20.26 7.45288 19.6817 6.08454 18.7667 4.86288C18.7333 4.81788 18.695 4.77788 18.665 4.73121C18.3933 4.28621 18.4383 3.88954 18.7917 3.62788C19.135 3.37121 19.555 3.43954 19.8783 3.84454C20.5933 4.73954 21.1283 5.74121 21.485 6.82454C22.9083 11.1545 21.32 15.6412 17.6983 18.2145C16.625 18.9812 15.4 19.4112 14.1717 19.8395Z" fill="#8C25A8"/>
<path d="M6.58999 3.49096C4.46166 5.27596 3.46166 7.57929 3.51666 10.3343C3.54333 11.676 3.94999 12.9326 4.55666 14.131C4.68166 14.3776 4.79499 14.736 4.70833 14.9626C4.45833 15.6076 3.72333 15.6326 3.35666 15.016C2.77666 14.0376 2.38499 12.9826 2.16499 11.8593C1.90166 10.511 2.00666 9.17096 2.15666 7.82596C2.63833 6.43929 3.16333 5.08262 4.07333 3.89596C7.075 -0.022377 12.6083 -1.16071 16.8933 1.29096C17.0367 1.37262 17.19 1.44929 17.3083 1.56096C17.5883 1.82596 17.5983 2.16762 17.4267 2.47596C17.2483 2.79762 16.9333 2.92096 16.57 2.79429C16.39 2.73262 16.2283 2.61596 16.055 2.52929C12.865 0.939289 9.81166 1.20762 6.88666 3.20262C6.77499 3.27929 6.68833 3.39429 6.58999 3.49096Z" fill="#8C25A8"/>
<path d="M13.4267 10.2507C13.2 10.0057 13.0217 9.80068 12.83 9.60735C12.0067 8.78235 11.1817 7.95902 10.3567 7.13568C10.2383 7.01735 10.1117 6.90902 10.0067 6.77902C9.72833 6.43568 9.73 6.00402 9.99833 5.72735C10.295 5.42068 10.655 5.41235 11.0233 5.74235C11.3333 6.01902 11.6117 6.33068 11.9067 6.62402C12.81 7.52568 13.7233 8.41735 14.6117 9.33402C15.195 9.93568 15.1967 10.564 14.6133 11.1607C13.4683 12.3324 12.3067 13.4857 11.1417 14.6357C10.6933 15.079 10.3217 15.104 9.99833 14.764C9.69167 14.4407 9.72333 14.004 10.1267 13.5924C11.0017 12.7007 11.8917 11.824 12.7717 10.939C12.9817 10.7307 13.1833 10.5074 13.4267 10.2507Z" fill="#8A21A6"/>
</g>
</svg>