<?xml version="1.0" encoding="UTF-8"?>
<svg xmlns="http://www.w3.org/2000/svg" xmlns:xlink="http://www.w3.org/1999/xlink" width="24px" height="24px" viewBox="0 0 24 24" version="1.1">
<g id="surface1">
<path style=" stroke:none;fill-rule:nonzero;fill:rgb(92.156863%,72.54902%,97.254902%);fill-opacity:1;" d="M 6.589844 2.476562 C 6.667969 2.476562 6.667969 2.476562 6.75 2.476562 C 6.925781 2.476562 7.097656 2.476562 7.273438 2.476562 C 7.394531 2.476562 7.515625 2.476562 7.636719 2.472656 C 7.894531 2.472656 8.148438 2.472656 8.402344 2.472656 C 8.699219 2.476562 8.992188 2.472656 9.285156 2.472656 C 9.570312 2.472656 9.851562 2.472656 10.136719 2.472656 C 10.257812 2.472656 10.375 2.472656 10.496094 2.472656 C 10.664062 2.46875 10.832031 2.472656 11.003906 2.472656 C 11.074219 2.472656 11.074219 2.472656 11.148438 2.46875 C 11.597656 2.476562 12.070312 2.566406 12.394531 2.890625 C 12.433594 2.925781 12.472656 2.964844 12.515625 3.003906 C 12.550781 3.042969 12.585938 3.082031 12.625 3.121094 C 12.65625 3.152344 12.6875 3.1875 12.71875 3.21875 C 12.933594 3.453125 13.128906 3.703125 13.324219 3.953125 C 13.496094 4.171875 13.671875 4.390625 13.847656 4.609375 C 14.042969 4.84375 14.234375 5.082031 14.421875 5.324219 C 14.617188 5.578125 14.820312 5.824219 15.023438 6.070312 C 15.25 6.34375 15.472656 6.621094 15.691406 6.902344 C 15.882812 7.148438 16.082031 7.390625 16.28125 7.632812 C 16.449219 7.84375 16.617188 8.054688 16.785156 8.269531 C 16.984375 8.523438 17.191406 8.773438 17.398438 9.023438 C 17.546875 9.203125 17.691406 9.386719 17.835938 9.574219 C 17.992188 9.769531 18.148438 9.960938 18.308594 10.152344 C 19.253906 11.292969 19.253906 11.292969 19.25 11.941406 C 19.269531 12.324219 19.511719 12.554688 19.753906 12.828125 C 20.390625 13.570312 20.390625 13.570312 20.402344 14.023438 C 20.371094 14.40625 20.15625 14.667969 19.921875 14.953125 C 19.863281 15.019531 19.808594 15.089844 19.75 15.15625 C 19.722656 15.191406 19.695312 15.226562 19.664062 15.261719 C 19.546875 15.402344 19.433594 15.550781 19.320312 15.695312 C 19.003906 16.101562 18.675781 16.5 18.351562 16.898438 C 18.054688 17.265625 17.757812 17.628906 17.464844 18.003906 C 17.296875 18.21875 17.125 18.433594 16.949219 18.644531 C 16.851562 18.765625 16.753906 18.886719 16.65625 19.007812 C 16.519531 19.175781 16.386719 19.34375 16.246094 19.511719 C 16.015625 19.792969 15.789062 20.078125 15.5625 20.367188 C 15.332031 20.652344 15.101562 20.9375 14.871094 21.222656 C 14.722656 21.402344 14.574219 21.585938 14.429688 21.769531 C 14.371094 21.839844 14.3125 21.910156 14.257812 21.984375 C 14.214844 22.039062 14.214844 22.039062 14.171875 22.089844 C 14.144531 22.125 14.117188 22.160156 14.089844 22.195312 C 14.066406 22.222656 14.042969 22.253906 14.015625 22.28125 C 13.710938 22.550781 13.402344 22.589844 13.007812 22.585938 C 12.929688 22.585938 12.929688 22.585938 12.851562 22.585938 C 12.679688 22.585938 12.511719 22.585938 12.339844 22.585938 C 12.222656 22.585938 12.105469 22.585938 11.988281 22.585938 C 11.738281 22.585938 11.492188 22.585938 11.242188 22.585938 C 10.925781 22.582031 10.609375 22.585938 10.292969 22.585938 C 10.046875 22.585938 9.804688 22.585938 9.558594 22.585938 C 9.441406 22.585938 9.324219 22.585938 9.207031 22.585938 C 9.046875 22.585938 8.882812 22.585938 8.71875 22.585938 C 8.667969 22.585938 8.621094 22.585938 8.570312 22.585938 C 8.359375 22.582031 8.242188 22.582031 8.058594 22.46875 C 7.933594 22.332031 7.910156 22.25 7.90625 22.066406 C 7.902344 22.03125 7.902344 21.996094 7.898438 21.960938 C 7.929688 21.792969 8.015625 21.6875 8.113281 21.550781 C 8.054688 21.550781 7.996094 21.550781 7.9375 21.550781 C 7.726562 21.546875 7.511719 21.542969 7.296875 21.539062 C 7.207031 21.539062 7.113281 21.535156 7.019531 21.535156 C 6.886719 21.535156 6.753906 21.53125 6.621094 21.527344 C 6.582031 21.527344 6.539062 21.527344 6.5 21.527344 C 6.058594 21.515625 5.679688 21.425781 5.359375 21.113281 C 5.058594 20.78125 4.980469 20.386719 4.996094 19.945312 C 5.078125 19.535156 5.414062 19.21875 5.679688 18.910156 C 5.796875 18.769531 5.910156 18.625 6.023438 18.480469 C 6.238281 18.203125 6.457031 17.933594 6.679688 17.664062 C 6.851562 17.453125 7.015625 17.242188 7.183594 17.03125 C 7.347656 16.816406 7.519531 16.605469 7.699219 16.402344 C 7.898438 16.167969 8.085938 15.929688 8.269531 15.683594 C 8.566406 15.292969 8.875 14.914062 9.191406 14.535156 C 9.652344 13.984375 10.101562 13.417969 10.546875 12.851562 C 10.734375 12.609375 10.929688 12.367188 11.125 12.128906 C 11.199219 12.039062 11.273438 11.949219 11.347656 11.855469 C 11.382812 11.808594 11.421875 11.761719 11.460938 11.714844 C 11.492188 11.671875 11.527344 11.632812 11.5625 11.585938 C 11.667969 11.46875 11.773438 11.371094 11.902344 11.28125 C 11.9375 11.28125 11.96875 11.28125 12 11.28125 C 11.972656 11.246094 11.949219 11.214844 11.921875 11.183594 C 11.84375 11.089844 11.765625 10.996094 11.691406 10.902344 C 11.617188 10.808594 11.539062 10.71875 11.464844 10.625 C 11.355469 10.492188 11.246094 10.359375 11.136719 10.222656 C 11.113281 10.195312 11.089844 10.167969 11.066406 10.136719 C 10.753906 9.757812 10.445312 9.375 10.144531 8.988281 C 10.046875 8.859375 10.046875 8.859375 9.9375 8.734375 C 9.882812 8.792969 9.882812 8.792969 9.824219 8.851562 C 9.644531 9.027344 9.546875 9.085938 9.296875 9.089844 C 9 9.082031 8.859375 9.007812 8.652344 8.792969 C 8.433594 8.558594 8.238281 8.304688 8.039062 8.050781 C 7.859375 7.820312 7.675781 7.59375 7.488281 7.367188 C 7.261719 7.09375 7.039062 6.820312 6.820312 6.539062 C 6.65625 6.324219 6.484375 6.113281 6.3125 5.902344 C 6.046875 5.582031 5.785156 5.253906 5.53125 4.925781 C 5.472656 4.851562 5.414062 4.777344 5.355469 4.707031 C 5.058594 4.324219 4.960938 4.027344 5.015625 3.546875 C 5.070312 3.265625 5.179688 3.082031 5.375 2.878906 C 5.398438 2.855469 5.421875 2.832031 5.445312 2.808594 C 5.78125 2.496094 6.15625 2.476562 6.589844 2.476562 Z M 6.910156 4.078125 C 7.019531 4.242188 7.125 4.398438 7.246094 4.550781 C 7.273438 4.582031 7.300781 4.613281 7.324219 4.644531 C 7.351562 4.675781 7.378906 4.710938 7.40625 4.742188 C 7.460938 4.8125 7.519531 4.878906 7.574219 4.945312 C 7.613281 4.996094 7.613281 4.996094 7.652344 5.042969 C 7.792969 5.21875 7.929688 5.390625 8.0625 5.566406 C 8.09375 5.550781 8.125 5.535156 8.160156 5.519531 C 8.34375 5.457031 8.515625 5.457031 8.710938 5.457031 C 8.75 5.457031 8.789062 5.457031 8.832031 5.457031 C 8.964844 5.453125 9.097656 5.453125 9.230469 5.453125 C 9.324219 5.453125 9.414062 5.449219 9.507812 5.449219 C 9.75 5.445312 9.992188 5.445312 10.234375 5.441406 C 10.480469 5.441406 10.730469 5.4375 10.976562 5.4375 C 11.460938 5.433594 11.945312 5.425781 12.433594 5.425781 C 12.34375 5.277344 12.257812 5.136719 12.148438 5.003906 C 12.121094 4.972656 12.09375 4.941406 12.066406 4.90625 C 12.039062 4.875 12.011719 4.839844 11.984375 4.804688 C 11.945312 4.757812 11.945312 4.757812 11.902344 4.707031 C 11.824219 4.609375 11.746094 4.511719 11.664062 4.414062 C 11.636719 4.375 11.636719 4.375 11.609375 4.332031 C 11.472656 4.152344 11.472656 4.152344 11.277344 4.050781 C 11.164062 4.039062 11.050781 4.039062 10.933594 4.042969 C 10.890625 4.042969 10.847656 4.042969 10.800781 4.042969 C 10.65625 4.042969 10.515625 4.042969 10.371094 4.046875 C 10.273438 4.046875 10.171875 4.046875 10.074219 4.046875 C 9.808594 4.050781 9.546875 4.054688 9.285156 4.058594 C 9.019531 4.058594 8.753906 4.0625 8.484375 4.0625 C 7.960938 4.066406 7.4375 4.074219 6.910156 4.078125 Z M 12.910156 12.382812 C 12.890625 12.410156 12.871094 12.433594 12.851562 12.460938 C 12.667969 12.6875 12.488281 12.914062 12.304688 13.136719 C 12.082031 13.414062 11.859375 13.6875 11.640625 13.96875 C 11.394531 14.28125 11.144531 14.589844 10.894531 14.894531 C 10.785156 15.03125 10.671875 15.171875 10.5625 15.308594 C 10.417969 15.488281 10.273438 15.667969 10.125 15.84375 C 9.855469 16.167969 9.59375 16.496094 9.339844 16.832031 C 9.097656 17.148438 8.84375 17.453125 8.59375 17.761719 C 8.226562 18.207031 7.863281 18.660156 7.507812 19.113281 C 7.433594 19.207031 7.363281 19.296875 7.289062 19.390625 C 7.265625 19.421875 7.242188 19.453125 7.214844 19.484375 C 7.167969 19.542969 7.121094 19.601562 7.074219 19.664062 C 6.960938 19.777344 6.960938 19.777344 6.910156 19.921875 C 7.269531 19.929688 7.625 19.9375 7.980469 19.941406 C 8.101562 19.941406 8.222656 19.945312 8.34375 19.949219 C 8.519531 19.953125 8.691406 19.957031 8.867188 19.957031 C 8.921875 19.960938 8.972656 19.960938 9.03125 19.964844 C 9.316406 19.964844 9.316406 19.964844 9.5625 19.835938 C 9.648438 19.742188 9.722656 19.644531 9.792969 19.535156 C 9.832031 19.484375 9.875 19.433594 9.917969 19.378906 C 9.957031 19.328125 9.996094 19.277344 10.035156 19.226562 C 10.238281 18.964844 10.445312 18.710938 10.65625 18.457031 C 10.886719 18.175781 11.113281 17.894531 11.335938 17.609375 C 11.5 17.402344 11.667969 17.195312 11.835938 16.992188 C 12.175781 16.578125 12.511719 16.164062 12.839844 15.742188 C 13.03125 15.5 13.226562 15.257812 13.421875 15.015625 C 13.449219 14.984375 13.472656 14.949219 13.5 14.917969 C 13.621094 14.769531 13.742188 14.625 13.863281 14.480469 C 13.902344 14.433594 13.941406 14.386719 13.984375 14.339844 C 14.015625 14.300781 14.050781 14.261719 14.085938 14.21875 C 14.179688 14.105469 14.179688 14.105469 14.160156 13.921875 C 14.085938 13.8125 14.011719 13.710938 13.929688 13.609375 C 13.90625 13.582031 13.882812 13.550781 13.859375 13.523438 C 13.648438 13.265625 13.433594 13.011719 13.21875 12.761719 C 13.113281 12.636719 13.011719 12.511719 12.910156 12.382812 Z M 12.910156 12.382812 "/>
<path style=" stroke:none;fill-rule:nonzero;fill:rgb(54.901961%,14.901961%,65.490196%);fill-opacity:1;" d="M 6.589844 2.476562 C 6.667969 2.476562 6.667969 2.476562 6.75 2.476562 C 6.925781 2.476562 7.097656 2.476562 7.273438 2.476562 C 7.394531 2.476562 7.515625 2.476562 7.636719 2.472656 C 7.894531 2.472656 8.148438 2.472656 8.402344 2.472656 C 8.699219 2.476562 8.992188 2.472656 9.285156 2.472656 C 9.570312 2.472656 9.851562 2.472656 10.136719 2.472656 C 10.257812 2.472656 10.375 2.472656 10.496094 2.472656 C 10.664062 2.46875 10.832031 2.472656 11.003906 2.472656 C 11.074219 2.472656 11.074219 2.472656 11.148438 2.46875 C 11.597656 2.476562 12.070312 2.566406 12.394531 2.890625 C 12.433594 2.925781 12.472656 2.964844 12.515625 3.003906 C 12.550781 3.042969 12.585938 3.082031 12.625 3.121094 C 12.65625 3.152344 12.6875 3.1875 12.71875 3.21875 C 12.933594 3.453125 13.128906 3.703125 13.324219 3.953125 C 13.496094 4.171875 13.671875 4.390625 13.847656 4.609375 C 14.042969 4.84375 14.234375 5.082031 14.421875 5.324219 C 14.617188 5.578125 14.820312 5.824219 15.023438 6.070312 C 15.25 6.34375 15.472656 6.621094 15.691406 6.902344 C 15.882812 7.148438 16.082031 7.390625 16.28125 7.632812 C 16.449219 7.84375 16.617188 8.054688 16.785156 8.269531 C 16.984375 8.523438 17.191406 8.773438 17.398438 9.023438 C 17.546875 9.203125 17.691406 9.386719 17.835938 9.574219 C 18.019531 9.804688 18.207031 10.03125 18.394531 10.261719 C 19.230469 11.265625 19.230469 11.265625 19.222656 11.941406 C 19.222656 11.984375 19.222656 12.027344 19.222656 12.070312 C 19.214844 12.402344 19.144531 12.636719 18.960938 12.910156 C 18.945312 12.960938 18.929688 13.007812 18.910156 13.054688 C 18.878906 13.054688 18.847656 13.054688 18.816406 13.054688 C 18.804688 13.082031 18.792969 13.105469 18.78125 13.132812 C 18.703125 13.28125 18.601562 13.40625 18.5 13.539062 C 18.480469 13.566406 18.457031 13.59375 18.4375 13.621094 C 18.230469 13.886719 18.019531 14.144531 17.808594 14.398438 C 17.34375 14.960938 17.34375 14.960938 16.890625 15.53125 C 16.707031 15.765625 16.519531 15.996094 16.332031 16.226562 C 16.234375 16.34375 16.140625 16.460938 16.046875 16.578125 C 16.011719 16.625 15.972656 16.671875 15.9375 16.71875 C 15.90625 16.757812 15.871094 16.800781 15.839844 16.839844 C 15.699219 16.992188 15.578125 17.074219 15.375 17.109375 C 15.09375 17.109375 14.902344 17.101562 14.6875 16.894531 C 14.542969 16.703125 14.480469 16.523438 14.484375 16.28125 C 14.535156 15.960938 14.726562 15.746094 14.929688 15.503906 C 14.980469 15.441406 15.03125 15.378906 15.082031 15.316406 C 15.195312 15.175781 15.308594 15.039062 15.425781 14.898438 C 15.78125 14.472656 16.132812 14.042969 16.46875 13.597656 C 16.632812 13.386719 16.796875 13.183594 16.972656 12.980469 C 17.144531 12.777344 17.316406 12.570312 17.484375 12.359375 C 17.519531 12.316406 17.554688 12.269531 17.59375 12.222656 C 17.675781 12.101562 17.675781 12.101562 17.660156 11.976562 C 17.503906 11.566406 17.144531 11.21875 16.867188 10.890625 C 16.734375 10.730469 16.605469 10.570312 16.476562 10.40625 C 16.335938 10.234375 16.195312 10.0625 16.054688 9.886719 C 15.78125 9.550781 15.507812 9.214844 15.242188 8.871094 C 14.949219 8.5 14.652344 8.128906 14.351562 7.761719 C 14.238281 7.621094 14.125 7.476562 14.011719 7.335938 C 13.890625 7.183594 13.765625 7.035156 13.640625 6.886719 C 13.386719 6.59375 13.148438 6.289062 12.917969 5.980469 C 12.746094 5.742188 12.574219 5.515625 12.363281 5.308594 C 12.207031 5.148438 12.066406 4.976562 11.929688 4.804688 C 11.875 4.738281 11.820312 4.671875 11.765625 4.605469 C 11.746094 4.574219 11.722656 4.546875 11.695312 4.515625 C 11.671875 4.484375 11.644531 4.449219 11.617188 4.414062 C 11.582031 4.367188 11.550781 4.316406 11.519531 4.269531 C 11.441406 4.179688 11.398438 4.132812 11.285156 4.101562 C 11.167969 4.09375 11.058594 4.09375 10.945312 4.09375 C 10.878906 4.09375 10.878906 4.09375 10.8125 4.09375 C 10.671875 4.09375 10.527344 4.097656 10.386719 4.101562 C 10.289062 4.101562 10.1875 4.101562 10.089844 4.101562 C 9.832031 4.101562 9.570312 4.105469 9.3125 4.109375 C 9.046875 4.109375 8.78125 4.113281 8.519531 4.113281 C 8 4.117188 7.480469 4.121094 6.960938 4.128906 C 6.976562 4.148438 6.996094 4.171875 7.011719 4.191406 C 7.09375 4.292969 7.175781 4.390625 7.253906 4.492188 C 7.285156 4.523438 7.3125 4.558594 7.339844 4.59375 C 7.636719 4.957031 7.921875 5.328125 8.203125 5.707031 C 8.503906 6.109375 8.824219 6.5 9.144531 6.886719 C 10.058594 7.996094 10.058594 7.996094 10.046875 8.339844 C 10.011719 8.605469 9.90625 8.8125 9.71875 9.003906 C 9.480469 9.101562 9.273438 9.109375 9.023438 9.070312 C 8.601562 8.882812 8.316406 8.40625 8.039062 8.050781 C 7.859375 7.820312 7.675781 7.59375 7.488281 7.367188 C 7.261719 7.09375 7.039062 6.820312 6.820312 6.539062 C 6.65625 6.324219 6.484375 6.113281 6.3125 5.902344 C 6.046875 5.582031 5.785156 5.253906 5.53125 4.925781 C 5.472656 4.851562 5.414062 4.777344 5.355469 4.707031 C 5.058594 4.324219 4.960938 4.027344 5.015625 3.546875 C 5.070312 3.265625 5.179688 3.082031 5.375 2.878906 C 5.398438 2.855469 5.421875 2.832031 5.445312 2.808594 C 5.78125 2.496094 6.15625 2.476562 6.589844 2.476562 Z M 6.589844 2.476562 "/>
<path style=" stroke:none;fill-rule:nonzero;fill:rgb(54.117647%,13.72549%,65.098039%);fill-opacity:1;" d="M 12.097656 11.230469 C 12.558594 11.242188 12.558594 11.242188 12.742188 11.386719 C 12.949219 11.613281 13.042969 11.816406 13.03125 12.125 C 12.960938 12.484375 12.6875 12.769531 12.445312 13.03125 C 12.320312 13.171875 12.203125 13.316406 12.085938 13.46875 C 11.894531 13.714844 11.695312 13.964844 11.496094 14.207031 C 11.300781 14.449219 11.105469 14.691406 10.914062 14.9375 C 10.746094 15.152344 10.574219 15.359375 10.398438 15.566406 C 10.167969 15.832031 9.957031 16.109375 9.746094 16.386719 C 9.53125 16.671875 9.304688 16.949219 9.078125 17.222656 C 8.902344 17.433594 8.734375 17.640625 8.566406 17.855469 C 8.34375 18.144531 8.113281 18.421875 7.882812 18.703125 C 7.675781 18.953125 7.476562 19.203125 7.277344 19.460938 C 7.152344 19.625 7.011719 19.773438 6.863281 19.921875 C 7.441406 19.925781 8.019531 19.929688 8.597656 19.933594 C 8.867188 19.933594 9.132812 19.933594 9.402344 19.9375 C 9.660156 19.941406 9.921875 19.941406 10.179688 19.941406 C 10.277344 19.941406 10.378906 19.945312 10.476562 19.945312 C 10.613281 19.945312 10.753906 19.949219 10.890625 19.945312 C 10.933594 19.949219 10.972656 19.949219 11.015625 19.949219 C 11.222656 19.949219 11.300781 19.941406 11.46875 19.808594 C 11.5 19.765625 11.535156 19.722656 11.566406 19.679688 C 11.609375 19.632812 11.648438 19.589844 11.6875 19.542969 C 11.730469 19.492188 11.773438 19.441406 11.8125 19.390625 C 11.859375 19.335938 11.90625 19.28125 11.953125 19.226562 C 11.988281 19.183594 11.988281 19.183594 12.023438 19.140625 C 12.289062 18.828125 12.550781 18.515625 12.820312 18.203125 C 12.84375 18.175781 12.871094 18.144531 12.894531 18.113281 C 12.988281 18.019531 13.042969 18 13.171875 17.992188 C 13.640625 17.984375 13.640625 17.984375 13.824219 18.144531 C 14.023438 18.355469 14.132812 18.503906 14.128906 18.804688 C 14.078125 19.140625 13.765625 19.4375 13.554688 19.6875 C 13.359375 19.917969 13.167969 20.148438 12.984375 20.390625 C 12.582031 20.910156 12.214844 21.355469 11.527344 21.445312 C 11.3125 21.464844 11.097656 21.464844 10.886719 21.464844 C 10.804688 21.464844 10.804688 21.464844 10.722656 21.464844 C 10.546875 21.464844 10.371094 21.46875 10.195312 21.46875 C 10.105469 21.46875 10.105469 21.46875 10.015625 21.46875 C 9.730469 21.46875 9.445312 21.46875 9.160156 21.46875 C 8.832031 21.46875 8.503906 21.472656 8.175781 21.472656 C 7.890625 21.476562 7.605469 21.476562 7.320312 21.476562 C 7.199219 21.476562 7.078125 21.476562 6.957031 21.476562 C 6.789062 21.480469 6.617188 21.480469 6.449219 21.480469 C 6.375 21.480469 6.375 21.480469 6.296875 21.480469 C 5.933594 21.476562 5.679688 21.402344 5.402344 21.160156 C 5.085938 20.792969 5.085938 20.792969 5.039062 20.542969 C 5.03125 20.507812 5.027344 20.472656 5.019531 20.4375 C 4.964844 20.089844 4.988281 19.792969 5.195312 19.5 C 5.347656 19.296875 5.515625 19.105469 5.679688 18.910156 C 5.796875 18.769531 5.910156 18.625 6.023438 18.480469 C 6.238281 18.203125 6.457031 17.933594 6.679688 17.664062 C 6.851562 17.453125 7.015625 17.242188 7.183594 17.03125 C 7.347656 16.816406 7.519531 16.605469 7.699219 16.402344 C 7.898438 16.167969 8.085938 15.929688 8.269531 15.683594 C 8.566406 15.292969 8.875 14.914062 9.191406 14.535156 C 9.652344 13.984375 10.101562 13.417969 10.546875 12.851562 C 10.734375 12.609375 10.929688 12.367188 11.125 12.128906 C 11.199219 12.039062 11.277344 11.945312 11.351562 11.855469 C 11.386719 11.808594 11.425781 11.761719 11.464844 11.710938 C 11.5 11.667969 11.535156 11.625 11.570312 11.582031 C 11.730469 11.390625 11.730469 11.390625 11.808594 11.328125 C 11.960938 11.320312 11.960938 11.320312 12.097656 11.328125 C 12.097656 11.296875 12.097656 11.265625 12.097656 11.230469 Z M 12.097656 11.230469 "/>
<path style=" stroke:none;fill-rule:nonzero;fill:rgb(94.117647%,82.745098%,97.254902%);fill-opacity:1;" d="M 12.527344 5.449219 C 12.542969 5.472656 12.558594 5.496094 12.574219 5.519531 C 12.496094 5.550781 12.417969 5.582031 12.335938 5.617188 C 12.335938 5.585938 12.335938 5.550781 12.335938 5.519531 C 11.820312 5.523438 11.304688 5.53125 10.789062 5.535156 C 10.546875 5.539062 10.308594 5.542969 10.070312 5.542969 C 9.835938 5.546875 9.605469 5.546875 9.375 5.550781 C 9.285156 5.550781 9.199219 5.554688 9.109375 5.554688 C 8.988281 5.554688 8.863281 5.554688 8.738281 5.558594 C 8.683594 5.558594 8.683594 5.558594 8.628906 5.558594 C 8.464844 5.5625 8.316406 5.566406 8.160156 5.617188 C 8.160156 5.570312 8.160156 5.519531 8.160156 5.472656 C 8.339844 5.410156 8.507812 5.414062 8.695312 5.410156 C 8.738281 5.410156 8.777344 5.410156 8.820312 5.410156 C 8.949219 5.40625 9.082031 5.40625 9.214844 5.402344 C 9.261719 5.402344 9.304688 5.402344 9.351562 5.402344 C 9.59375 5.398438 9.832031 5.394531 10.070312 5.390625 C 10.316406 5.390625 10.566406 5.382812 10.8125 5.378906 C 11.003906 5.378906 11.191406 5.375 11.382812 5.371094 C 11.472656 5.371094 11.566406 5.371094 11.65625 5.367188 C 11.785156 5.367188 11.910156 5.363281 12.039062 5.363281 C 12.078125 5.363281 12.113281 5.363281 12.152344 5.359375 C 12.410156 5.359375 12.410156 5.359375 12.527344 5.449219 Z M 12.527344 5.449219 "/>
<path style=" stroke:none;fill-rule:nonzero;fill:rgb(56.470588%,26.666667%,64.705882%);fill-opacity:1;" d="M 5.566406 20.832031 C 5.6875 20.878906 5.6875 20.878906 5.808594 20.929688 C 5.808594 20.992188 5.808594 21.054688 5.808594 21.121094 C 5.824219 21.222656 5.824219 21.222656 5.855469 21.3125 C 5.972656 21.371094 6.042969 21.367188 6.171875 21.367188 C 6.21875 21.367188 6.261719 21.367188 6.3125 21.367188 C 6.363281 21.371094 6.414062 21.371094 6.464844 21.371094 C 6.546875 21.371094 6.546875 21.371094 6.628906 21.371094 C 6.804688 21.371094 6.980469 21.375 7.160156 21.375 C 7.28125 21.375 7.402344 21.378906 7.527344 21.378906 C 7.816406 21.378906 8.105469 21.382812 8.394531 21.386719 C 8.726562 21.386719 9.054688 21.390625 9.386719 21.390625 C 10.066406 21.398438 10.746094 21.402344 11.425781 21.40625 C 11.425781 21.425781 11.425781 21.441406 11.425781 21.457031 C 10.710938 21.460938 9.996094 21.464844 9.285156 21.464844 C 8.953125 21.46875 8.621094 21.46875 8.292969 21.46875 C 7.972656 21.472656 7.652344 21.472656 7.332031 21.472656 C 7.210938 21.472656 7.089844 21.476562 6.96875 21.476562 C 6.796875 21.476562 6.625 21.476562 6.453125 21.476562 C 6.378906 21.480469 6.378906 21.480469 6.300781 21.480469 C 6 21.476562 5.769531 21.4375 5.519531 21.265625 C 5.425781 21.15625 5.425781 21.15625 5.375 21.070312 C 5.40625 21.085938 5.4375 21.105469 5.46875 21.121094 C 5.558594 21.171875 5.558594 21.171875 5.617188 21.167969 C 5.601562 21.058594 5.585938 20.945312 5.566406 20.832031 Z M 5.566406 20.832031 "/>
<path style=" stroke:none;fill-rule:nonzero;fill:rgb(66.666667%,40.784314%,72.941176%);fill-opacity:1;" d="M 7.871094 16.175781 C 7.871094 16.339844 7.847656 16.496094 7.824219 16.65625 C 7.808594 16.625 7.792969 16.59375 7.777344 16.558594 C 7.726562 16.558594 7.679688 16.558594 7.632812 16.558594 C 7.628906 16.59375 7.625 16.628906 7.621094 16.664062 C 7.574219 16.835938 7.492188 16.9375 7.378906 17.074219 C 7.320312 17.144531 7.320312 17.144531 7.261719 17.214844 C 7.15625 17.324219 7.109375 17.359375 6.960938 17.375 C 7.035156 17.207031 7.136719 17.078125 7.253906 16.9375 C 7.464844 16.6875 7.667969 16.433594 7.871094 16.175781 Z M 7.871094 16.175781 "/>
<path style=" stroke:none;fill-rule:nonzero;fill:rgb(66.27451%,37.647059%,72.156863%);fill-opacity:1;" d="M 9.742188 13.871094 C 9.761719 13.902344 9.777344 13.933594 9.792969 13.96875 C 9.695312 14.152344 9.570312 14.3125 9.4375 14.472656 C 9.402344 14.515625 9.367188 14.558594 9.328125 14.605469 C 9.214844 14.734375 9.097656 14.855469 8.976562 14.976562 C 8.945312 14.960938 8.914062 14.945312 8.878906 14.929688 C 9.445312 14.199219 9.445312 14.199219 9.742188 13.871094 Z M 9.742188 13.871094 "/>
<path style=" stroke:none;fill-rule:nonzero;fill:rgb(92.156863%,80.392157%,94.901961%);fill-opacity:1;" d="M 16.414062 19.199219 C 16.347656 19.414062 16.226562 19.570312 16.082031 19.738281 C 16.050781 19.777344 16.050781 19.777344 16.019531 19.820312 C 15.914062 19.945312 15.855469 20.011719 15.695312 20.0625 C 15.804688 19.824219 16.117188 19.199219 16.414062 19.199219 Z M 16.414062 19.199219 "/>
<path style=" stroke:none;fill-rule:nonzero;fill:rgb(93.72549%,81.568627%,96.862745%);fill-opacity:1;" d="M 10.175781 19.007812 C 10.175781 19.363281 9.828125 19.671875 9.601562 19.921875 C 9.550781 19.902344 9.503906 19.886719 9.457031 19.871094 C 9.492188 19.828125 9.527344 19.789062 9.566406 19.742188 C 9.613281 19.6875 9.660156 19.632812 9.707031 19.574219 C 9.730469 19.546875 9.753906 19.519531 9.78125 19.492188 C 9.914062 19.332031 10.046875 19.171875 10.175781 19.007812 Z M 10.175781 19.007812 "/>
<path style=" stroke:none;fill-rule:nonzero;fill:rgb(56.078431%,23.137255%,64.313725%);fill-opacity:1;" d="M 10.128906 13.390625 C 10.144531 13.421875 10.160156 13.457031 10.175781 13.488281 C 10.207031 13.488281 10.238281 13.488281 10.273438 13.488281 C 10.257812 13.535156 10.242188 13.582031 10.222656 13.632812 C 10.191406 13.636719 10.164062 13.640625 10.132812 13.648438 C 10.097656 13.65625 10.066406 13.667969 10.03125 13.679688 C 9.972656 13.820312 9.972656 13.820312 9.9375 13.96875 C 9.921875 14 9.90625 14.03125 9.886719 14.0625 C 9.839844 14.046875 9.792969 14.03125 9.742188 14.015625 C 9.808594 13.746094 9.945312 13.589844 10.128906 13.390625 Z M 10.128906 13.390625 "/>
<path style=" stroke:none;fill-rule:nonzero;fill:rgb(67.843137%,37.254902%,76.470588%);fill-opacity:1;" d="M 5.566406 20.832031 C 5.6875 20.878906 5.6875 20.878906 5.808594 20.929688 C 5.808594 20.992188 5.808594 21.054688 5.808594 21.121094 C 5.824219 21.261719 5.84375 21.300781 5.953125 21.394531 C 5.984375 21.414062 6.015625 21.4375 6.046875 21.457031 C 5.808594 21.433594 5.664062 21.363281 5.472656 21.214844 C 5.441406 21.167969 5.410156 21.121094 5.375 21.070312 C 5.40625 21.085938 5.4375 21.105469 5.46875 21.121094 C 5.558594 21.171875 5.558594 21.171875 5.617188 21.167969 C 5.601562 21.058594 5.585938 20.945312 5.566406 20.832031 Z M 5.566406 20.832031 "/>
<path style=" stroke:none;fill-rule:nonzero;fill:rgb(90.196078%,67.058824%,95.294118%);fill-opacity:1;" d="M 18.960938 12.863281 C 19.035156 12.925781 19.035156 12.925781 19.105469 13.007812 C 19.105469 13.105469 19.105469 13.105469 19.054688 13.199219 C 18.976562 13.234375 18.898438 13.265625 18.816406 13.296875 C 18.769531 13.367188 18.769531 13.367188 18.71875 13.441406 C 18.671875 13.425781 18.625 13.410156 18.574219 13.390625 C 18.613281 13.335938 18.652344 13.28125 18.691406 13.222656 C 18.710938 13.191406 18.730469 13.160156 18.753906 13.128906 C 18.773438 13.105469 18.796875 13.082031 18.816406 13.054688 C 18.847656 13.054688 18.878906 13.054688 18.910156 13.054688 C 18.929688 12.992188 18.945312 12.929688 18.960938 12.863281 Z M 18.960938 12.863281 "/>
<path style=" stroke:none;fill-rule:nonzero;fill:rgb(61.176471%,28.627451%,69.803922%);fill-opacity:1;" d="M 10.847656 12.480469 C 10.863281 12.527344 10.878906 12.574219 10.894531 12.625 C 10.925781 12.625 10.960938 12.625 10.992188 12.625 C 10.980469 12.714844 10.980469 12.714844 10.945312 12.816406 C 10.847656 12.871094 10.847656 12.871094 10.753906 12.910156 C 10.734375 12.945312 10.71875 12.976562 10.703125 13.007812 C 10.640625 12.992188 10.578125 12.976562 10.511719 12.960938 C 10.59375 12.769531 10.714844 12.632812 10.847656 12.480469 Z M 10.847656 12.480469 "/>
<path style=" stroke:none;fill-rule:nonzero;fill:rgb(70.588235%,46.666667%,76.862745%);fill-opacity:1;" d="M 5.566406 2.6875 C 5.601562 2.703125 5.632812 2.71875 5.664062 2.734375 C 5.601562 2.816406 5.539062 2.894531 5.472656 2.976562 C 5.503906 2.992188 5.535156 3.007812 5.566406 3.023438 C 5.484375 3.0625 5.484375 3.0625 5.402344 3.105469 C 5.253906 3.1875 5.253906 3.1875 5.1875 3.347656 C 5.1875 3.382812 5.183594 3.417969 5.183594 3.457031 C 5.152344 3.457031 5.121094 3.457031 5.089844 3.457031 C 5.109375 3.203125 5.183594 3.089844 5.355469 2.910156 C 5.394531 2.867188 5.433594 2.824219 5.476562 2.78125 C 5.503906 2.75 5.535156 2.71875 5.566406 2.6875 Z M 5.566406 2.6875 "/>
<path style=" stroke:none;fill-rule:nonzero;fill:rgb(51.372549%,14.901961%,61.568627%);fill-opacity:1;" d="M 13.199219 18 C 13.621094 17.976562 13.621094 17.976562 13.824219 18.144531 C 13.886719 18.25 13.886719 18.25 13.921875 18.335938 C 13.644531 18.246094 13.644531 18.246094 13.535156 18.191406 C 13.535156 18.160156 13.535156 18.128906 13.535156 18.097656 C 13.425781 18.097656 13.3125 18.097656 13.199219 18.097656 C 13.199219 18.0625 13.199219 18.03125 13.199219 18 Z M 13.199219 18 "/>
<path style=" stroke:none;fill-rule:nonzero;fill:rgb(60%,31.764706%,67.843137%);fill-opacity:1;" d="M 8.496094 15.40625 C 8.542969 15.503906 8.542969 15.503906 8.515625 15.613281 C 8.417969 15.804688 8.304688 15.996094 8.097656 16.074219 C 8.070312 16.074219 8.042969 16.078125 8.015625 16.078125 C 8.089844 15.910156 8.191406 15.777344 8.308594 15.636719 C 8.34375 15.59375 8.378906 15.550781 8.414062 15.507812 C 8.457031 15.457031 8.457031 15.457031 8.496094 15.40625 Z M 8.496094 15.40625 "/>
<path style=" stroke:none;fill-rule:nonzero;fill:rgb(90.196078%,77.647059%,93.333333%);fill-opacity:1;" d="M 8.207031 21.550781 C 8.207031 21.597656 8.207031 21.648438 8.207031 21.695312 C 8.175781 21.726562 8.144531 21.757812 8.113281 21.792969 C 8.089844 21.917969 8.089844 21.917969 8.082031 22.0625 C 8.078125 22.109375 8.074219 22.160156 8.070312 22.207031 C 8.070312 22.246094 8.066406 22.28125 8.0625 22.320312 C 8.015625 22.304688 7.96875 22.289062 7.921875 22.273438 C 7.882812 21.886719 7.882812 21.886719 8.035156 21.695312 C 8.078125 21.664062 8.117188 21.632812 8.160156 21.601562 C 8.175781 21.585938 8.191406 21.566406 8.207031 21.550781 Z M 8.207031 21.550781 "/>
<path style=" stroke:none;fill-rule:nonzero;fill:rgb(52.941176%,16.470588%,62.352941%);fill-opacity:1;" d="M 12.574219 18.480469 C 12.59375 18.480469 12.609375 18.480469 12.625 18.480469 C 12.644531 18.578125 12.644531 18.578125 12.625 18.71875 C 12.523438 18.847656 12.414062 18.957031 12.289062 19.054688 C 12.257812 19.054688 12.226562 19.054688 12.191406 19.054688 C 12.21875 18.882812 12.289062 18.789062 12.40625 18.660156 C 12.4375 18.625 12.46875 18.59375 12.5 18.558594 C 12.523438 18.53125 12.550781 18.507812 12.574219 18.480469 Z M 12.574219 18.480469 "/>
<path style=" stroke:none;fill-rule:nonzero;fill:rgb(93.333333%,80%,96.078431%);fill-opacity:1;" d="M 11.472656 17.375 C 11.503906 17.421875 11.535156 17.472656 11.566406 17.519531 C 11.5 17.597656 11.429688 17.679688 11.359375 17.757812 C 11.324219 17.800781 11.285156 17.84375 11.246094 17.890625 C 11.136719 18 11.136719 18 10.992188 18.046875 C 11.066406 17.878906 11.167969 17.746094 11.285156 17.605469 C 11.320312 17.5625 11.355469 17.519531 11.390625 17.472656 C 11.429688 17.425781 11.429688 17.425781 11.472656 17.375 Z M 11.472656 17.375 "/>
<path style=" stroke:none;fill-rule:nonzero;fill:rgb(94.509804%,82.745098%,97.254902%);fill-opacity:1;" d="M 13.679688 14.640625 C 13.695312 14.703125 13.710938 14.765625 13.726562 14.832031 C 13.679688 14.832031 13.632812 14.832031 13.585938 14.832031 C 13.582031 14.867188 13.582031 14.898438 13.582031 14.933594 C 13.515625 15.136719 13.367188 15.234375 13.199219 15.359375 C 13.199219 15.15625 13.3125 15.0625 13.441406 14.917969 C 13.464844 14.890625 13.484375 14.867188 13.507812 14.835938 C 13.566406 14.773438 13.621094 14.707031 13.679688 14.640625 Z M 13.679688 14.640625 "/>
<path style=" stroke:none;fill-rule:nonzero;fill:rgb(65.490196%,40%,72.156863%);fill-opacity:1;" d="M 10.558594 15.3125 C 10.484375 15.480469 10.382812 15.613281 10.265625 15.757812 C 10.230469 15.796875 10.195312 15.839844 10.160156 15.886719 C 10.132812 15.917969 10.105469 15.949219 10.078125 15.984375 C 10.050781 15.894531 10.050781 15.894531 10.03125 15.792969 C 10.09375 15.683594 10.09375 15.683594 10.175781 15.601562 C 10.207031 15.601562 10.238281 15.601562 10.273438 15.601562 C 10.28125 15.542969 10.28125 15.542969 10.289062 15.484375 C 10.300781 15.441406 10.308594 15.402344 10.320312 15.359375 C 10.414062 15.3125 10.414062 15.3125 10.558594 15.3125 Z M 10.558594 15.3125 "/>
<path style=" stroke:none;fill-rule:nonzero;fill:rgb(94.509804%,83.137255%,97.254902%);fill-opacity:1;" d="M 13.105469 15.359375 C 13.121094 15.40625 13.136719 15.453125 13.152344 15.503906 C 13.113281 15.539062 13.078125 15.574219 13.039062 15.609375 C 12.917969 15.738281 12.878906 15.824219 12.816406 15.984375 C 12.769531 16 12.722656 16.015625 12.671875 16.03125 C 12.65625 16.0625 12.640625 16.09375 12.625 16.128906 C 12.59375 16.113281 12.5625 16.097656 12.527344 16.078125 C 12.613281 15.96875 12.703125 15.859375 12.789062 15.746094 C 12.8125 15.714844 12.839844 15.683594 12.863281 15.652344 C 12.886719 15.621094 12.910156 15.589844 12.9375 15.558594 C 12.957031 15.53125 12.980469 15.503906 13.003906 15.476562 C 13.054688 15.40625 13.054688 15.40625 13.105469 15.359375 Z M 13.105469 15.359375 "/>
<path style=" stroke:none;fill-rule:nonzero;fill:rgb(92.156863%,79.607843%,96.470588%);fill-opacity:1;" d="M 15.070312 20.734375 C 15.121094 20.75 15.167969 20.769531 15.214844 20.785156 C 15.089844 20.941406 14.960938 21.101562 14.832031 21.265625 C 14.785156 21.070312 14.785156 21.070312 14.832031 20.976562 C 14.863281 20.976562 14.894531 20.976562 14.929688 20.976562 C 14.933594 20.945312 14.941406 20.914062 14.945312 20.882812 C 14.957031 20.851562 14.964844 20.816406 14.976562 20.785156 C 15.007812 20.769531 15.039062 20.753906 15.070312 20.734375 Z M 15.070312 20.734375 "/>
<path style=" stroke:none;fill-rule:nonzero;fill:rgb(64.313725%,36.862745%,71.372549%);fill-opacity:1;" d="M 6.433594 18.046875 C 6.496094 18.175781 6.464844 18.246094 6.433594 18.382812 C 6.382812 18.382812 6.335938 18.382812 6.289062 18.382812 C 6.238281 18.429688 6.191406 18.480469 6.144531 18.527344 C 6.097656 18.542969 6.050781 18.558594 6 18.574219 C 6.085938 18.371094 6.230469 18.148438 6.433594 18.046875 Z M 6.433594 18.046875 "/>
<path style=" stroke:none;fill-rule:nonzero;fill:rgb(56.862745%,23.921569%,66.666667%);fill-opacity:1;" d="M 14.015625 18.433594 C 14.113281 18.527344 14.113281 18.527344 14.128906 18.703125 C 14.125 18.929688 14.042969 19.0625 13.921875 19.246094 C 13.886719 19.246094 13.855469 19.246094 13.824219 19.246094 C 13.824219 19.214844 13.824219 19.183594 13.824219 19.152344 C 13.855469 19.152344 13.886719 19.152344 13.921875 19.152344 C 13.917969 19.09375 13.917969 19.09375 13.917969 19.035156 C 13.921875 18.910156 13.921875 18.910156 13.96875 18.863281 C 13.980469 18.792969 13.988281 18.71875 13.996094 18.644531 C 14 18.605469 14.003906 18.566406 14.007812 18.523438 C 14.011719 18.496094 14.011719 18.464844 14.015625 18.433594 Z M 14.015625 18.433594 "/>
<path style=" stroke:none;fill-rule:nonzero;fill:rgb(56.470588%,21.176471%,65.490196%);fill-opacity:1;" d="M 12.097656 11.230469 C 12.171875 11.234375 12.25 11.238281 12.328125 11.242188 C 12.390625 11.246094 12.390625 11.246094 12.457031 11.25 C 12.574219 11.28125 12.574219 11.28125 12.664062 11.378906 C 12.691406 11.425781 12.691406 11.425781 12.71875 11.472656 C 12.558594 11.476562 12.558594 11.476562 12.382812 11.472656 C 12.351562 11.441406 12.320312 11.410156 12.289062 11.375 C 12.1875 11.34375 12.1875 11.34375 12.097656 11.328125 C 12.097656 11.296875 12.097656 11.265625 12.097656 11.230469 Z M 12.097656 11.230469 "/>
<path style=" stroke:none;fill-rule:nonzero;fill:rgb(71.764706%,47.058824%,77.647059%);fill-opacity:1;" d="M 8.785156 8.785156 C 9.011719 8.875 9.011719 8.875 9.121094 8.929688 C 9.121094 8.960938 9.121094 8.992188 9.121094 9.023438 C 9.382812 9 9.382812 9 9.648438 8.976562 C 9.523438 9.101562 9.46875 9.085938 9.296875 9.085938 C 9.089844 9.082031 8.941406 9.074219 8.785156 8.929688 C 8.785156 8.878906 8.785156 8.832031 8.785156 8.785156 Z M 8.785156 8.785156 "/>
<path style=" stroke:none;fill-rule:nonzero;fill:rgb(66.27451%,40.392157%,72.941176%);fill-opacity:1;" d="M 13.054688 3.792969 C 13.28125 3.925781 13.421875 4.066406 13.585938 4.273438 C 13.566406 4.304688 13.550781 4.335938 13.535156 4.367188 C 13.363281 4.308594 13.324219 4.25 13.214844 4.105469 C 13.183594 4.070312 13.15625 4.03125 13.125 3.988281 C 13.054688 3.886719 13.054688 3.886719 13.054688 3.792969 Z M 13.054688 3.792969 "/>
<path style=" stroke:none;fill-rule:nonzero;fill:rgb(62.745098%,33.333333%,69.803922%);fill-opacity:1;" d="M 8.304688 17.902344 C 8.335938 17.902344 8.367188 17.902344 8.398438 17.902344 C 8.382812 18.160156 8.230469 18.300781 8.0625 18.480469 C 8.046875 18.417969 8.03125 18.351562 8.015625 18.289062 C 8.046875 18.289062 8.078125 18.289062 8.113281 18.289062 C 8.128906 18.207031 8.144531 18.128906 8.160156 18.046875 C 8.207031 18.03125 8.253906 18.015625 8.304688 18 C 8.304688 17.96875 8.304688 17.9375 8.304688 17.902344 Z M 8.304688 17.902344 "/>
<path style=" stroke:none;fill-rule:nonzero;fill:rgb(52.156863%,15.686275%,62.745098%);fill-opacity:1;" d="M 12.960938 18.046875 C 13.023438 18.0625 13.085938 18.078125 13.152344 18.097656 C 13.007812 18.222656 12.867188 18.347656 12.71875 18.480469 C 12.6875 18.464844 12.65625 18.449219 12.625 18.433594 C 12.734375 18.304688 12.847656 18.179688 12.960938 18.046875 Z M 12.960938 18.046875 "/>
<path style=" stroke:none;fill-rule:nonzero;fill:rgb(52.54902%,16.862745%,62.352941%);fill-opacity:1;" d="M 17.664062 14.398438 C 17.695312 14.414062 17.726562 14.433594 17.761719 14.449219 C 17.617188 14.621094 17.476562 14.796875 17.328125 14.976562 C 17.28125 14.832031 17.28125 14.832031 17.328125 14.6875 C 17.375 14.671875 17.421875 14.65625 17.472656 14.640625 C 17.503906 14.578125 17.539062 14.511719 17.566406 14.449219 C 17.601562 14.433594 17.632812 14.417969 17.664062 14.398438 Z M 17.664062 14.398438 "/>
<path style=" stroke:none;fill-rule:nonzero;fill:rgb(65.882353%,39.607843%,73.72549%);fill-opacity:1;" d="M 12.863281 12.238281 C 12.898438 12.320312 12.898438 12.320312 12.910156 12.433594 C 12.84375 12.546875 12.84375 12.546875 12.746094 12.660156 C 12.699219 12.71875 12.699219 12.71875 12.652344 12.777344 C 12.613281 12.820312 12.613281 12.820312 12.574219 12.863281 C 12.558594 12.800781 12.542969 12.738281 12.527344 12.671875 C 12.574219 12.671875 12.621094 12.671875 12.671875 12.671875 C 12.667969 12.628906 12.664062 12.582031 12.660156 12.535156 C 12.671875 12.382812 12.671875 12.382812 12.769531 12.292969 C 12.800781 12.277344 12.832031 12.257812 12.863281 12.238281 Z M 12.863281 12.238281 "/>
<path style=" stroke:none;fill-rule:nonzero;fill:rgb(91.764706%,65.490196%,96.862745%);fill-opacity:1;" d="M 15.9375 16.65625 C 15.953125 16.703125 15.96875 16.75 15.984375 16.800781 C 15.933594 16.886719 15.933594 16.886719 15.855469 16.972656 C 15.828125 17.003906 15.804688 17.03125 15.78125 17.0625 C 15.6875 17.144531 15.625 17.164062 15.503906 17.183594 C 15.503906 17.136719 15.503906 17.089844 15.503906 17.039062 C 15.574219 16.976562 15.574219 16.976562 15.664062 16.921875 C 15.796875 16.835938 15.84375 16.792969 15.9375 16.65625 Z M 15.9375 16.65625 "/>
<path style=" stroke:none;fill-rule:nonzero;fill:rgb(62.745098%,34.509804%,69.803922%);fill-opacity:1;" d="M 10.464844 12.960938 C 10.480469 12.960938 10.496094 12.960938 10.511719 12.960938 C 10.511719 13.085938 10.511719 13.214844 10.511719 13.34375 C 10.402344 13.359375 10.289062 13.375 10.175781 13.390625 C 10.25 13.226562 10.347656 13.097656 10.464844 12.960938 Z M 10.464844 12.960938 "/>
<path style=" stroke:none;fill-rule:nonzero;fill:rgb(49.411765%,14.509804%,60.392157%);fill-opacity:1;" d="M 5.089844 19.96875 C 5.105469 19.96875 5.121094 19.96875 5.136719 19.96875 C 5.152344 20.109375 5.167969 20.253906 5.183594 20.398438 C 5.214844 20.382812 5.246094 20.367188 5.28125 20.351562 C 5.265625 20.496094 5.25 20.636719 5.230469 20.785156 C 5.101562 20.585938 5.082031 20.457031 5.085938 20.222656 C 5.085938 20.175781 5.085938 20.128906 5.085938 20.078125 C 5.085938 20.042969 5.085938 20.003906 5.089844 19.96875 Z M 5.089844 19.96875 "/>
<path style=" stroke:none;fill-rule:nonzero;fill:rgb(52.941176%,16.862745%,62.352941%);fill-opacity:1;" d="M 18.527344 13.246094 C 18.574219 13.265625 18.621094 13.28125 18.671875 13.296875 C 18.5625 13.4375 18.449219 13.582031 18.335938 13.726562 C 18.304688 13.710938 18.273438 13.695312 18.238281 13.679688 C 18.304688 13.570312 18.367188 13.457031 18.433594 13.34375 C 18.464844 13.34375 18.496094 13.34375 18.527344 13.34375 C 18.527344 13.3125 18.527344 13.28125 18.527344 13.246094 Z M 18.527344 13.246094 "/>
<path style=" stroke:none;fill-rule:nonzero;fill:rgb(68.235294%,40%,75.686275%);fill-opacity:1;" d="M 12.433594 2.976562 C 12.488281 3.019531 12.542969 3.066406 12.601562 3.109375 C 12.632812 3.136719 12.664062 3.160156 12.695312 3.1875 C 12.769531 3.265625 12.769531 3.265625 12.769531 3.40625 C 12.71875 3.375 12.671875 3.34375 12.625 3.3125 C 12.578125 3.359375 12.527344 3.40625 12.480469 3.457031 C 12.496094 3.359375 12.511719 3.265625 12.527344 3.167969 C 12.480469 3.183594 12.433594 3.199219 12.382812 3.214844 C 12.398438 3.136719 12.414062 3.058594 12.433594 2.976562 Z M 12.433594 2.976562 "/>
<path style=" stroke:none;fill-rule:nonzero;fill:rgb(68.235294%,41.568627%,74.901961%);fill-opacity:1;" d="M 11.230469 12 C 11.265625 12.0625 11.296875 12.125 11.328125 12.191406 C 11.28125 12.191406 11.234375 12.191406 11.183594 12.191406 C 11.167969 12.269531 11.152344 12.351562 11.136719 12.433594 C 11.058594 12.449219 10.976562 12.464844 10.894531 12.480469 C 10.976562 12.289062 11.097656 12.152344 11.230469 12 Z M 11.230469 12 "/>
<path style=" stroke:none;fill-rule:nonzero;fill:rgb(66.666667%,41.568627%,72.941176%);fill-opacity:1;" d="M 15.742188 7.054688 C 15.824219 7.136719 15.902344 7.214844 15.984375 7.296875 C 16.027344 7.335938 16.027344 7.335938 16.070312 7.378906 C 16.128906 7.441406 16.128906 7.441406 16.128906 7.535156 C 16.082031 7.550781 16.03125 7.566406 15.984375 7.585938 C 15.871094 7.472656 15.863281 7.402344 15.839844 7.246094 C 15.808594 7.246094 15.777344 7.246094 15.742188 7.246094 C 15.742188 7.183594 15.742188 7.121094 15.742188 7.054688 Z M 15.742188 7.054688 "/>
<path style=" stroke:none;fill-rule:nonzero;fill:rgb(60%,29.803922%,68.235294%);fill-opacity:1;" d="M 11.710938 13.535156 C 11.757812 13.535156 11.808594 13.535156 11.855469 13.535156 C 11.890625 13.621094 11.890625 13.621094 11.902344 13.726562 C 11.839844 13.8125 11.839844 13.8125 11.761719 13.871094 C 11.726562 13.871094 11.695312 13.871094 11.664062 13.871094 C 11.632812 13.785156 11.632812 13.785156 11.617188 13.679688 C 11.648438 13.632812 11.679688 13.585938 11.710938 13.535156 Z M 11.710938 13.535156 "/>
<path style=" stroke:none;fill-rule:nonzero;fill:rgb(69.803922%,45.098039%,76.078431%);fill-opacity:1;" d="M 8.832031 14.976562 C 8.898438 15.105469 8.882812 15.214844 8.878906 15.359375 C 8.851562 15.351562 8.824219 15.339844 8.792969 15.328125 C 8.675781 15.296875 8.675781 15.296875 8.542969 15.40625 C 8.617188 15.242188 8.714844 15.113281 8.832031 14.976562 Z M 8.832031 14.976562 "/>
<path style=" stroke:none;fill-rule:nonzero;fill:rgb(57.254902%,22.745098%,66.666667%);fill-opacity:1;" d="M 17.089844 12.816406 C 17.105469 12.847656 17.121094 12.878906 17.136719 12.910156 C 17.054688 13.109375 16.980469 13.230469 16.800781 13.34375 C 16.769531 13.328125 16.738281 13.3125 16.703125 13.296875 C 16.832031 13.136719 16.957031 12.980469 17.089844 12.816406 Z M 17.089844 12.816406 "/>
<path style=" stroke:none;fill-rule:nonzero;fill:rgb(70.588235%,45.490196%,76.862745%);fill-opacity:1;" d="M 14.640625 5.664062 C 14.78125 5.796875 14.902344 5.914062 14.976562 6.097656 C 14.863281 6.046875 14.753906 6 14.640625 5.953125 C 14.640625 5.855469 14.640625 5.761719 14.640625 5.664062 Z M 14.640625 5.664062 "/>
<path style=" stroke:none;fill-rule:nonzero;fill:rgb(50.196078%,14.509804%,60.784314%);fill-opacity:1;" d="M 5.375 20.878906 C 5.449219 20.925781 5.449219 20.925781 5.519531 20.976562 C 5.566406 20.976562 5.613281 20.976562 5.664062 20.976562 C 5.679688 21.070312 5.695312 21.167969 5.710938 21.265625 C 5.59375 21.207031 5.488281 21.144531 5.375 21.070312 C 5.375 21.007812 5.375 20.945312 5.375 20.878906 Z M 5.375 20.878906 "/>
<path style=" stroke:none;fill-rule:nonzero;fill:rgb(66.27451%,38.431373%,73.333333%);fill-opacity:1;" d="M 7.199219 19.246094 C 7.261719 19.246094 7.328125 19.246094 7.390625 19.246094 C 7.324219 19.410156 7.230469 19.511719 7.105469 19.632812 C 7.097656 19.492188 7.097656 19.492188 7.105469 19.34375 C 7.136719 19.3125 7.167969 19.28125 7.199219 19.246094 Z M 7.199219 19.246094 "/>
<path style=" stroke:none;fill-rule:nonzero;fill:rgb(65.098039%,38.039216%,72.54902%);fill-opacity:1;" d="M 8.59375 17.425781 C 8.65625 17.457031 8.71875 17.488281 8.785156 17.519531 C 8.714844 17.679688 8.625 17.785156 8.496094 17.902344 C 8.503906 17.832031 8.511719 17.761719 8.515625 17.691406 C 8.519531 17.652344 8.523438 17.613281 8.527344 17.570312 C 8.542969 17.472656 8.542969 17.472656 8.59375 17.425781 Z M 8.59375 17.425781 "/>
<path style=" stroke:none;fill-rule:nonzero;fill:rgb(74.509804%,52.156863%,80%);fill-opacity:1;" d="M 9.265625 14.449219 C 9.28125 14.480469 9.296875 14.511719 9.3125 14.542969 C 9.25 14.730469 9.117188 14.84375 8.976562 14.976562 C 8.945312 14.960938 8.914062 14.945312 8.878906 14.929688 C 9.007812 14.769531 9.132812 14.609375 9.265625 14.449219 Z M 9.265625 14.449219 "/>
<path style=" stroke:none;fill-rule:nonzero;fill:rgb(63.529412%,38.431373%,70.196078%);fill-opacity:1;" d="M 11.808594 11.328125 C 11.839844 11.34375 11.871094 11.359375 11.902344 11.375 C 11.859375 11.441406 11.8125 11.503906 11.765625 11.566406 C 11.742188 11.605469 11.714844 11.640625 11.6875 11.675781 C 11.652344 11.71875 11.652344 11.71875 11.617188 11.761719 C 11.585938 11.761719 11.550781 11.761719 11.519531 11.761719 C 11.542969 11.554688 11.664062 11.460938 11.808594 11.328125 Z M 11.808594 11.328125 "/>
<path style=" stroke:none;fill-rule:nonzero;fill:rgb(52.54902%,15.294118%,61.568627%);fill-opacity:1;" d="M 6.816406 3.886719 C 6.910156 3.984375 6.910156 3.984375 6.910156 4.128906 C 6.929688 4.175781 6.945312 4.222656 6.960938 4.273438 C 6.820312 4.234375 6.820312 4.234375 6.671875 4.175781 C 6.65625 4.128906 6.640625 4.082031 6.625 4.03125 C 6.6875 4.015625 6.75 4 6.816406 3.984375 C 6.816406 3.953125 6.816406 3.921875 6.816406 3.886719 Z M 6.816406 3.886719 "/>
<path style=" stroke:none;fill-rule:nonzero;fill:rgb(94.509804%,83.529412%,96.470588%);fill-opacity:1;" d="M 20.0625 14.640625 C 20.0625 14.8125 20.03125 14.835938 19.921875 14.960938 C 19.894531 14.992188 19.867188 15.019531 19.839844 15.050781 C 19.816406 15.074219 19.796875 15.097656 19.777344 15.121094 C 19.761719 15.054688 19.746094 14.992188 19.726562 14.929688 C 19.777344 14.929688 19.824219 14.929688 19.871094 14.929688 C 19.875 14.898438 19.882812 14.867188 19.886719 14.839844 C 19.921875 14.734375 19.921875 14.734375 20.0625 14.640625 Z M 20.0625 14.640625 "/>
<path style=" stroke:none;fill-rule:nonzero;fill:rgb(67.45098%,42.745098%,73.333333%);fill-opacity:1;" d="M 12.335938 12.910156 C 12.382812 12.929688 12.429688 12.945312 12.480469 12.960938 C 12.433594 13.023438 12.386719 13.089844 12.339844 13.152344 C 12.3125 13.1875 12.285156 13.222656 12.257812 13.261719 C 12.226562 13.300781 12.226562 13.300781 12.191406 13.34375 C 12.175781 13.34375 12.160156 13.34375 12.144531 13.34375 C 12.144531 13.265625 12.144531 13.1875 12.144531 13.105469 C 12.207031 13.089844 12.269531 13.074219 12.335938 13.054688 C 12.335938 13.007812 12.335938 12.960938 12.335938 12.910156 Z M 12.335938 12.910156 "/>
<path style=" stroke:none;fill-rule:nonzero;fill:rgb(70.980392%,45.490196%,77.647059%);fill-opacity:1;" d="M 17.039062 8.640625 C 17.160156 8.75 17.160156 8.75 17.28125 8.878906 C 17.28125 8.925781 17.28125 8.976562 17.28125 9.023438 C 17.160156 8.96875 17.085938 8.925781 16.992188 8.832031 C 16.992188 8.6875 16.992188 8.6875 17.039062 8.640625 Z M 17.039062 8.640625 "/>
<path style=" stroke:none;fill-rule:nonzero;fill:rgb(74.117647%,51.372549%,79.215686%);fill-opacity:1;" d="M 14.976562 6.097656 C 15.105469 6.222656 15.230469 6.351562 15.359375 6.480469 C 15.34375 6.511719 15.328125 6.542969 15.3125 6.574219 C 15.035156 6.371094 15.035156 6.371094 14.980469 6.199219 C 14.980469 6.167969 14.976562 6.132812 14.976562 6.097656 Z M 14.976562 6.097656 "/>
<path style=" stroke:none;fill-rule:nonzero;fill:rgb(90.980392%,66.27451%,96.470588%);fill-opacity:1;" d="M 16.414062 13.535156 C 16.433594 13.582031 16.449219 13.632812 16.464844 13.679688 C 16.398438 13.789062 16.3125 13.871094 16.222656 13.96875 C 16.171875 13.789062 16.171875 13.789062 16.222656 13.679688 C 16.273438 13.679688 16.320312 13.679688 16.367188 13.679688 C 16.382812 13.632812 16.398438 13.585938 16.414062 13.535156 Z M 16.414062 13.535156 "/>
<path style=" stroke:none;fill-rule:nonzero;fill:rgb(60%,26.666667%,67.843137%);fill-opacity:1;" d="M 10.128906 13.390625 C 10.144531 13.421875 10.160156 13.457031 10.175781 13.488281 C 10.207031 13.488281 10.238281 13.488281 10.273438 13.488281 C 10.257812 13.535156 10.242188 13.582031 10.222656 13.632812 C 10.125 13.664062 10.125 13.664062 10.03125 13.679688 C 10.03125 13.488281 10.03125 13.488281 10.128906 13.390625 Z M 10.128906 13.390625 "/>
<path style=" stroke:none;fill-rule:nonzero;fill:rgb(54.901961%,19.215686%,63.921569%);fill-opacity:1;" d="M 15.792969 9.3125 C 15.804688 9.339844 15.816406 9.371094 15.828125 9.398438 C 15.894531 9.519531 15.96875 9.574219 16.078125 9.648438 C 16.0625 9.695312 16.046875 9.742188 16.03125 9.792969 C 15.757812 9.539062 15.757812 9.539062 15.742188 9.359375 C 15.761719 9.34375 15.777344 9.328125 15.792969 9.3125 Z M 15.792969 9.3125 "/>
<path style=" stroke:none;fill-rule:nonzero;fill:rgb(91.764706%,66.27451%,96.862745%);fill-opacity:1;" d="M 15.023438 8.59375 C 15.144531 8.699219 15.144531 8.699219 15.265625 8.832031 C 15.265625 8.894531 15.265625 8.957031 15.265625 9.023438 C 15.230469 9.023438 15.199219 9.023438 15.167969 9.023438 C 15.136719 8.960938 15.105469 8.898438 15.070312 8.832031 C 15.054688 8.832031 15.039062 8.832031 15.023438 8.832031 C 15.023438 8.753906 15.023438 8.671875 15.023438 8.59375 Z M 15.023438 8.59375 "/>
<path style=" stroke:none;fill-rule:nonzero;fill:rgb(90.588235%,63.137255%,96.078431%);fill-opacity:1;" d="M 12.910156 20.398438 C 12.929688 20.449219 12.945312 20.496094 12.960938 20.542969 C 12.902344 20.632812 12.902344 20.632812 12.820312 20.722656 C 12.792969 20.75 12.765625 20.78125 12.738281 20.8125 C 12.714844 20.835938 12.695312 20.855469 12.671875 20.878906 C 12.640625 20.863281 12.609375 20.847656 12.574219 20.832031 C 12.6875 20.6875 12.796875 20.546875 12.910156 20.398438 Z M 12.910156 20.398438 "/>
<path style=" stroke:none;fill-rule:nonzero;fill:rgb(63.921569%,31.372549%,71.764706%);fill-opacity:1;" d="M 10.65625 12.71875 C 10.71875 12.75 10.78125 12.785156 10.847656 12.816406 C 10.800781 12.878906 10.753906 12.941406 10.703125 13.007812 C 10.640625 12.992188 10.578125 12.976562 10.511719 12.960938 C 10.601562 12.773438 10.601562 12.773438 10.65625 12.71875 Z M 10.65625 12.71875 "/>
<path style=" stroke:none;fill-rule:nonzero;fill:rgb(50.588235%,14.901961%,60%);fill-opacity:1;" d="M 18.574219 10.703125 C 18.667969 10.738281 18.667969 10.738281 18.769531 10.800781 C 18.804688 10.902344 18.804688 10.902344 18.816406 10.992188 C 18.753906 11.007812 18.6875 11.023438 18.625 11.039062 C 18.59375 10.921875 18.574219 10.824219 18.574219 10.703125 Z M 18.574219 10.703125 "/>
<path style=" stroke:none;fill-rule:nonzero;fill:rgb(50.196078%,14.117647%,60%);fill-opacity:1;" d="M 15.167969 6.433594 C 15.402344 6.660156 15.402344 6.660156 15.457031 6.769531 C 15.34375 6.734375 15.234375 6.703125 15.121094 6.671875 C 15.136719 6.59375 15.152344 6.511719 15.167969 6.433594 Z M 15.167969 6.433594 "/>
<path style=" stroke:none;fill-rule:nonzero;fill:rgb(55.294118%,19.607843%,64.705882%);fill-opacity:1;" d="M 14.542969 16.558594 C 14.574219 16.558594 14.605469 16.558594 14.640625 16.558594 C 14.640625 16.589844 14.640625 16.625 14.640625 16.65625 C 14.6875 16.671875 14.734375 16.6875 14.785156 16.703125 C 14.785156 16.78125 14.785156 16.863281 14.785156 16.945312 C 14.648438 16.824219 14.570312 16.742188 14.542969 16.558594 Z M 14.542969 16.558594 "/>
<path style=" stroke:none;fill-rule:nonzero;fill:rgb(93.72549%,81.176471%,96.078431%);fill-opacity:1;" d="M 18.71875 16.175781 C 18.75 16.222656 18.785156 16.269531 18.816406 16.320312 C 18.738281 16.398438 18.65625 16.476562 18.574219 16.558594 C 18.601562 16.398438 18.625 16.316406 18.71875 16.175781 Z M 18.71875 16.175781 "/>
<path style=" stroke:none;fill-rule:nonzero;fill:rgb(60.392157%,33.333333%,67.843137%);fill-opacity:1;" d="M 9.40625 14.257812 C 9.457031 14.273438 9.503906 14.289062 9.550781 14.304688 C 9.433594 14.46875 9.433594 14.46875 9.3125 14.640625 C 9.296875 14.609375 9.28125 14.578125 9.265625 14.542969 C 9.339844 14.324219 9.339844 14.324219 9.40625 14.257812 Z M 9.40625 14.257812 "/>
<path style=" stroke:none;fill-rule:nonzero;fill:rgb(64.705882%,38.431373%,70.980392%);fill-opacity:1;" d="M 11.425781 4.128906 C 11.539062 4.164062 11.539062 4.164062 11.664062 4.222656 C 11.695312 4.324219 11.695312 4.324219 11.710938 4.414062 C 11.742188 4.433594 11.773438 4.449219 11.808594 4.464844 C 11.761719 4.464844 11.714844 4.464844 11.664062 4.464844 C 11.597656 4.390625 11.597656 4.390625 11.535156 4.296875 C 11.515625 4.265625 11.492188 4.234375 11.472656 4.203125 C 11.449219 4.164062 11.449219 4.164062 11.425781 4.128906 Z M 11.425781 4.128906 "/>
<path style=" stroke:none;fill-rule:nonzero;fill:rgb(93.333333%,81.960784%,96.078431%);fill-opacity:1;" d="M 17.902344 17.328125 C 17.902344 17.472656 17.902344 17.472656 17.808594 17.578125 C 17.777344 17.605469 17.746094 17.632812 17.710938 17.664062 C 17.695312 17.617188 17.679688 17.570312 17.664062 17.519531 C 17.761719 17.375 17.761719 17.375 17.902344 17.328125 Z M 17.902344 17.328125 "/>
<path style=" stroke:none;fill-rule:nonzero;fill:rgb(92.54902%,80%,95.294118%);fill-opacity:1;" d="M 12.238281 16.511719 C 12.253906 16.574219 12.273438 16.640625 12.289062 16.703125 C 12.191406 16.734375 12.097656 16.765625 12 16.800781 C 12.066406 16.648438 12.09375 16.609375 12.238281 16.511719 Z M 12.238281 16.511719 "/>
<path style=" stroke:none;fill-rule:nonzero;fill:rgb(50.980392%,15.294118%,60.784314%);fill-opacity:1;" d="M 16.078125 16.414062 C 16.054688 16.570312 16.011719 16.652344 15.886719 16.753906 C 15.855469 16.753906 15.824219 16.753906 15.792969 16.753906 C 15.820312 16.578125 15.882812 16.414062 16.078125 16.414062 Z M 16.078125 16.414062 "/>
<path style=" stroke:none;fill-rule:nonzero;fill:rgb(67.45098%,42.352941%,74.117647%);fill-opacity:1;" d="M 8.257812 15.695312 C 8.304688 15.792969 8.304688 15.792969 8.269531 15.914062 C 8.207031 16.03125 8.207031 16.03125 8.105469 16.070312 C 8.078125 16.074219 8.046875 16.078125 8.015625 16.078125 C 8.082031 15.9375 8.160156 15.820312 8.257812 15.695312 Z M 8.257812 15.695312 "/>
<path style=" stroke:none;fill-rule:nonzero;fill:rgb(94.901961%,84.313725%,97.254902%);fill-opacity:1;" d="M 19.296875 15.601562 C 19.296875 15.742188 19.296875 15.742188 19.175781 15.871094 C 19.136719 15.910156 19.097656 15.945312 19.054688 15.984375 C 19.039062 15.90625 19.023438 15.824219 19.007812 15.742188 C 19.101562 15.695312 19.199219 15.648438 19.296875 15.601562 Z M 19.296875 15.601562 "/>
<path style=" stroke:none;fill-rule:nonzero;fill:rgb(91.372549%,64.705882%,96.862745%);fill-opacity:1;" d="M 14.59375 8.160156 C 14.679688 8.167969 14.679688 8.167969 14.785156 8.207031 C 14.867188 8.332031 14.867188 8.332031 14.929688 8.449219 C 14.839844 8.4375 14.839844 8.4375 14.734375 8.398438 C 14.652344 8.277344 14.652344 8.277344 14.59375 8.160156 Z M 14.59375 8.160156 "/>
<path style=" stroke:none;fill-rule:nonzero;fill:rgb(68.627451%,41.960784%,74.901961%);fill-opacity:1;" d="M 11.808594 4.609375 C 11.925781 4.648438 11.925781 4.648438 12.046875 4.703125 C 12.0625 4.75 12.078125 4.800781 12.097656 4.847656 C 12.128906 4.878906 12.160156 4.910156 12.191406 4.945312 C 12.144531 4.945312 12.097656 4.945312 12.046875 4.945312 C 11.980469 4.871094 11.980469 4.871094 11.917969 4.777344 C 11.898438 4.746094 11.878906 4.714844 11.855469 4.679688 C 11.832031 4.644531 11.832031 4.644531 11.808594 4.609375 Z M 11.808594 4.609375 "/>
<path style=" stroke:none;fill-rule:nonzero;fill:rgb(51.764706%,16.862745%,61.960784%);fill-opacity:1;" d="M 13.632812 19.34375 C 13.679688 19.359375 13.726562 19.375 13.777344 19.390625 C 13.695312 19.488281 13.617188 19.582031 13.535156 19.679688 C 13.503906 19.59375 13.503906 19.59375 13.488281 19.488281 C 13.558594 19.402344 13.558594 19.402344 13.632812 19.34375 Z M 13.632812 19.34375 "/>
<path style=" stroke:none;fill-rule:nonzero;fill:rgb(93.72549%,68.235294%,98.823529%);fill-opacity:1;" d="M 13.199219 17.902344 C 13.199219 17.9375 13.199219 17.96875 13.199219 18 C 13.035156 18.070312 13.035156 18.070312 12.863281 18.144531 C 12.863281 18.097656 12.863281 18.050781 12.863281 18 C 12.992188 17.929688 13.050781 17.902344 13.199219 17.902344 Z M 13.199219 17.902344 "/>
<path style=" stroke:none;fill-rule:nonzero;fill:rgb(94.901961%,84.705882%,96.862745%);fill-opacity:1;" d="M 11.230469 17.664062 C 11.246094 17.726562 11.265625 17.789062 11.28125 17.855469 C 11.199219 17.917969 11.121094 17.984375 11.039062 18.046875 C 11.039062 17.859375 11.113281 17.800781 11.230469 17.664062 Z M 11.230469 17.664062 "/>
<path style=" stroke:none;fill-rule:nonzero;fill:rgb(90.588235%,77.647059%,93.72549%);fill-opacity:1;" d="M 20.257812 14.0625 C 20.273438 14.0625 20.289062 14.0625 20.304688 14.0625 C 20.3125 14.226562 20.3125 14.226562 20.304688 14.398438 C 20.257812 14.433594 20.207031 14.464844 20.160156 14.496094 C 20.203125 14.171875 20.203125 14.171875 20.257812 14.0625 Z M 20.257812 14.0625 "/>
<path style=" stroke:none;fill-rule:nonzero;fill:rgb(92.941176%,81.960784%,95.294118%);fill-opacity:1;" d="M 13.054688 12.433594 C 13.105469 12.449219 13.152344 12.464844 13.199219 12.480469 C 13.214844 12.574219 13.230469 12.671875 13.246094 12.769531 C 13.152344 12.707031 13.152344 12.707031 13.054688 12.625 C 13.054688 12.5625 13.054688 12.496094 13.054688 12.433594 Z M 13.054688 12.433594 "/>
<path style=" stroke:none;fill-rule:nonzero;fill:rgb(52.54902%,16.078431%,61.960784%);fill-opacity:1;" d="M 5.953125 5.039062 C 6.046875 5.136719 6.046875 5.136719 6.046875 5.328125 C 5.953125 5.3125 5.953125 5.3125 5.855469 5.28125 C 5.839844 5.234375 5.824219 5.183594 5.808594 5.136719 C 5.855469 5.136719 5.902344 5.136719 5.953125 5.136719 C 5.953125 5.105469 5.953125 5.074219 5.953125 5.039062 Z M 5.953125 5.039062 "/>
</g>
</svg>
