<?xml version="1.0" encoding="UTF-8"?>
<svg version="1.1" xmlns="http://www.w3.org/2000/svg" width="500" height="500">
<path d="M0 0 C1.65532997 -0.01029488 1.65532997 -0.01029488 3.34410095 -0.02079773 C6.97660348 -0.03903367 10.60867264 -0.03523165 14.24121094 -0.02954102 C16.77935933 -0.03410522 19.31750648 -0.0394115 21.85565186 -0.04542542 C27.17156579 -0.05435096 32.48732346 -0.05217631 37.80322266 -0.04199219 C43.91994155 -0.0305317 50.0362209 -0.04455858 56.15288186 -0.07138866 C62.06782673 -0.09634854 67.98263691 -0.09870068 73.89763641 -0.0922718 C76.39970377 -0.09211908 78.90177979 -0.09812246 81.40381622 -0.11056328 C84.91406744 -0.12555552 88.42337077 -0.11473379 91.93359375 -0.09765625 C93.46302864 -0.1121582 93.46302864 -0.1121582 95.02336121 -0.12695312 C104.3174186 -0.03297557 114.15030858 1.85220513 120.97558594 8.59155273 C121.78640625 9.38561523 122.59722656 10.17967773 123.43261719 10.99780273 C124.18929687 11.79186523 124.94597656 12.58592773 125.72558594 13.40405273 C126.38945312 14.09499023 127.05332031 14.78592773 127.73730469 15.49780273 C132.20633096 20.35662237 136.25579226 25.55176053 140.30737305 30.75830078 C143.88678157 35.35707988 147.53888788 39.89095071 151.22558594 44.40405273 C155.25788102 49.34331859 159.24369779 54.31224936 163.16308594 59.34155273 C167.26496517 64.60160963 171.47136631 69.76655637 175.72558594 74.90405273 C180.43856026 80.59555214 185.07011438 86.33729719 189.61230469 92.16577148 C193.63188799 97.31365887 197.75297237 102.37537423 201.88330078 107.43457031 C205.44317078 111.80321316 208.94718608 116.21059138 212.41308594 120.65405273 C216.57142982 125.98342449 220.86130077 131.18508439 225.20996094 136.36108398 C228.32460385 140.12864117 231.32890953 143.97473656 234.33007812 147.83276367 C237.52835455 151.92628893 240.80901516 155.9426355 244.13134766 159.93603516 C263.8421689 183.64172896 263.8421689 183.64172896 263.78808594 197.21655273 C264.20897085 205.15177313 269.25282452 209.96336344 274.24902344 215.69458008 C287.56439795 231.11029641 287.56439795 231.11029641 287.77246094 240.52514648 C287.10572055 248.54118435 282.67947555 253.99638041 277.72558594 259.90405273 C276.54752731 261.33033107 275.37046001 262.75742873 274.19433594 264.18530273 C273.6078125 264.89557617 273.02128906 265.60584961 272.41699219 266.33764648 C269.97292434 269.32358619 267.59604361 272.35958118 265.22558594 275.40405273 C258.62712249 283.85133775 251.83741164 292.14161679 245.05957031 300.44506836 C238.8429373 308.06427897 232.6696178 315.70987591 226.61450195 323.45825195 C223.08574693 327.96682095 219.47742862 332.40536643 215.83886719 336.82592773 C213.78096175 339.33649629 211.74908233 341.86570223 209.72558594 344.40405273 C206.9175072 347.92529432 204.08184083 351.42176938 201.22558594 354.90405273 C196.39894122 360.79040676 191.64807677 366.73526059 186.90527344 372.68920898 C182.14420348 378.65548703 177.3366296 384.58294237 172.51733398 390.50219727 C169.439198 394.28535609 166.38156325 398.08289846 163.35058594 401.90405273 C162.14301881 403.40466963 160.93473387 404.9047093 159.72558594 406.40405273 C158.85546875 407.51393555 158.85546875 407.51393555 157.96777344 408.64624023 C157.39285156 409.35006836 156.81792969 410.05389648 156.22558594 410.77905273 C155.74089844 411.38491211 155.25621094 411.99077148 154.75683594 412.61499023 C148.36971752 418.24056761 141.97129524 418.98845615 133.70727539 418.92163086 C132.09360077 418.93214478 132.09360077 418.93214478 130.44732666 418.94287109 C126.91090675 418.96039818 123.37529445 418.94884893 119.83886719 418.93530273 C117.37363024 418.93799855 114.90839433 418.94188173 112.44316101 418.94689941 C107.28614134 418.95278682 102.12939942 418.94425329 96.97241211 418.92553711 C90.36123545 418.90271254 83.75070709 418.91589834 77.13955402 418.93982697 C72.05320846 418.95427445 66.96701691 418.94968428 61.88066673 418.9393158 C59.44259756 418.9366475 57.00451441 418.93992186 54.56646156 418.94923401 C51.162501 418.95938577 47.75959484 418.9439178 44.35571289 418.92163086 C43.34832565 418.92972778 42.34093842 418.93782471 41.30302429 418.94616699 C36.91944398 418.89296071 34.4222034 418.832403 30.623703 416.4967041 C28.02485909 413.63150976 27.53545812 411.9411496 27.41308594 408.15405273 C27.37570313 407.40639648 27.33832031 406.65874023 27.29980469 405.88842773 C27.89007761 402.44426648 29.75480292 400.24502313 31.72558594 397.40405273 C30.53594238 397.38947021 29.34629883 397.3748877 28.12060547 397.35986328 C23.66605011 397.30146704 19.2119786 397.22423985 14.7578125 397.14160156 C12.83764557 397.10854528 10.91738597 397.08045462 8.99707031 397.05761719 C6.22128155 397.02371332 3.44632742 396.97138364 0.67089844 396.91577148 C-0.17431366 396.90938156 -1.01952576 396.90299164 -1.89035034 396.89640808 C-11.04863746 396.67535994 -18.92550494 394.74462571 -25.58691406 388.27124023 C-31.85673381 381.33380079 -33.52788526 373.16328465 -33.18066406 363.90405273 C-31.45166729 355.37433531 -24.45030427 348.81260635 -18.96582031 342.40600586 C-16.48482396 339.4694917 -14.12805013 336.44285841 -11.77441406 333.40405273 C-7.29654779 327.66412313 -2.71916976 322.01027385 1.88525391 316.37158203 C5.42669954 312.0265047 8.90729257 307.63967016 12.35058594 303.21655273 C15.83152983 298.74723136 19.40741643 294.38684777 23.10058594 290.09155273 C27.26287311 285.2436074 31.18579656 280.25123984 35.03808594 275.15405273 C41.20205005 267.00031451 47.64921321 259.10876673 54.1875 251.25366211 C63.78749327 239.70928925 73.15780993 227.97589048 82.41308594 216.15405273 C86.39019699 211.07595749 90.42392874 206.05063923 94.53027344 201.07592773 C96.07013944 199.20178477 97.59494603 197.31521485 99.10839844 195.41967773 C99.88957031 194.44514648 100.67074219 193.47061523 101.47558594 192.46655273 C102.17167969 191.5912793 102.86777344 190.71600586 103.58496094 189.81420898 C105.79257828 187.32862522 108.02093155 185.33402962 110.72558594 183.40405273 C111.38558594 183.40405273 112.04558594 183.40405273 112.72558594 183.40405273 C112.1803125 182.73760742 111.63503906 182.07116211 111.07324219 181.38452148 C109.47421295 179.43015241 107.87526101 177.47572009 106.27636719 175.52124023 C104.71200221 173.60917323 103.14684952 171.69776239 101.58105469 169.78686523 C99.29363805 166.99443454 97.00906031 164.19970827 94.72558594 161.40405273 C94.23541992 160.80431641 93.74525391 160.20458008 93.24023438 159.58666992 C86.77246274 151.66833213 80.35218241 143.71875088 74.06396484 135.65673828 C72.00063051 132.93908297 72.00063051 132.93908297 69.72558594 130.40405273 C68.58089844 131.57967773 68.58089844 131.57967773 67.41308594 132.77905273 C63.66210217 136.44280432 61.58778219 137.70748017 56.41308594 137.77905273 C50.252343 137.62543841 47.31594569 136.03488686 42.97558594 131.62670898 C38.42639538 126.70147646 34.3264243 121.41137814 30.21508789 116.12133789 C26.46890512 111.31128256 22.6161535 106.59781376 18.72558594 101.90405273 C14.01231344 96.21280648 9.38105055 90.47079936 4.83886719 84.64233398 C1.35704078 80.18315279 -2.19718082 75.78695024 -5.77441406 71.40405273 C-11.27102479 64.66072108 -16.71927838 57.88511726 -22.03417969 50.99731445 C-23.22737204 49.46448507 -24.44575198 47.95136404 -25.66503906 46.43920898 C-31.86723342 38.48567557 -33.96092767 32.33917344 -32.77441406 22.27905273 C-31.6076154 16.45253891 -29.38752365 12.63524203 -25.27441406 8.40405273 C-24.79746094 7.91163086 -24.32050781 7.41920898 -23.82910156 6.91186523 C-16.81258085 0.43212752 -9.03777166 -0.03958749 0 0 Z M6.72558594 33.40405273 C8.95141816 36.7645369 11.15015645 40.06152281 13.71386719 43.17358398 C14.25245361 43.83100586 14.79104004 44.48842773 15.34594727 45.16577148 C15.90435303 45.8425293 16.46275879 46.51928711 17.03808594 47.21655273 C18.19505067 48.62872789 19.35130553 50.04148494 20.50683594 51.45483398 C21.33634766 52.46924561 21.33634766 52.46924561 22.18261719 53.50415039 C25.09344968 57.08834319 27.92284069 60.73500441 30.72558594 64.40405273 C31.37605392 64.08062897 32.02652191 63.7572052 32.69670105 63.42398071 C36.54830661 62.12701486 40.17037336 62.09624351 44.18774414 62.08520508 C45.02728134 62.07515945 45.86681854 62.06511383 46.73179626 62.05476379 C49.49664651 62.02396325 52.26140005 62.00690536 55.02636719 61.98999023 C56.94737071 61.97127607 58.86836603 61.95170247 60.78935242 61.93130493 C65.83793299 61.880004 70.8865402 61.8403673 75.9352417 61.80316162 C81.09003276 61.76310925 86.24471317 61.71202251 91.39941406 61.66186523 C101.50806027 61.56513005 111.61676898 61.4807175 121.72558594 61.40405273 C119.8985038 58.32064526 118.07067677 55.43642278 115.79980469 52.66186523 C115.25001953 51.98768555 114.70023437 51.31350586 114.13378906 50.61889648 C113.56595703 49.92924805 112.998125 49.23959961 112.41308594 48.52905273 C111.57874023 47.50618164 111.57874023 47.50618164 110.72753906 46.46264648 C109.06897851 44.43530239 107.40617029 42.41320783 105.72558594 40.40405273 C105.14800553 39.55433506 105.14800553 39.55433506 104.55875683 38.68745136 C101.77377182 34.88779821 101.77377182 34.88779821 97.69351101 32.76689529 C95.27222902 32.54372757 92.93793494 32.53724337 90.50732422 32.609375 C89.599366 32.60835281 88.69140778 32.60733063 87.75593567 32.60627747 C84.76804671 32.61113728 81.78325041 32.66550118 78.79589844 32.72045898 C76.71940785 32.73352092 74.64289563 32.74348228 72.56637573 32.75047302 C67.11108439 32.77715148 61.65710563 32.84587322 56.20233154 32.92340088 C50.63213863 32.99511401 45.06173281 33.02700184 39.49121094 33.06225586 C28.56876044 33.1372434 17.6472825 33.25665581 6.72558594 33.40405273 Z M131.72558594 206.40405273 C131.29890625 206.94030273 130.87222656 207.47655273 130.43261719 208.02905273 C126.66999662 212.74590491 122.88446209 217.44227193 119.07202148 222.11889648 C114.40646807 227.84252463 109.7708177 233.5842852 105.22558594 239.40405273 C100.138403 245.91774085 94.93248777 252.33068712 89.70996094 258.73608398 C87.38397506 261.58997886 85.07849037 264.45897109 82.78808594 267.34155273 C79.79916832 271.09507719 76.7520285 274.79703359 73.69189453 278.49243164 C68.08109632 285.26972834 62.60176938 292.10592939 57.27246094 299.10717773 C52.24667618 305.66220286 46.95369526 312.01043167 41.72558594 318.40405273 C34.09854655 327.74333014 26.53693826 337.12460511 19.11669922 346.62915039 C17.6169095 348.54271151 16.10769497 350.4485639 14.59667969 352.35327148 C14.08508301 352.9995752 13.57348633 353.64587891 13.04638672 354.31176758 C12.05828009 355.55961606 11.06843377 356.80608939 10.07666016 358.05102539 C7.75979926 360.46326386 7.75979926 360.46326386 6.72558594 363.40405273 C14.14494889 363.60731506 21.56359137 363.74716632 28.98510742 363.84350586 C31.50816681 363.88367526 34.03104068 363.93822331 36.5534668 364.00756836 C40.18552427 364.10490034 43.81511617 364.15004687 47.44824219 364.18530273 C48.57142349 364.22659302 49.6946048 364.2678833 50.8518219 364.3104248 C56.81425778 364.36498116 56.81425778 364.36498116 61.95088196 361.6839447 C63.7309023 359.67082113 65.241351 357.64091477 66.72558594 355.40405273 C67.58238537 354.31481267 68.44650617 353.23121717 69.32324219 352.15795898 C70.14654468 351.09546267 70.96811232 350.03162018 71.78808594 348.96655273 C76.01032674 343.53540519 80.33607716 338.20076653 84.72558594 332.90405273 C89.53626054 327.09605911 94.2585314 321.23182837 98.89794922 315.28637695 C102.30074055 310.92964928 105.77679537 306.63887662 109.28808594 302.36889648 C116.34957031 293.77968713 123.37950667 285.166331 130.22558594 276.40405273 C134.2148521 271.29820181 138.26260183 266.24372438 142.35058594 261.21655273 C142.89545654 260.54462891 143.44032715 259.87270508 144.00170898 259.18041992 C146.48725475 256.12232499 148.98743886 253.0817796 151.54980469 250.08764648 C152.3709375 249.11956055 153.19207031 248.15147461 154.03808594 247.15405273 C154.75609375 246.32389648 155.47410156 245.49374023 156.21386719 244.63842773 C158.09916447 242.30151114 158.09916447 242.30151114 157.72558594 238.40405273 C156.1921049 236.12904315 154.65237207 234.07307646 152.91308594 231.96655273 C152.42187256 231.35690674 151.93065918 230.74726074 151.42456055 230.11914062 C147.08050306 224.75660999 142.62624034 219.48408021 138.13574219 214.24389648 C135.94884741 211.66711771 133.82184739 209.05477777 131.72558594 206.40405273 Z " fill="#EBB9F8" transform="translate(137.2744140625,51.595947265625)"/>
<path d="M0 0 C1.65532997 -0.01029488 1.65532997 -0.01029488 3.34410095 -0.02079773 C6.97660348 -0.03903367 10.60867264 -0.03523165 14.24121094 -0.02954102 C16.77935933 -0.03410522 19.31750648 -0.0394115 21.85565186 -0.04542542 C27.17156579 -0.05435096 32.48732346 -0.05217631 37.80322266 -0.04199219 C43.91994155 -0.0305317 50.0362209 -0.04455858 56.15288186 -0.07138866 C62.06782673 -0.09634854 67.98263691 -0.09870068 73.89763641 -0.0922718 C76.39970377 -0.09211908 78.90177979 -0.09812246 81.40381622 -0.11056328 C84.91406744 -0.12555552 88.42337077 -0.11473379 91.93359375 -0.09765625 C93.46302864 -0.1121582 93.46302864 -0.1121582 95.02336121 -0.12695312 C104.3174186 -0.03297557 114.15030858 1.85220513 120.97558594 8.59155273 C121.78640625 9.38561523 122.59722656 10.17967773 123.43261719 10.99780273 C124.18929687 11.79186523 124.94597656 12.58592773 125.72558594 13.40405273 C126.38945312 14.09499023 127.05332031 14.78592773 127.73730469 15.49780273 C132.20633096 20.35662237 136.25579226 25.55176053 140.30737305 30.75830078 C143.88678157 35.35707988 147.53888788 39.89095071 151.22558594 44.40405273 C155.25788102 49.34331859 159.24369779 54.31224936 163.16308594 59.34155273 C167.26496517 64.60160963 171.47136631 69.76655637 175.72558594 74.90405273 C180.43856026 80.59555214 185.07011438 86.33729719 189.61230469 92.16577148 C193.63188799 97.31365887 197.75297237 102.37537423 201.88330078 107.43457031 C205.44317078 111.80321316 208.94718608 116.21059138 212.41308594 120.65405273 C216.57142982 125.98342449 220.86130077 131.18508439 225.20996094 136.36108398 C228.32460385 140.12864117 231.32890953 143.97473656 234.33007812 147.83276367 C238.12045714 152.68413051 242.03897068 157.42104556 245.97558594 162.15405273 C263.32263558 183.10447176 263.32263558 183.10447176 263.22558594 197.21655273 C263.22421631 198.10076904 263.22284668 198.98498535 263.22143555 199.89599609 C263.05959511 206.78151326 261.57925145 211.65514188 257.72558594 217.40405273 C257.39558594 218.39405273 257.06558594 219.38405273 256.72558594 220.40405273 C256.06558594 220.40405273 255.40558594 220.40405273 254.72558594 220.40405273 C254.4896875 220.93901367 254.25378906 221.47397461 254.01074219 222.02514648 C252.36083361 225.07923257 250.29471009 227.74110747 248.16308594 230.46655273 C247.71545898 231.04308594 247.26783203 231.61961914 246.80664062 232.21362305 C242.53939664 237.68715508 238.15186242 243.0586936 233.72558594 248.40405273 C224.02797476 260.07493179 224.02797476 260.07493179 214.62011719 271.97827148 C210.8075595 276.85991751 206.87111101 281.64288364 202.95214844 286.43920898 C200.96796545 288.86892806 199.00172514 291.31018479 197.06152344 293.77514648 C196.29066406 294.74581055 195.51980469 295.71647461 194.72558594 296.71655273 C194.06558594 297.55831055 193.40558594 298.40006836 192.72558594 299.26733398 C189.81738046 302.37434257 187.2801329 304.15288139 183.04199219 304.83764648 C177.14652904 304.84600884 173.15144548 304.72196448 168.72558594 300.40405273 C165.70764128 296.41079669 164.37182721 292.61187884 164.47558594 287.59155273 C165.5332239 280.94354269 169.53558227 276.44217504 173.72558594 271.40405273 C174.78882416 270.09996677 175.85127456 268.79523823 176.91308594 267.48999023 C179.28466437 264.5875066 181.66995416 261.69699705 184.06542969 258.81420898 C191.47394503 249.8984778 198.8368096 240.94741583 205.85058594 231.71655273 C209.20885465 227.30780451 212.682055 223.04608724 216.28808594 218.84155273 C219.916697 214.58157107 223.51839155 210.30492882 226.97558594 205.90405273 C227.72324219 204.96561523 228.47089844 204.02717773 229.24121094 203.06030273 C230.94129732 200.54331579 230.94129732 200.54331579 230.67480469 197.87670898 C227.41612934 189.38806086 219.94120231 182.15247289 214.15136719 175.29077148 C211.37136624 171.98252559 208.67655211 168.61419274 205.98730469 165.23217773 C203.08732523 161.60595126 200.15652655 158.00526822 197.22558594 154.40405273 C191.52058734 147.38937784 185.82520912 140.36876372 180.25292969 133.24780273 C174.15799087 125.45902106 167.97244962 117.75195872 161.72167969 110.08764648 C159.32562541 107.14801866 156.95618684 104.18875264 154.60058594 101.21655273 C152.08463838 98.05319608 149.50018359 94.96212885 146.86523438 91.8972168 C141.60306843 85.76973333 136.66285266 79.46427381 131.87304688 72.96020508 C128.2674276 68.06969673 124.65114261 63.30772808 120.31933594 59.02514648 C117.02825996 55.69937543 114.14695691 52.11657192 111.22558594 48.46655273 C110.11134934 47.08215901 108.99677105 45.69804022 107.88183594 44.31420898 C107.39521484 43.70714111 106.90859375 43.10007324 106.40722656 42.47460938 C105.85228516 41.79132568 105.29734375 41.10804199 104.72558594 40.40405273 C104.05179398 39.38539627 103.37800201 38.36673981 102.68379211 37.31721497 C101.10356333 35.44035819 100.17786195 34.53222248 97.80116081 33.85869312 C95.41889893 33.66525104 93.10211967 33.66170437 90.71264648 33.72290039 C89.36555855 33.72158615 89.36555855 33.72158615 87.99125671 33.72024536 C85.03071298 33.72441674 82.07245122 33.77104715 79.11230469 33.81811523 C77.05680072 33.82930898 75.00128072 33.83784832 72.945755 33.84384155 C67.54157132 33.86672568 62.13835871 33.9256461 56.73455811 33.99206543 C51.21802914 34.05349648 45.7013429 34.08085838 40.18457031 34.11108398 C29.36448273 34.1753891 18.54511516 34.2777642 7.72558594 34.40405273 C8.09091934 34.85208252 8.45625275 35.3001123 8.83265686 35.76171875 C10.51784457 37.82932512 12.20179893 39.89793273 13.88574219 41.96655273 C14.46022095 42.67102539 15.03469971 43.37549805 15.62658691 44.10131836 C21.80036414 51.68905447 27.77999025 59.41703073 33.60058594 67.27905273 C39.86534087 75.6734694 46.54060916 83.78061534 53.22558594 91.84155273 C72.24950521 114.98441233 72.24950521 114.98441233 72.03808594 122.14624023 C71.27196266 127.68148093 69.09464178 132.03499689 65.16308594 135.96655273 C60.26458441 138.01501701 55.95868139 138.14939617 50.72558594 137.40405273 C41.96178072 133.45174842 35.97914576 123.5379283 30.21508789 116.12133789 C26.46890512 111.31128256 22.6161535 106.59781376 18.72558594 101.90405273 C14.01231344 96.21280648 9.38105055 90.47079936 4.83886719 84.64233398 C1.35704078 80.18315279 -2.19718082 75.78695024 -5.77441406 71.40405273 C-11.27102479 64.66072108 -16.71927838 57.88511726 -22.03417969 50.99731445 C-23.22737204 49.46448507 -24.44575198 47.95136404 -25.66503906 46.43920898 C-31.86723342 38.48567557 -33.96092767 32.33917344 -32.77441406 22.27905273 C-31.6076154 16.45253891 -29.38752365 12.63524203 -25.27441406 8.40405273 C-24.79746094 7.91163086 -24.32050781 7.41920898 -23.82910156 6.91186523 C-16.81258085 0.43212752 -9.03777166 -0.03958749 0 0 Z " fill="#8C26A7" transform="translate(137.2744140625,51.595947265625)"/>
<path d="M0 0 C9.66813248 0.21017679 9.66813248 0.21017679 13.4375 3.1875 C17.7819573 7.95580679 19.72130817 12.13479702 19.47265625 18.578125 C17.99900689 26.1290556 12.31252149 32.00565858 7.25 37.48046875 C4.63635723 40.40720414 2.2174942 43.46489157 -0.1875 46.5625 C-4.22941709 51.76097055 -8.33401085 56.90037139 -12.5 62 C-16.59918111 67.01943007 -20.64410217 72.07379731 -24.625 77.1875 C-28.1059439 81.65682138 -31.6818305 86.01720497 -35.375 90.3125 C-40.12733715 95.84769491 -44.5507217 101.59538412 -48.94824219 107.41455078 C-53.4532087 113.34905439 -58.14822467 119.10510627 -62.90942383 124.83496094 C-66.50887005 129.17212586 -70.03953276 133.55128472 -73.5 138 C-78.15283607 143.97864419 -82.95324874 149.82576851 -87.78881836 155.65722656 C-92.07957637 160.84472873 -96.27002954 166.10089198 -100.36132812 171.44726562 C-103.02486134 174.89344841 -105.90056326 177.945968 -109 181 C-96.96076307 181.11583311 -84.92165864 181.20468486 -72.88197803 181.25906086 C-67.29147985 181.28515829 -61.7013628 181.32055972 -56.11108398 181.37719727 C-50.71645549 181.43151076 -45.32219366 181.46141943 -39.92731285 181.47438622 C-37.86877354 181.48362721 -35.81025438 181.50167281 -33.75187111 181.52865028 C-30.8690512 181.56493144 -27.98774768 181.56994569 -25.10473633 181.56762695 C-24.25309402 181.58560333 -23.40145172 181.60357971 -22.52400208 181.62210083 C-18.217351 181.58460224 -16.54594224 181.44161708 -13.08769226 178.64421082 C-12.39875381 177.77162125 -11.70981537 176.89903168 -11 176 C-10.17242187 175.05125 -9.34484375 174.1025 -8.4921875 173.125 C-7.61753486 172.08522758 -6.74522884 171.0434777 -5.875 170 C-4.90889345 168.85022741 -3.94274642 167.70048883 -2.9765625 166.55078125 C-2.24034668 165.67220459 -2.24034668 165.67220459 -1.48925781 164.77587891 C3.99308343 158.23841167 9.49575052 151.71572766 15.0625 145.25 C15.58972656 144.63640625 16.11695313 144.0228125 16.66015625 143.390625 C18.54870783 141.43049566 19.70723578 141.02451488 22.42578125 140.796875 C32.19009655 140.63832049 32.19009655 140.63832049 36 144 C40.14625367 148.44241465 42.435449 151.53828113 42.34277344 157.80371094 C41.2584557 164.75137647 34.76645579 170.93404915 30.375 176.125 C26.3363669 180.95255314 22.34018748 185.79476519 18.49853516 190.78100586 C10.13503915 201.62857613 2.51653408 210.86863299 -11.85077095 212.79782677 C-16.29824979 213.21619129 -20.76071635 213.16543456 -25.22436523 213.17700195 C-26.88911392 213.18685875 -26.88911392 213.18685875 -28.5874939 213.19691467 C-32.24452795 213.21655772 -35.90152121 213.22828734 -39.55859375 213.23828125 C-41.43710368 213.24439454 -41.43710368 213.24439454 -43.35356331 213.25063133 C-49.29519229 213.26930792 -55.23680842 213.28388601 -61.17845958 213.2922433 C-68.01556636 213.30202224 -74.85234998 213.32837554 -81.68934292 213.36874419 C-87.63042883 213.40260962 -93.571436 213.41439325 -99.51262093 213.41844749 C-102.03196474 213.42331482 -104.55130505 213.43493288 -107.07058525 213.45348549 C-110.59606587 213.47784427 -114.12070115 213.47691785 -117.64624023 213.4699707 C-119.19960335 213.48918579 -119.19960335 213.48918579 -120.78434753 213.50878906 C-128.37541602 213.45436417 -133.70400577 211.87745528 -139.4609375 206.8515625 C-146.04661017 199.19067797 -146.04661017 199.19067797 -147 194 C-147.14179688 193.26136719 -147.28359375 192.52273438 -147.4296875 191.76171875 C-148.53415581 184.51505421 -148.06225744 178.36401708 -143.75488281 172.22558594 C-140.54991222 168.02560115 -137.12622816 164.01427806 -133.69140625 160.00195312 C-131.21040989 157.06543896 -128.85363606 154.03880567 -126.5 151 C-122.02213373 145.2600704 -117.44475569 139.60622112 -112.84033203 133.9675293 C-109.2988864 129.62245197 -105.81829337 125.23561742 -102.375 120.8125 C-98.8940561 116.34317862 -95.3181695 111.98279503 -91.625 107.6875 C-87.46271283 102.83955466 -83.53978938 97.84718711 -79.6875 92.75 C-73.52353588 84.59626177 -67.07637272 76.70471399 -60.53808594 68.84960938 C-50.93809267 57.30523652 -41.56777601 45.57183775 -32.3125 33.75 C-28.33703911 28.67401174 -24.30258035 23.65263801 -20.203125 18.67578125 C-18.64447076 16.78273488 -17.09308847 14.8836901 -15.546875 12.98046875 C-14.74765625 11.99691406 -13.9484375 11.01335937 -13.125 10 C-12.40570313 9.113125 -11.68640625 8.22625 -10.9453125 7.3125 C-7.5871694 3.32049053 -7.5871694 3.32049053 -6 2 C-2.8125 1.8125 -2.8125 1.8125 0 2 C0 1.34 0 0.68 0 0 Z " fill="#8A23A6" transform="translate(252,234)"/>
<path d="M0 0 C0.32613281 0.48954163 0.65226562 0.97908325 0.98828125 1.48345947 C-0.66171875 2.14345947 -2.31171875 2.80345947 -4.01171875 3.48345947 C-4.01171875 2.82345947 -4.01171875 2.16345947 -4.01171875 1.48345947 C-14.76455537 1.59096683 -25.51732484 1.70360155 -36.2700386 1.82279873 C-41.26284846 1.8779841 -46.25566421 1.93139713 -51.24853516 1.98077393 C-56.0661096 2.0284821 -60.8836133 2.08082732 -65.70110321 2.13640022 C-67.53989655 2.15679451 -69.37870927 2.17551241 -71.21753693 2.19253349 C-73.79125475 2.21664225 -76.36483944 2.24668799 -78.93847656 2.27813721 C-80.08107185 2.2867704 -80.08107185 2.2867704 -81.24674988 2.295578 C-84.63318336 2.34267338 -87.77331954 2.42847833 -91.01171875 3.48345947 C-91.01171875 2.49345947 -91.01171875 1.50345947 -91.01171875 0.48345947 C-87.26314515 -0.76606506 -83.73237877 -0.71759397 -79.82421875 -0.76947021 C-78.98979248 -0.78418869 -78.15536621 -0.79890717 -77.2956543 -0.81407166 C-74.53439925 -0.86099157 -71.77310931 -0.90035141 -69.01171875 -0.93841553 C-68.06941406 -0.95227547 -67.12710938 -0.96613541 -66.15625 -0.98041534 C-61.1732373 -1.05363854 -56.1901856 -1.12120111 -51.20703125 -1.184021 C-46.05164311 -1.2500505 -40.89673573 -1.33465043 -35.74169922 -1.42359543 C-31.78364017 -1.48861124 -27.8254885 -1.54013394 -23.8671875 -1.58792877 C-21.96607115 -1.61321963 -20.06501555 -1.64359672 -18.1640625 -1.67910004 C-15.50907131 -1.72738891 -12.85452084 -1.75665684 -10.19921875 -1.78118896 C-9.4105542 -1.79975449 -8.62188965 -1.81832001 -7.80932617 -1.83744812 C-2.46528793 -1.85846509 -2.46528793 -1.85846509 0 0 Z " fill="#F0D3F8" transform="translate(261.01171875,113.51654052734375)"/>
<path d="M0 0 C2.475 0.99 2.475 0.99 5 2 C5 3.32 5 4.64 5 6 C5.30840599 8.15274948 5.30840599 8.15274948 6 10 C8.3937446 11.1968723 9.89504662 11.1376542 12.56838989 11.15821838 C13.53035278 11.1680072 14.49231567 11.17779602 15.48342896 11.18788147 C16.5422226 11.19363693 17.60101624 11.1993924 18.69189453 11.20532227 C20.36019318 11.22017166 20.36019318 11.22017166 22.06219482 11.23532104 C25.75237878 11.26700455 29.44257563 11.29172056 33.1328125 11.31640625 C35.6858657 11.33696986 38.23891545 11.35796617 40.79196167 11.37937927 C46.83383707 11.42900543 52.87573004 11.47425484 58.91765392 11.51740164 C65.79547277 11.56676067 72.67324364 11.62168374 79.55101609 11.67708123 C93.70063262 11.79092526 107.85029522 11.89775902 122 12 C122 12.33 122 12.66 122 13 C107.14409753 13.09358587 92.28821797 13.16404885 77.43208313 13.20724869 C70.53356043 13.22784344 63.63522127 13.25590444 56.73681641 13.30175781 C50.07783489 13.34599851 43.4190833 13.36914681 36.75994873 13.37950897 C34.22105918 13.38689229 31.6821799 13.40131015 29.14337158 13.42292023 C25.58363415 13.45201172 22.02468118 13.45595342 18.46484375 13.45410156 C16.89498466 13.47567322 16.89498466 13.47567322 15.29341125 13.49768066 C9.02597469 13.46246545 4.21186006 12.64555103 -1 9 C-3 6.75 -3 6.75 -4 5 C-3.360625 5.33 -2.72125 5.66 -2.0625 6 C-0.23205433 7.07271225 -0.23205433 7.07271225 1 7 C0.67 4.69 0.34 2.38 0 0 Z " fill="#9044A5" transform="translate(116,434)"/>
<path d="M0 0 C0 3.41099168 -0.49145406 6.63088314 -1 10 C-1.33 9.34 -1.66 8.68 -2 8 C-2.99 8 -3.98 8 -5 8 C-5.07605469 8.70640625 -5.15210938 9.4128125 -5.23046875 10.140625 C-6.20968867 13.77914773 -7.92008169 15.8524721 -10.3125 18.75 C-11.48232422 20.19632812 -11.48232422 20.19632812 -12.67578125 21.671875 C-14.92539323 23.92526784 -15.89809542 24.68768009 -19 25 C-17.44723191 21.48584063 -15.33432968 18.81419888 -12.875 15.875 C-8.52080178 10.63161382 -4.24486515 5.33210582 0 0 Z " fill="#AA68BA" transform="translate(164,337)"/>
<path d="M0 0 C0.33 0.66 0.66 1.32 1 2 C-0.97992637 5.88012416 -3.61521228 9.14681082 -6.375 12.5 C-7.12523437 13.4178125 -7.87546875 14.335625 -8.6484375 15.28125 C-10.98749816 17.98554605 -13.44105606 20.50435149 -16 23 C-16.66 22.67 -17.32 22.34 -18 22 C-6.23404255 6.85106383 -6.23404255 6.85106383 0 0 Z " fill="#A960B8" transform="translate(203,289)"/>
<path d="M0 0 C-1.46337206 4.46452493 -3.93656587 7.71643254 -6.9375 11.25 C-7.60168945 12.06210937 -7.60168945 12.06210937 -8.27929688 12.890625 C-10.47240541 15.50535946 -11.70155598 16.90051866 -15 18 C-12.69653935 13.00916859 -6.20127734 0 0 0 Z " fill="#EBCDF2" transform="translate(342,400)"/>
<path d="M0 0 C0 7.41041067 -7.24785346 13.8507 -12 19 C-12.99 18.67 -13.98 18.34 -15 18 C-14.25234375 17.11957031 -13.5046875 16.23914063 -12.734375 15.33203125 C-11.73954698 14.158885 -10.74475735 12.98570618 -9.75 11.8125 C-9.25886719 11.23435547 -8.76773438 10.65621094 -8.26171875 10.06054688 C-5.45420944 6.74768589 -2.69431092 3.4063788 0 0 Z " fill="#EFD0F7" transform="translate(212,396)"/>
<path d="M0 0 C0.33 0.66 0.66 1.32 1 2 C1.66 2 2.32 2 3 2 C2.67 2.99 2.34 3.98 2 5 C1.360625 5.103125 0.72125 5.20625 0.0625 5.3125 C-0.618125 5.539375 -1.29875 5.76625 -2 6 C-3.25 8.91666667 -3.25 8.91666667 -4 12 C-4.33 12.66 -4.66 13.32 -5 14 C-5.99 13.67 -6.98 13.34 -8 13 C-6.63589551 7.40717158 -3.84616474 4.08806189 0 0 Z " fill="#8F3BA4" transform="translate(211,279)"/>
<path d="M0 0 C2.475 0.99 2.475 0.99 5 2 C5 3.32 5 4.64 5 6 C5.36033527 8.97276601 5.73022752 9.77110214 8.0625 11.75 C8.701875 12.1625 9.34125 12.575 10 13 C4.99715458 12.52353853 1.96920685 11.06711438 -2 8 C-2.66 7.01 -3.32 6.02 -4 5 C-3.360625 5.33 -2.72125 5.66 -2.0625 6 C-0.23205433 7.07271225 -0.23205433 7.07271225 1 7 C0.67 4.69 0.34 2.38 0 0 Z " fill="#AD5FC3" transform="translate(116,434)"/>
<path d="M0 0 C1.5625 1.25 1.5625 1.25 3 3 C3 5.0625 3 5.0625 2 7 C0.35448038 7.71727778 -1.31422289 8.38325228 -3 9 C-3.99 10.485 -3.99 10.485 -5 12 C-5.99 11.67 -6.98 11.34 -8 11 C-7.21654285 9.82780457 -6.42297164 8.66236332 -5.625 7.5 C-5.18414062 6.8503125 -4.74328125 6.200625 -4.2890625 5.53125 C-3.86367188 5.0259375 -3.43828125 4.520625 -3 4 C-2.34 4 -1.68 4 -1 4 C-0.67 2.68 -0.34 1.36 0 0 Z " fill="#E6ABF3" transform="translate(395,268)"/>
<path d="M0 0 C0.33 0.99 0.66 1.98 1 3 C1.66 3 2.32 3 3 3 C2.75 4.875 2.75 4.875 2 7 C0 8.125 0 8.125 -2 9 C-2.33 9.66 -2.66 10.32 -3 11 C-4.32 10.67 -5.64 10.34 -7 10 C-5.33248852 6.05860922 -2.77289351 3.2107188 0 0 Z " fill="#9C49B2" transform="translate(226,260)"/>
<path d="M0 0 C0.66 0.33 1.32 0.66 2 1 C0.68 2.65 -0.64 4.3 -2 6 C-1.34 6.33 -0.68 6.66 0 7 C-1.7015625 7.8353125 -1.7015625 7.8353125 -3.4375 8.6875 C-6.55468831 10.4222876 -6.55468831 10.4222876 -7.9375 13.75 C-7.958125 14.4925 -7.97875 15.235 -8 16 C-8.66 16 -9.32 16 -10 16 C-9.5777503 10.76410369 -8.04304886 8.38289599 -4.4375 4.625 C-3.61121094 3.75101563 -2.78492187 2.87703125 -1.93359375 1.9765625 C-1.29550781 1.32429688 -0.65742187 0.67203125 0 0 Z " fill="#B477C4" transform="translate(116,56)"/>
<path d="M0 0 C8.81299886 -0.44811859 8.81299886 -0.44811859 13 3 C14.3125 5.1875 14.3125 5.1875 15 7 C9.25 5.125 9.25 5.125 7 4 C7 3.34 7 2.68 7 2 C4.69 2 2.38 2 0 2 C0 1.34 0 0.68 0 0 Z " fill="#83269D" transform="translate(275,375)"/>
<path d="M0 0 C1 2 1 2 0.375 4.25 C-1.63180594 8.26361188 -3.94942016 12.22410492 -8.3125 13.875 C-8.869375 13.91625 -9.42625 13.9575 -10 14 C-8.43632643 10.47761953 -6.30504111 7.72876006 -3.875 4.75 C-3.15054688 3.85796875 -2.42609375 2.9659375 -1.6796875 2.046875 C-0.84824219 1.03367187 -0.84824219 1.03367187 0 0 Z " fill="#9951AD" transform="translate(177,321)"/>
<path d="M0 0 C0 0.99 0 1.98 0 3 C-0.66 3.66 -1.32 4.32 -2 5 C-2.46290221 7.66242821 -2.46290221 7.66242821 -2.625 10.625 C-2.69976562 11.62789063 -2.77453125 12.63078125 -2.8515625 13.6640625 C-2.90054688 14.43492187 -2.94953125 15.20578125 -3 16 C-3.99 15.67 -4.98 15.34 -6 15 C-6.78734859 6.96904441 -6.78734859 6.96904441 -3.5625 3 C-2.716875 2.34 -1.87125 1.68 -1 1 C-0.67 0.67 -0.34 0.34 0 0 Z " fill="#E6C6EE" transform="translate(171,449)"/>
<path d="M0 0 C0.33 0 0.66 0 1 0 C1.4375 2.0625 1.4375 2.0625 1 5 C-1.07017366 7.62982691 -3.36690452 9.93284133 -6 12 C-6.66 12 -7.32 12 -8 12 C-7.41083216 8.36679834 -5.94481799 6.45533138 -3.5 3.75 C-2.8709375 3.04359375 -2.241875 2.3371875 -1.59375 1.609375 C-1.0678125 1.07828125 -0.541875 0.5471875 0 0 Z " fill="#872A9F" transform="translate(262,385)"/>
<path d="M0 0 C0.66 0.99 1.32 1.98 2 3 C0.56974806 4.65213589 -0.86945545 6.29652589 -2.3125 7.9375 C-3.11300781 8.85402344 -3.91351563 9.77054687 -4.73828125 10.71484375 C-7 13 -7 13 -10 14 C-8.43632643 10.47761953 -6.30504111 7.72876006 -3.875 4.75 C-3.15054688 3.85796875 -2.42609375 2.9659375 -1.6796875 2.046875 C-0.84824219 1.03367187 -0.84824219 1.03367187 0 0 Z " fill="#EECCF5" transform="translate(239,362)"/>
<path d="M0 0 C0.33 1.32 0.66 2.64 1 4 C0.01 4 -0.98 4 -2 4 C-2.020625 4.70125 -2.04125 5.4025 -2.0625 6.125 C-3.44979209 10.3793624 -6.51624172 12.35307139 -10 15 C-10 10.79452429 -7.63261876 8.83289639 -5 5.8125 C-4.52304687 5.25369141 -4.04609375 4.69488281 -3.5546875 4.11914062 C-2.37633794 2.74047164 -1.18901048 1.36948528 0 0 Z " fill="#F1D3F8" transform="translate(285,305)"/>
<path d="M0 0 C-1.56367357 3.52238047 -3.69495889 6.27123994 -6.125 9.25 C-6.84945312 10.14203125 -7.57390625 11.0340625 -8.3203125 11.953125 C-8.87460938 12.62859375 -9.42890625 13.3040625 -10 14 C-10.58203125 12.140625 -10.58203125 12.140625 -11 10 C-9.6875 7.75 -9.6875 7.75 -8 6 C-7.34 6 -6.68 6 -6 6 C-5.814375 4.7934375 -5.814375 4.7934375 -5.625 3.5625 C-5.41875 2.716875 -5.2125 1.87125 -5 1 C-3 0 -3 0 0 0 Z " fill="#A766B8" transform="translate(220,319)"/>
<path d="M0 0 C0.33 0.99 0.66 1.98 1 3 C0.21625 3.721875 -0.5675 4.44375 -1.375 5.1875 C-3.88576404 7.87760433 -4.70317426 9.66530524 -6 13 C-6.99 13.33 -7.98 13.66 -9 14 C-9.33 14.66 -9.66 15.32 -10 16 C-10.66 15.67 -11.32 15.34 -12 15 C-10.18829771 12.68687105 -8.37567861 10.37447123 -6.5625 8.0625 C-6.04623047 7.40314453 -5.52996094 6.74378906 -4.99804688 6.06445312 C-4.50498047 5.43603516 -4.01191406 4.80761719 -3.50390625 4.16015625 C-3.04830322 3.57886963 -2.5927002 2.99758301 -2.12329102 2.39868164 C-1 1 -1 1 0 0 Z " fill="#F1D4F8" transform="translate(273,320)"/>
<path d="M0 0 C0.99 0.33 1.98 0.66 3 1 C0.36 4.3 -2.28 7.6 -5 11 C-6 7 -6 7 -5 5 C-4.34 5 -3.68 5 -3 5 C-2.87625 4.360625 -2.7525 3.72125 -2.625 3.0625 C-2.41875 2.381875 -2.2125 1.70125 -2 1 C-1.34 0.67 -0.68 0.34 0 0 Z " fill="#EBCBF6" transform="translate(314,432)"/>
<path d="M0 0 C1.33332095 2.6666419 0.67102033 4.16680303 0 7 C-0.99 7 -1.98 7 -3 7 C-4.02104551 7.97850195 -5.0206121 8.97980427 -6 10 C-6.99 10.33 -7.98 10.66 -9 11 C-7.2034488 6.75360625 -4.18376817 2.09188408 0 0 Z " fill="#A45EB6" transform="translate(134,376)"/>
<path d="M0 0 C2 2 2 2 2.375 5.6875 C2.28948178 10.36534669 0.56138872 13.15791692 -2 17 C-2.66 17 -3.32 17 -4 17 C-4 16.34 -4 15.68 -4 15 C-3.34 15 -2.68 15 -2 15 C-2.0309375 13.7934375 -2.0309375 13.7934375 -2.0625 12.5625 C-2 10 -2 10 -1 9 C-0.76807135 7.48530552 -0.58784762 5.96245438 -0.4375 4.4375 C-0.35371094 3.61121094 -0.26992188 2.78492188 -0.18359375 1.93359375 C-0.12300781 1.29550781 -0.06242187 0.65742188 0 0 Z " fill="#913DAA" transform="translate(292,384)"/>
<path d="M0 0 C1.60520004 0.06023265 3.20934327 0.14908599 4.8125 0.25 C6.15248047 0.31960937 6.15248047 0.31960937 7.51953125 0.390625 C10 1 10 1 11.82421875 3.046875 C12.40623047 4.01367188 12.40623047 4.01367188 13 5 C9.625 5.125 9.625 5.125 6 5 C5.34 4.34 4.68 3.68 4 3 C1.93125966 2.3574765 1.93125966 2.3574765 0 2 C0 1.34 0 0.68 0 0 Z " fill="#9036A7" transform="translate(252,234)"/>
<path d="M0 0 C4.75 1.875 4.75 1.875 7 3 C7 3.66 7 4.32 7 5 C12.445 4.505 12.445 4.505 18 4 C15.41784328 6.58215672 14.27296873 6.29794465 10.6875 6.3125 C6.37733542 6.23331062 3.28897106 6.06214547 0 3 C0 2.01 0 1.02 0 0 Z " fill="#B778C6" transform="translate(183,183)"/>
<path d="M0 0 C4.67248931 2.82522609 7.65996398 5.67760044 11 10 C10.67 10.66 10.34 11.32 10 12 C6.40690966 10.80230322 5.57906747 9.5323211 3.3125 6.5625 C2.68988281 5.75941406 2.06726563 4.95632812 1.42578125 4.12890625 C0 2 0 2 0 0 Z " fill="#A967BA" transform="translate(272,79)"/>
<path d="M0 0 C0.66 0 1.32 0 2 0 C1.67566492 5.35152885 -1.49704824 8.28280043 -5 12 C-5.33 10.68 -5.66 9.36 -6 8 C-5.34 8 -4.68 8 -4 8 C-3.67 6.35 -3.34 4.7 -3 3 C-2.01 2.67 -1.02 2.34 0 2 C0 1.34 0 0.68 0 0 Z " fill="#A055B2" transform="translate(173,373)"/>
<path d="M0 0 C1.32 0.33 2.64 0.66 4 1 C1.03 3.64 -1.94 6.28 -5 9 C-5.66 8.67 -6.32 8.34 -7 8 C-4.69 5.36 -2.38 2.72 0 0 Z " fill="#8528A0" transform="translate(270,376)"/>
<path d="M0 0 C0.66 0.33 1.32 0.66 2 1 C-0.97 4.63 -3.94 8.26 -7 12 C-8 9 -8 9 -7 6 C-6.01 5.67 -5.02 5.34 -4 5 C-3.30062468 3.68352881 -2.63270867 2.34977849 -2 1 C-1.34 0.67 -0.68 0.34 0 0 Z " fill="#862B9F" transform="translate(368,300)"/>
<path d="M0 0 C0.71484375 1.703125 0.71484375 1.703125 1 4 C-0.43359375 6.359375 -0.43359375 6.359375 -2.4375 8.75 C-3.42556641 9.94882812 -3.42556641 9.94882812 -4.43359375 11.171875 C-5.20896484 12.07679688 -5.20896484 12.07679688 -6 13 C-6.33 11.68 -6.66 10.36 -7 9 C-6.01 9 -5.02 9 -4 9 C-4.0825 8.071875 -4.165 7.14375 -4.25 6.1875 C-4 3 -4 3 -2 1.125 C-1.34 0.75375 -0.68 0.3825 0 0 Z " fill="#A865BC" transform="translate(268,255)"/>
<path d="M0 0 C0.33 0.99 0.66 1.98 1 3 C-0.07421875 4.7890625 -0.07421875 4.7890625 -1.6875 6.625 C-2.20699219 7.23601562 -2.72648437 7.84703125 -3.26171875 8.4765625 C-5.181038 10.15866252 -6.50835704 10.59829721 -9 11 C-9 10.01 -9 9.02 -9 8 C-7.5390625 6.71875 -7.5390625 6.71875 -5.625 5.5 C-2.88542214 3.74125866 -1.88476668 2.82715002 0 0 Z " fill="#EAA7F7" transform="translate(332,347)"/>
<path d="M0 0 C0.33 0 0.66 0 1 0 C1 2.64 1 5.28 1 8 C-1.31 8.33 -3.62 8.66 -6 9 C-4.47300326 5.56425733 -2.44973747 2.84485642 0 0 Z " fill="#A058B2" transform="translate(218,270)"/>
<path d="M0 0 C0.33 0 0.66 0 1 0 C1.33 2.97 1.66 5.94 2 9 C2.66 8.67 3.32 8.34 4 8 C3.67 10.97 3.34 13.94 3 17 C0.25291371 12.87937057 -0.11949692 10.15723861 -0.0625 5.3125 C-0.05347656 4.31863281 -0.04445313 3.32476562 -0.03515625 2.30078125 C-0.02355469 1.54152344 -0.01195313 0.78226562 0 0 Z " fill="#7E259A" transform="translate(106,416)"/>
<path d="M0 0 C0.99 0.33 1.98 0.66 3 1 C0.69 3.97 -1.62 6.94 -4 10 C-4.66 9.67 -5.32 9.34 -6 9 C-4.68 6.69 -3.36 4.38 -2 2 C-1.34 2 -0.68 2 0 2 C0 1.34 0 0.68 0 0 Z " fill="#872B9F" transform="translate(386,276)"/>
<path d="M0 0 C1.17539996 0.92652701 2.34010577 1.86663387 3.5 2.8125 C4.1496875 3.33457031 4.799375 3.85664062 5.46875 4.39453125 C7 6 7 6 7 9 C6.01 8.34 5.02 7.68 4 7 C3.01 7.99 2.02 8.98 1 10 C1.33 8.02 1.66 6.04 2 4 C1.01 4.33 0.02 4.66 -1 5 C-0.67 3.35 -0.34 1.7 0 0 Z " fill="#AE66C1" transform="translate(259,62)"/>
<path d="M0 0 C0.66 1.32 1.32 2.64 2 4 C1.01 4 0.02 4 -1 4 C-1.33 5.65 -1.66 7.3 -2 9 C-3.65 9.33 -5.3 9.66 -7 10 C-5.33248852 6.05860922 -2.77289351 3.2107188 0 0 Z " fill="#AE6ABF" transform="translate(234,250)"/>
<path d="M0 0 C1.66666667 1.66666667 3.33333333 3.33333333 5 5 C5.8971875 5.8353125 5.8971875 5.8353125 6.8125 6.6875 C8 8 8 8 8 10 C7.01 10.33 6.02 10.66 5 11 C2.64046906 8.64046906 2.50858587 7.22104383 2 4 C1.34 4 0.68 4 0 4 C0 2.68 0 1.36 0 0 Z " fill="#AA6ABA" transform="translate(328,147)"/>
<path d="M0 0 C0.99 0 1.98 0 3 0 C3.6875 1.8125 3.6875 1.8125 4 4 C2.6875 5.75 2.6875 5.75 1 7 C0.34 7 -0.32 7 -1 7 C-1.625 5.1875 -1.625 5.1875 -2 3 C-1.34 2.01 -0.68 1.02 0 0 Z " fill="#994CAE" transform="translate(244,282)"/>
<path d="M0 0 C1.35439668 2.70879335 1.06501451 5.00933268 1 8 C0.401875 7.79375 -0.19625 7.5875 -0.8125 7.375 C-3.28450846 6.69328085 -3.28450846 6.69328085 -6 9 C-4.47291037 5.56404834 -2.40072955 2.88087546 0 0 Z " fill="#B273C2" transform="translate(184,312)"/>
<path d="M0 0 C0.33 0.66 0.66 1.32 1 2 C-0.65909182 6.10406925 -2.21704034 8.65195608 -6 11 C-6.66 10.67 -7.32 10.34 -8 10 C-5.36 6.7 -2.72 3.4 0 0 Z " fill="#923AAA" transform="translate(356,267)"/>
<path d="M0 0 C2.96404505 2.80804268 5.44499019 5.18315774 7 9 C4.69 8.01 2.38 7.02 0 6 C0 4.02 0 2.04 0 0 Z " fill="#B474C4" transform="translate(305,118)"/>
<path d="M0 0 C1.485 0.99 1.485 0.99 3 2 C3.99 2 4.98 2 6 2 C6.33 3.98 6.66 5.96 7 8 C4.50638429 6.79618552 2.31856917 5.54571278 0 4 C0 2.68 0 1.36 0 0 Z " fill="#80259B" transform="translate(112,435)"/>
<path d="M0 0 C1.32 0 2.64 0 4 0 C2.55746343 3.36591866 0.66735273 5.51047079 -2 8 C-2.125 5.125 -2.125 5.125 -2 2 C-1.34 1.34 -0.68 0.68 0 0 Z " fill="#A962BB" transform="translate(150,401)"/>
<path d="M0 0 C1.32 0.66 2.64 1.32 4 2 C2.55746343 5.36591866 0.66735273 7.51047079 -2 10 C-1.85950482 8.52031676 -1.71245174 7.04125484 -1.5625 5.5625 C-1.48128906 4.73878906 -1.40007812 3.91507812 -1.31640625 3.06640625 C-1 1 -1 1 0 0 Z " fill="#A661B9" transform="translate(179,363)"/>
<path d="M0 0 C0.33 0.66 0.66 1.32 1 2 C-0.33135812 5.86093856 -3.0880704 8.24132985 -6 11 C-6.66 10.67 -7.32 10.34 -8 10 C-5.36 6.7 -2.72 3.4 0 0 Z " fill="#BE85CC" transform="translate(193,301)"/>
<path d="M0 0 C0.66 0.33 1.32 0.66 2 1 C1.04956626 2.33897583 0.08940853 3.67105427 -0.875 5 C-1.40867188 5.7425 -1.94234375 6.485 -2.4921875 7.25 C-3.23855469 8.11625 -3.23855469 8.11625 -4 9 C-4.66 9 -5.32 9 -6 9 C-5.52797514 4.75177626 -3.03344482 2.80010291 0 0 Z " fill="#A262B3" transform="translate(246,236)"/>
<path d="M0 0 C2 2 2 2 2 5 C2.33 5.99 2.66 6.98 3 8 C0.0625 7.1875 0.0625 7.1875 -3 6 C-3.33 5.01 -3.66 4.02 -4 3 C-2.68 2.67 -1.36 2.34 0 2 C0 1.34 0 0.68 0 0 Z " fill="#86279D" transform="translate(142,81)"/>
<path d="M0 0 C0 3.58912412 -0.66436554 4.10857029 -3 6.6875 C-3.556875 7.31011719 -4.11375 7.93273437 -4.6875 8.57421875 C-5.120625 9.04472656 -5.55375 9.51523437 -6 10 C-6.33 8.68 -6.66 7.36 -7 6 C-6.01 6 -5.02 6 -4 6 C-3.896875 5.38125 -3.79375 4.7625 -3.6875 4.125 C-3 2 -3 2 0 0 Z " fill="#F1D5F6" transform="translate(418,305)"/>
<path d="M0 0 C0.99 0.33 1.98 0.66 3 1 C2.02471263 2.33617352 1.04466681 3.6688751 0.0625 5 C-0.48277344 5.7425 -1.02804688 6.485 -1.58984375 7.25 C-2.28787109 8.11625 -2.28787109 8.11625 -3 9 C-3.33 9 -3.66 9 -4 9 C-4 7.35 -4 5.7 -4 4 C-2.68 3.67 -1.36 3.34 0 3 C0 2.01 0 1.02 0 0 Z " fill="#AC6DBB" transform="translate(257,269)"/>
<path d="M0 0 C2.5 2.3125 2.5 2.3125 5 5 C5 5.99 5 6.98 5 8 C2.53199953 6.84826645 0.95216435 5.95216435 -1 4 C-1 1 -1 1 0 0 Z " fill="#B574C6" transform="translate(355,180)"/>
<path d="M0 0 C2.66666667 2.66666667 5.33333333 5.33333333 8 8 C7.67 8.66 7.34 9.32 7 10 C1.21538462 5.69230769 1.21538462 5.69230769 0.125 2.1875 C0.08375 1.465625 0.0425 0.74375 0 0 Z " fill="#BD83CA" transform="translate(312,127)"/>
<path d="M0 0 C0.33 0.99 0.66 1.98 1 3 C-0.40445835 5.2636564 -2.1967913 7.0208685 -4 9 C-5.125 5.25 -5.125 5.25 -4 3 C-3.01 3 -2.02 3 -1 3 C-0.67 2.01 -0.34 1.02 0 0 Z " fill="#E8A9F6" transform="translate(342,282)"/>
<path d="M0 0 C0.33 0.66 0.66 1.32 1 2 C1.66 2 2.32 2 3 2 C2.67 2.99 2.34 3.98 2 5 C-0.0625 5.6875 -0.0625 5.6875 -2 6 C-2 2 -2 2 0 0 Z " fill="#9944AD" transform="translate(211,279)"/>
<path d="M0 0 C0.2475 0.598125 0.495 1.19625 0.75 1.8125 C2.16370012 4.28647521 3.65055383 5.43370255 6 7 C5.67 7.99 5.34 8.98 5 10 C-0.73529412 4.70588235 -0.73529412 4.70588235 -1 1 C-0.67 0.67 -0.34 0.34 0 0 Z " fill="#8C31A3" transform="translate(329,194)"/>
<path d="M0 0 C2.5 2.25 2.5 2.25 5 5 C5 6.32 5 7.64 5 9 C4.34 9 3.68 9 3 9 C2.34 7.68 1.68 6.36 1 5 C0.67 5 0.34 5 0 5 C0 3.35 0 1.7 0 0 Z " fill="#EAA9F7" transform="translate(313,179)"/>
<path d="M0 0 C0.33 0.99 0.66 1.98 1 3 C-0.21484375 4.82421875 -0.21484375 4.82421875 -1.9375 6.6875 C-2.50339844 7.31011719 -3.06929688 7.93273437 -3.65234375 8.57421875 C-4.09707031 9.04472656 -4.54179687 9.51523437 -5 10 C-5.66 9.67 -6.32 9.34 -7 9 C-4.69 6.03 -2.38 3.06 0 0 Z " fill="#E7A1F5" transform="translate(269,425)"/>
<path d="M0 0 C1.32 0.66 2.64 1.32 4 2 C3.01 3.32 2.02 4.64 1 6 C-0.32 5.67 -1.64 5.34 -3 5 C-1.125 1.125 -1.125 1.125 0 0 Z " fill="#A350B7" transform="translate(222,265)"/>
<path d="M0 0 C1.9375 0.75 1.9375 0.75 4 2 C4.75 4.125 4.75 4.125 5 6 C3.68 6.33 2.36 6.66 1 7 C0.36152073 4.52589282 0 2.53730112 0 0 Z " fill="#812699" transform="translate(387,223)"/>
<path d="M0 0 C4.875 4.75 4.875 4.75 6 7 C3.69 6.34 1.38 5.68 -1 5 C-0.67 3.35 -0.34 1.7 0 0 Z " fill="#802499" transform="translate(316,134)"/>
<path d="M0 0 C0.66 0 1.32 0 2 0 C2 0.66 2 1.32 2 2 C2.99 2.33 3.98 2.66 5 3 C5 4.65 5 6.3 5 8 C2.20127563 5.47211993 0.54226981 3.79588866 0 0 Z " fill="#8D32A5" transform="translate(303,345)"/>
<path d="M0 0 C0.66 0.99 1.32 1.98 2 3 C0.35 4.65 -1.3 6.3 -3 8 C-2.45276317 4.62537285 -1.9451 2.91765 0 0 Z " fill="#EFCFF5" transform="translate(390,337)"/>
<path d="M0 0 C0.99 0.33 1.98 0.66 3 1 C0.525 4.465 0.525 4.465 -2 8 C-2.33 7.34 -2.66 6.68 -3 6 C-1.44444444 1.44444444 -1.44444444 1.44444444 0 0 Z " fill="#9A55AD" transform="translate(196,297)"/>
<path d="M0 0 C2.4375 0.75 2.4375 0.75 5 2 C5.6875 4.0625 5.6875 4.0625 6 6 C6.66 6.33 7.32 6.66 8 7 C7.01 7 6.02 7 5 7 C3.61328125 5.46875 3.61328125 5.46875 2.3125 3.5 C1.87550781 2.8503125 1.43851563 2.200625 0.98828125 1.53125 C0.49908203 0.77328125 0.49908203 0.77328125 0 0 Z " fill="#A562B5" transform="translate(238,86)"/>
<path d="M0 0 C0 3 0 3 -2 5.1875 C-2.66 5.785625 -3.32 6.38375 -4 7 C-4.33 6.01 -4.66 5.02 -5 4 C-3 1 -3 1 0 0 Z " fill="#EED1F5" transform="translate(373,361)"/>
<path d="M0 0 C0.33 1.32 0.66 2.64 1 4 C-0.98 4.66 -2.96 5.32 -5 6 C-3.63016497 2.83884224 -3.0109362 2.0072908 0 0 Z " fill="#ECCCF3" transform="translate(255,344)"/>
<path d="M0 0 C-0.5590888 3.24271506 -1.4132178 4.93057424 -4 7 C-4.66 7 -5.32 7 -6 7 C-5.37162381 3.35541809 -4.14650034 0 0 0 Z " fill="#82279B" transform="translate(335,342)"/>
<path d="M0 0 C1 2 1 2 0.3125 4.5625 C-1 7 -1 7 -3.125 7.8125 C-3.74375 7.874375 -4.3625 7.93625 -5 8 C-3.62845496 5.04590299 -2.01136276 2.55991624 0 0 Z " fill="#AC6CBD" transform="translate(172,327)"/>
<path d="M0 0 C0 3 0 3 -2.5 5.6875 C-3.325 6.450625 -4.15 7.21375 -5 8 C-5.33 6.35 -5.66 4.7 -6 3 C-4.02 2.01 -2.04 1.02 0 0 Z " fill="#F2D7F8" transform="translate(402,325)"/>
<path d="M0 0 C1.8125 0.1875 1.8125 0.1875 4 1 C5.75 3.5625 5.75 3.5625 7 6 C5.1875 5.8125 5.1875 5.8125 3 5 C1.25 2.4375 1.25 2.4375 0 0 Z " fill="#E9A5F7" transform="translate(304,170)"/>
<path d="M0 0 C2.4375 0.8125 2.4375 0.8125 5 2 C5.33 2.99 5.66 3.98 6 5 C6.66 5.66 7.32 6.32 8 7 C7.01 7 6.02 7 5 7 C3.61328125 5.46875 3.61328125 5.46875 2.3125 3.5 C1.87550781 2.8503125 1.43851563 2.200625 0.98828125 1.53125 C0.49908203 0.77328125 0.49908203 0.77328125 0 0 Z " fill="#AF6BBF" transform="translate(246,96)"/>
<path d="M0 0 C0.99 0.33 1.98 0.66 3 1 C1.35 2.98 -0.3 4.96 -2 7 C-2.6875 5.1875 -2.6875 5.1875 -3 3 C-1.5625 1.25 -1.5625 1.25 0 0 Z " fill="#842B9E" transform="translate(284,403)"/>
<path d="M0 0 C0 0.66 0 1.32 0 2 C-3.465 3.485 -3.465 3.485 -7 5 C-7 4.01 -7 3.02 -7 2 C-4.35261084 0.5393715 -3.10551666 0 0 0 Z " fill="#EFAEFC" transform="translate(275,373)"/>
<path d="M0 0 C0.33 1.32 0.66 2.64 1 4 C-0.65 5.32 -2.3 6.64 -4 8 C-4 4.09161134 -2.49432124 2.88405893 0 0 Z " fill="#F2D8F7" transform="translate(234,368)"/>
<path d="M0 0 C0.33 0 0.66 0 1 0 C1.1875 3.375 1.1875 3.375 1 7 C0.01 7.66 -0.98 8.32 -2 9 C-1.125 2.25 -1.125 2.25 0 0 Z " fill="#E7C6EF" transform="translate(422,293)"/>
<path d="M0 0 C0.99 0.33 1.98 0.66 3 1 C3.33 2.98 3.66 4.96 4 7 C2 5.75 2 5.75 0 4 C0 2.68 0 1.36 0 0 Z " fill="#EDD1F3" transform="translate(272,259)"/>
<path d="M0 0 C2 2 2 2 2 6 C0.0625 5.6875 0.0625 5.6875 -2 5 C-2.33 4.01 -2.66 3.02 -3 2 C-2.01 2 -1.02 2 0 2 C0 1.34 0 0.68 0 0 Z " fill="#86299E" transform="translate(124,105)"/>
</svg>
