<svg width="25" height="24" viewBox="0 0 25 24" fill="none" xmlns="http://www.w3.org/2000/svg">
<path d="M22.3719 0.90564H2.63001C1.95381 0.90564 1.40564 1.45381 1.40564 2.13001V21.8719C1.40564 22.5481 1.95381 23.0963 2.63001 23.0963H22.3719C23.0481 23.0963 23.5963 22.5481 23.5963 21.8719V2.13001C23.5963 1.45381 23.0481 0.90564 22.3719 0.90564Z" fill="#3D5A98"/>
<path d="M16.715 23.0943V14.5012H19.5988L20.03 11.1524H16.715V9.01494C16.715 8.04557 16.985 7.38369 18.3744 7.38369H20.1481V4.38369C19.2892 4.29418 18.4261 4.25161 17.5625 4.25619C15.0088 4.25619 13.25 5.81244 13.25 8.68307V11.1524H10.3663V14.5012H13.25V23.0943H16.715Z" fill="white"/>
</svg>
