<svg width="25" height="24" viewBox="0 0 25 24" fill="none" xmlns="http://www.w3.org/2000/svg">
<g clip-path="url(#clip0_2175_21943)">
<path d="M1.10125 11.8564C1.10069 13.8729 1.62757 15.8418 2.62943 17.5773L1.00543 23.5067L7.07353 21.9157C8.75188 22.8294 10.6324 23.3081 12.5433 23.3082H12.5483C18.8567 23.3082 23.9918 18.1749 23.9945 11.8654C23.9958 8.80804 22.8062 5.93307 20.6449 3.77009C18.4839 1.6073 15.61 0.41558 12.5479 0.414185C6.23874 0.414185 1.10394 5.54721 1.10134 11.8564" fill="url(#paint0_linear_2175_21943)"/>
<path d="M0.692614 11.8527C0.691962 13.9417 1.23773 15.981 2.27531 17.7786L0.593079 23.9207L6.87875 22.2726C8.61066 23.2168 10.5606 23.7147 12.5448 23.7154H12.5499C19.0846 23.7154 24.4042 18.3975 24.407 11.8621C24.4081 8.69488 23.1758 5.71656 20.9373 3.47609C18.6985 1.23591 15.7217 0.00130233 12.5499 0C6.0141 0 0.695218 5.31721 0.692614 11.8527ZM4.43596 17.469L4.20126 17.0965C3.21466 15.5277 2.69392 13.7149 2.69466 11.8534C2.69671 6.4213 7.11754 2.00186 12.5536 2.00186C15.1862 2.00298 17.6602 3.02921 19.5211 4.89116C21.3818 6.7533 22.4057 9.22865 22.4051 11.8614C22.4027 17.2935 17.9817 21.7135 12.5499 21.7135H12.546C10.7774 21.7126 9.04275 21.2376 7.53001 20.34L7.17001 20.1265L3.43996 21.1045L4.43596 17.469Z" fill="url(#paint1_linear_2175_21943)"/>
<path d="M9.58636 6.89746C9.36441 6.40416 9.13082 6.39421 8.91975 6.38556C8.74692 6.37811 8.54934 6.37867 8.35194 6.37867C8.15436 6.37867 7.83334 6.453 7.56199 6.74928C7.29036 7.04583 6.52496 7.76249 6.52496 9.22007C6.52496 10.6777 7.58664 12.0864 7.73464 12.2843C7.88282 12.4817 9.78422 15.5686 12.7956 16.7562C15.2983 17.743 15.8076 17.5468 16.3507 17.4973C16.894 17.448 18.1037 16.7808 18.3505 16.089C18.5974 15.3973 18.5974 14.8043 18.5234 14.6804C18.4493 14.557 18.2518 14.4829 17.9555 14.3348C17.6591 14.1866 16.2025 13.4698 15.931 13.371C15.6594 13.2722 15.4619 13.2229 15.2643 13.5195C15.0667 13.8157 14.4994 14.4829 14.3265 14.6804C14.1537 14.8785 13.9808 14.9031 13.6846 14.755C13.3881 14.6063 12.434 14.2938 11.302 13.2846C10.4212 12.4993 9.82664 11.5296 9.6538 11.2329C9.48096 10.9367 9.63529 10.7762 9.78385 10.6285C9.91696 10.4958 10.0802 10.2826 10.2285 10.1096C10.3762 9.93663 10.4255 9.81318 10.5243 9.6156C10.6232 9.41783 10.5737 9.24481 10.4998 9.09663C10.4255 8.94844 9.8498 7.48323 9.58636 6.89746Z" fill="white"/>
</g>
<defs>
<linearGradient id="paint0_linear_2175_21943" x1="1150.46" y1="2309.67" x2="1150.46" y2="0.414185" gradientUnits="userSpaceOnUse">
<stop stop-color="#1FAF38"/>
<stop offset="1" stop-color="#60D669"/>
</linearGradient>
<linearGradient id="paint1_linear_2175_21943" x1="1191.29" y1="2392.07" x2="1191.29" y2="0" gradientUnits="userSpaceOnUse">
<stop stop-color="#F9F9F9"/>
<stop offset="1" stop-color="white"/>
</linearGradient>
<clipPath id="clip0_2175_21943">
<rect width="23.815" height="24" fill="white" transform="translate(0.592529)"/>
</clipPath>
</defs>
</svg>
