<svg width="115" height="32" viewBox="0 0 115 32" fill="none" xmlns="http://www.w3.org/2000/svg">
<rect x="0.571847" y="0.285714" width="113.714" height="31.4286" rx="4.28572" fill="#070707"/>
<rect x="0.571847" y="0.285714" width="113.714" height="31.4286" rx="4.28572" stroke="#E9E9E9" stroke-width="0.571429"/>
<path d="M25.1163 16.6325C25.0946 14.0397 27.2425 12.7759 27.3425 12.7194C26.125 10.9475 24.238 10.7042 23.5727 10.6869C21.9856 10.5219 20.4507 11.6337 19.642 11.6337C18.8202 11.6337 17.5766 10.7042 16.233 10.7303C14.5068 10.7564 12.8936 11.7553 12.011 13.3014C10.1848 16.4588 11.5457 21.0971 13.298 23.6509C14.172 24.9017 15.1938 26.2958 16.5331 26.248C17.8418 26.1959 18.3332 25.4141 19.9116 25.4141C21.4769 25.4141 21.9378 26.248 23.3031 26.2176C24.7076 26.1959 25.5946 24.9624 26.4381 23.703C27.4512 22.2698 27.8556 20.8583 27.873 20.7888C27.8382 20.7671 25.1424 19.7378 25.1163 16.6325ZM22.5378 9.00612C23.2422 8.1245 23.7249 6.93017 23.5901 5.71411C22.5726 5.75752 21.2942 6.41766 20.5638 7.27761C19.9159 8.03763 19.3332 9.27972 19.4855 10.448C20.6247 10.5305 21.803 9.87038 22.5378 9.00612Z" fill="white"/>
<path d="M38.945 10.2461C38.4682 10.2461 38.0564 10.2241 37.7139 10.1843V4.92016C38.1951 4.84514 38.6806 4.80541 39.1661 4.80984C41.1297 4.80984 42.0357 5.79383 42.0357 7.39559C42.0314 9.24445 40.965 10.2461 38.945 10.2461ZM39.2354 5.48497C38.971 5.48497 38.7456 5.50262 38.5592 5.5423V9.54013C38.6589 9.55778 38.854 9.56216 39.127 9.56216C40.4145 9.56216 41.1471 8.81646 41.1471 7.42209C41.1427 6.17334 40.4795 5.48497 39.2354 5.48497ZM44.8533 10.2858C43.7479 10.2858 43.0283 9.44303 43.0283 8.30018C43.0283 7.10876 43.7609 6.26159 44.914 6.26159C46.0064 6.26159 46.7391 7.06466 46.7391 8.23838C46.7391 9.44303 45.9847 10.2858 44.8533 10.2858ZM44.8836 6.88815C44.2768 6.88815 43.8867 7.46619 43.8867 8.27811C43.8867 9.07237 44.2855 9.65041 44.875 9.65041C45.4689 9.65041 45.8633 9.03265 45.8633 8.26046C45.8676 7.47504 45.4775 6.88815 44.8836 6.88815ZM53.0504 6.34099L51.867 10.1976H51.0954L50.6056 8.52521C50.4841 8.11483 50.3803 7.70007 50.3023 7.28088H50.285C50.2242 7.70007 50.1069 8.12368 49.9812 8.52521L49.461 10.1976H48.681L47.5668 6.34099H48.4338L48.8628 8.1722C48.9628 8.60904 49.0493 9.01942 49.1189 9.41215H49.1362C49.197 9.0856 49.3007 8.68406 49.4484 8.18105L49.9859 6.34099H50.6706L51.1866 8.14133C51.3123 8.57816 51.4118 9.00619 51.4899 9.41215H51.5114C51.5679 9.015 51.6502 8.59581 51.7675 8.14133L52.2269 6.34099H53.0504ZM57.4156 10.1976H56.5748V7.98247C56.5748 7.29854 56.3187 6.95875 55.8116 6.95875C55.3134 6.95875 54.9708 7.39559 54.9708 7.90302V10.1976H54.13V7.44412C54.13 7.10438 54.1211 6.73815 54.0996 6.34099H54.8409L54.8797 6.93668H54.9012C55.1269 6.52634 55.5863 6.26159 56.1023 6.26159C56.8954 6.26159 57.4198 6.87935 57.4198 7.8898L57.4156 10.1976ZM59.7347 10.1976H58.8939V4.57153H59.7347V10.1976ZM62.8081 10.2858C61.7028 10.2858 60.983 9.44303 60.983 8.30018C60.983 7.10876 61.7159 6.26159 62.8689 6.26159C63.9611 6.26159 64.6939 7.06466 64.6939 8.23838C64.6939 9.44303 63.9354 10.2858 62.8081 10.2858ZM62.8385 6.88815C62.2314 6.88815 61.8416 7.46619 61.8416 8.27811C61.8416 9.07237 62.2402 9.65041 62.8296 9.65041C63.4236 9.65041 63.8181 9.03265 63.8181 8.26046C63.8181 7.47504 63.4325 6.88815 62.8385 6.88815ZM68.0141 10.1976L67.9533 9.75189H67.9318C67.6762 10.1093 67.299 10.2814 66.8223 10.2814C66.1414 10.2814 65.6604 9.79603 65.6604 9.1474C65.6604 8.19428 66.4708 7.70449 67.8753 7.70449V7.63389C67.8753 7.12641 67.6112 6.8705 67.091 6.8705C66.7181 6.8705 66.3886 6.9676 66.1026 7.15733L65.9334 6.59252C66.2848 6.37187 66.7223 6.25717 67.2341 6.25717C68.2221 6.25717 68.725 6.78667 68.725 7.85007V9.27095C68.725 9.65926 68.7422 9.96369 68.7815 10.1931L68.0141 10.1976ZM67.8972 8.27811C66.9606 8.27811 66.4928 8.50756 66.4928 9.05472C66.4928 9.46068 66.7354 9.65926 67.0691 9.65926C67.4986 9.65926 67.8972 9.32828 67.8972 8.87379V8.27811ZM72.8041 10.1976L72.7653 9.57981H72.7434C72.5008 10.0476 72.0933 10.2858 71.5254 10.2858C70.6108 10.2858 69.9345 9.46953 69.9345 8.31783C69.9345 7.11318 70.637 6.26159 71.5946 6.26159C72.1021 6.26159 72.4616 6.43367 72.6611 6.78668H72.6784V4.57153H73.5192V9.1562C73.5192 9.52686 73.5281 9.87986 73.5496 10.1931H72.8041V10.1976ZM72.6826 7.92952C72.6826 7.39116 72.3316 6.92788 71.7942 6.92788C71.1698 6.92788 70.7884 7.49269 70.7884 8.28253C70.7884 9.05914 71.1828 9.59308 71.7769 9.59308C72.3055 9.59308 72.6826 9.12532 72.6826 8.56936V7.92952ZM78.8687 10.2858C77.7634 10.2858 77.0436 9.44303 77.0436 8.30018C77.0436 7.10876 77.776 6.26159 78.9294 6.26159C80.0217 6.26159 80.754 7.06466 80.754 8.23838C80.754 9.44303 80.0002 10.2858 78.8687 10.2858ZM78.8991 6.88815C78.292 6.88815 77.9017 7.46619 77.9017 8.27811C77.9017 9.07237 78.3008 9.65041 78.8902 9.65041C79.4842 9.65041 79.8787 9.03265 79.8787 8.26046C79.8829 7.47504 79.4926 6.88815 78.8991 6.88815ZM85.2842 10.1976H84.443V7.98247C84.443 7.29854 84.1873 6.95875 83.6802 6.95875C83.1815 6.95875 82.8394 7.39559 82.8394 7.90302V10.1976H81.9982V7.44412C81.9982 7.10438 81.9897 6.73815 81.9678 6.34099H82.709L82.7483 6.93668H82.7698C82.9955 6.52634 83.4549 6.26159 83.9705 6.26159C84.764 6.26159 85.2884 6.87935 85.2884 7.8898V10.1976H85.2842ZM90.9454 6.98521H90.0177V8.85614C90.0177 9.3327 90.178 9.571 90.5075 9.571C90.6547 9.571 90.7805 9.55335 90.8805 9.53128L90.902 10.1799C90.7374 10.2417 90.5206 10.277 90.2477 10.277C89.584 10.277 89.1853 9.90636 89.1853 8.92674V6.98083H88.6306V6.33657H89.1853V5.63055L90.0135 5.37465V6.33657H90.9412L90.9454 6.98521ZM95.406 10.1976H94.5647V8.00012C94.5647 7.31176 94.3091 6.96318 93.802 6.96318C93.3641 6.96318 92.9612 7.26323 92.9612 7.87657V10.202H92.1199V4.57153H92.9612V6.88815H92.9785C93.243 6.46897 93.6286 6.26159 94.1184 6.26159C94.9204 6.26159 95.4102 6.89695 95.4102 7.90302L95.406 10.1976ZM99.9703 8.47668H97.4432C97.4605 9.20477 97.933 9.61953 98.6355 9.61953C99.008 9.61953 99.3548 9.55778 99.6581 9.4386L99.7885 10.0343C99.4286 10.1931 99.008 10.2726 98.5182 10.2726C97.3348 10.2726 96.6328 9.50921 96.6328 8.33106C96.6328 7.14848 97.3521 6.26159 98.4228 6.26159C99.3894 6.26159 99.9964 6.98963 99.9964 8.0928C100.005 8.21635 99.9964 8.34871 99.9703 8.47668ZM99.1987 7.86335C99.1987 7.26761 98.9042 6.84843 98.3667 6.84843C97.8811 6.84843 97.4998 7.27646 97.4474 7.86335H99.1987Z" fill="white"/>
<path d="M45.8789 24.3607H44.0556L43.0551 21.2799H39.5859L38.6331 24.3607H36.8574L40.2962 13.8675H42.4184L45.8789 24.3607ZM42.7563 19.9864L41.8511 17.2461C41.7558 16.9652 41.5739 16.3057 41.314 15.2674H41.2837C41.1798 15.7143 41.0065 16.3738 40.777 17.2461L39.8891 19.9864H42.7563ZM54.7057 20.4842C54.7057 21.7693 54.3504 22.7863 53.6401 23.5352C53.0032 24.199 52.2108 24.5309 51.2666 24.5309C50.2444 24.5309 49.5127 24.1734 49.0668 23.4586V27.4286H47.3558V19.28C47.3558 18.4716 47.3343 17.6418 47.2909 16.795H48.7978L48.8935 17.995H48.9234C49.4954 17.0929 50.3616 16.6376 51.522 16.6376C52.4316 16.6376 53.1895 16.9908 53.7961 17.6971C54.4022 18.4035 54.7057 19.3354 54.7057 20.4842ZM52.9644 20.5481C52.9644 19.8119 52.7954 19.2035 52.4578 18.7269C52.0894 18.229 51.5916 17.9822 50.9677 17.9822C50.5479 17.9822 50.1622 18.1226 49.82 18.395C49.4781 18.6716 49.2526 19.0333 49.1489 19.4758C49.1013 19.6417 49.0752 19.8162 49.071 19.9864V21.2502C49.071 21.7991 49.2442 22.2629 49.5865 22.6459C49.9283 23.0246 50.3747 23.216 50.9243 23.216C51.5696 23.216 52.0721 22.9692 52.4316 22.4842C52.7823 21.9906 52.9644 21.348 52.9644 20.5481ZM63.5667 20.4842C63.5667 21.7693 63.2118 22.7863 62.5011 23.5352C61.8646 24.199 61.0722 24.5309 60.128 24.5309C59.1059 24.5309 58.3737 24.1734 57.9277 23.4586V27.4286H56.2168V19.28C56.2168 18.4716 56.1953 17.6418 56.1519 16.795H57.6592L57.7545 17.995H57.7848C58.3564 17.0929 59.2226 16.6376 60.3835 16.6376C61.2931 16.6376 62.0509 16.9908 62.6571 17.6971C63.2594 18.4035 63.5667 19.3354 63.5667 20.4842ZM61.8212 20.5481C61.8212 19.8119 61.6526 19.2035 61.3146 18.7269C60.9466 18.229 60.4484 17.9822 59.825 17.9822C59.4047 17.9822 59.019 18.1226 58.6725 18.395C58.3307 18.6716 58.1052 19.0333 58.0015 19.4758C57.9492 19.6843 57.9193 19.8545 57.9193 19.9864V21.2502C57.9193 21.7991 58.0926 22.2629 58.4344 22.6459C58.7767 23.0246 59.2226 23.216 59.7773 23.216C60.4222 23.216 60.9247 22.9692 61.2842 22.4842C61.6438 21.9906 61.8212 21.348 61.8212 20.5481ZM73.4718 21.4204C73.4718 22.314 73.1557 23.0416 72.5234 23.599C71.8304 24.2117 70.8559 24.5181 69.6129 24.5181C68.4651 24.5181 67.5428 24.3011 66.8452 23.8628L67.2393 22.4629C67.9888 22.9012 68.8158 23.1182 69.7123 23.1182C70.3576 23.1182 70.8601 22.9735 71.2196 22.6884C71.5792 22.4033 71.7608 22.0204 71.7608 21.5438C71.7608 21.1183 71.6096 20.7608 71.3149 20.4672C71.0203 20.1779 70.5309 19.9055 69.8426 19.6588C67.9715 18.9737 67.0357 17.9695 67.0357 16.6547C67.0357 15.7951 67.3649 15.0888 68.0275 14.5398C68.6859 13.9909 69.561 13.7144 70.6523 13.7144C71.6226 13.7144 72.4323 13.8803 73.0777 14.2122L72.649 15.5824C72.0424 15.259 71.3625 15.1015 70.5958 15.1015C69.9939 15.1015 69.5176 15.2462 69.1795 15.5355C68.8937 15.7951 68.7508 16.11 68.7508 16.4844C68.7508 16.8972 68.9157 17.2418 69.2449 17.5099C69.5307 17.7567 70.0457 18.0291 70.7952 18.3184C71.7132 18.6843 72.3889 19.1056 72.8222 19.5949C73.2551 20.0843 73.4718 20.6928 73.4718 21.4204ZM79.1453 18.0588H77.2569V21.731C77.2569 22.6671 77.5903 23.1309 78.2576 23.1309C78.5649 23.1309 78.8161 23.1054 79.0197 23.0543L79.0673 24.3309C78.7297 24.4543 78.288 24.5181 77.7379 24.5181C77.0622 24.5181 76.5336 24.3139 76.1526 23.9096C75.7715 23.5054 75.581 22.8245 75.581 21.8714V18.0588H74.4594V16.7993H75.581V15.4121L77.2616 14.9143V16.7993H79.1495L79.1453 18.0588ZM87.6383 20.5183C87.6383 21.6799 87.3007 22.6374 86.625 23.382C85.919 24.1522 84.9795 24.5351 83.8055 24.5351C82.675 24.5351 81.7743 24.165 81.1028 23.4331C80.4318 22.6969 80.0984 21.7651 80.0984 20.646C80.0984 19.4715 80.4448 18.5141 81.1378 17.7652C81.8308 17.0163 82.7619 16.6461 83.9353 16.6461C85.0658 16.6461 85.9755 17.0163 86.6596 17.7525C87.3091 18.4631 87.6383 19.3864 87.6383 20.5183ZM85.8629 20.5566C85.8629 19.863 85.7112 19.2673 85.4035 18.7737C85.0444 18.1737 84.5331 17.8716 83.8662 17.8716C83.1817 17.8716 82.6535 18.1737 82.2982 18.7737C81.9909 19.2715 81.8392 19.8758 81.8392 20.5906C81.8392 21.2842 81.9909 21.8799 82.2982 22.3778C82.6666 22.9777 83.1863 23.2799 83.8532 23.2799C84.5074 23.2799 85.0182 22.9735 85.3909 22.365C85.707 21.8502 85.8629 21.2502 85.8629 20.5566ZM93.204 18.2758C93.0261 18.2461 92.8444 18.229 92.6623 18.229C92.0604 18.229 91.5972 18.4503 91.268 18.8971C90.9822 19.2928 90.8393 19.7907 90.8393 20.3906V24.3607H89.1284V19.1779C89.1284 18.3822 89.1153 17.5907 89.0807 16.795H90.5708L90.631 18.2418H90.6787C90.8608 17.7439 91.1424 17.344 91.5365 17.0419C91.8914 16.778 92.3289 16.6376 92.7748 16.6376C92.9355 16.6376 93.0737 16.6504 93.204 16.6674V18.2758ZM100.857 20.2204C100.861 20.4758 100.839 20.7311 100.796 20.9821H95.6597C95.677 21.731 95.9282 22.3012 96.4045 22.6969C96.8374 23.0501 97.3963 23.2246 98.0851 23.2246C98.8471 23.2246 99.5401 23.1054 100.164 22.8671L100.432 24.033C99.7045 24.3436 98.8429 24.5011 97.8511 24.5011C96.6557 24.5011 95.7199 24.1564 95.0358 23.4671C94.356 22.7778 94.0137 21.8502 94.0137 20.6885C94.0137 19.5481 94.3298 18.5992 94.9667 17.8418C95.6293 17.0333 96.5301 16.6291 97.6606 16.6291C98.7692 16.6291 99.6092 17.0333 100.181 17.8418C100.627 18.4843 100.857 19.2758 100.857 20.2204ZM99.224 19.7864C99.237 19.2886 99.1245 18.8588 98.8906 18.4928C98.5959 18.0248 98.1369 17.7908 97.5261 17.7908C96.9676 17.7908 96.5128 18.0205 96.1617 18.4758C95.8759 18.8375 95.7073 19.2758 95.655 19.7822L99.224 19.7864Z" fill="white"/>
</svg>
