<svg width="115" height="32" viewBox="0 0 115 32" fill="none" xmlns="http://www.w3.org/2000/svg">
<rect x="0.285714" y="0.285714" width="113.714" height="31.4286" rx="4.28572" fill="#070707"/>
<rect x="0.285714" y="0.285714" width="113.714" height="31.4286" rx="4.28572" stroke="#E9E9E9" stroke-width="0.571429"/>
<path d="M10.1993 26.358C9.8763 26.1967 9.71484 25.7935 9.71484 25.3903C9.71484 25.3096 9.71484 25.1483 9.71484 25.0677C9.71484 19.1001 9.71484 13.1324 9.71484 7.24542C9.71484 6.92284 9.79557 6.68094 9.8763 6.35836C9.95708 6.19705 10.1185 6.03578 10.28 5.87451C13.7518 9.34217 17.1428 12.8098 20.5338 16.2775C17.062 19.5032 13.671 22.8903 10.1993 26.358Z" fill="#01DCFF"/>
<path d="M23.9237 12.7303C22.9548 13.6981 21.9052 14.6658 20.9364 15.7142C17.7068 12.4078 14.3965 9.10138 11.167 5.79499C11.167 5.79499 11.167 5.71436 11.2477 5.71436C15.4461 8.053 19.6445 10.3917 23.9237 12.7303Z" fill="#01F076"/>
<path d="M11.167 26.3584C14.3965 23.1326 17.7068 19.9069 20.9364 16.6812C21.8245 17.5682 22.7933 18.4553 23.843 19.423C19.6445 21.7617 15.4461 24.1004 11.2477 26.3584H11.167Z" fill="#FF3A44"/>
<path d="M24.4089 19.1015C23.3593 18.1338 22.3904 17.166 21.3408 16.1983C22.3904 15.15 23.44 14.1016 24.4896 13.0532C24.8126 13.2145 25.1355 13.3758 25.4585 13.6177C26.2658 14.1016 27.154 14.5048 27.9614 14.9887C28.2036 15.0693 28.3651 15.2306 28.5265 15.4725C28.8495 15.8757 28.8495 16.279 28.5265 16.6822C28.3651 16.8435 28.2036 17.0048 27.9614 17.0854C26.831 17.8112 25.62 18.4564 24.4089 19.1015Z" fill="#FFCB01"/>
<path d="M41.9869 8.09067C41.9869 8.73583 41.8254 9.30036 41.4217 9.70357C40.9373 10.1874 40.3721 10.4294 39.6455 10.4294C38.9188 10.4294 38.3536 10.1874 37.8692 9.70357C37.3848 9.21968 37.1426 8.6552 37.1426 7.92941C37.1426 7.20361 37.3848 6.63913 37.8692 6.15524C38.3536 5.67139 38.9188 5.42944 39.6455 5.42944C39.9684 5.42944 40.2914 5.51008 40.6143 5.67139C40.9373 5.83266 41.1795 5.99397 41.341 6.23587L40.9373 6.63908C40.6143 6.23587 40.2106 6.0746 39.6455 6.0746C39.161 6.0746 38.6766 6.23587 38.3536 6.63908C37.95 6.96166 37.7885 7.44556 37.7885 8.01004C37.7885 8.57457 37.95 9.05841 38.3536 9.38099C38.7573 9.70357 39.161 9.94547 39.6455 9.94547C40.2106 9.94547 40.6143 9.78421 41.018 9.38099C41.2602 9.13905 41.4217 8.81646 41.4217 8.41325H39.6455V7.84877H41.9869C41.9869 7.84877 41.9869 7.9294 41.9869 8.09067Z" fill="white" stroke="white" stroke-width="0.114286" stroke-miterlimit="10"/>
<path d="M45.6999 6.0746H43.5199V7.60682H45.5384V8.17135H43.5199V9.70357H45.6999V10.2681H42.874V5.42944H45.6999V6.0746Z" fill="white" stroke="white" stroke-width="0.114286" stroke-miterlimit="10"/>
<path d="M48.3654 10.2681H47.7192V5.99397H46.3467V5.42944H49.7375V5.99397H48.3654V10.2681Z" fill="white" stroke="white" stroke-width="0.114286" stroke-miterlimit="10"/>
<path d="M52.0801 10.2681V5.42944H52.7256V10.2681H52.0801Z" fill="white" stroke="white" stroke-width="0.114286" stroke-miterlimit="10"/>
<path d="M55.4704 10.2681H54.8248V5.99397H53.4521V5.42944H56.7624V5.99397H55.3897V10.2681H55.4704Z" fill="white" stroke="white" stroke-width="0.114286" stroke-miterlimit="10"/>
<path d="M63.1406 9.70357C62.6563 10.1874 62.0909 10.4294 61.3643 10.4294C60.6376 10.4294 60.0727 10.1874 59.588 9.70357C59.1037 9.21968 58.8613 8.6552 58.8613 7.92941C58.8613 7.20361 59.1037 6.63913 59.588 6.15524C60.0727 5.67139 60.6376 5.42944 61.3643 5.42944C62.0909 5.42944 62.6563 5.67139 63.1406 6.15524C63.6249 6.63913 63.8672 7.20361 63.8672 7.92941C63.8672 8.57457 63.6249 9.21968 63.1406 9.70357ZM60.0727 9.30036C60.3957 9.62294 60.88 9.86484 61.3643 9.86484C61.849 9.86484 62.3333 9.70357 62.6563 9.30036C62.9793 8.97778 63.2212 8.49393 63.2212 7.92941C63.2212 7.36488 63.0599 6.88103 62.6563 6.55845C62.3333 6.23587 61.849 5.99397 61.3643 5.99397C60.88 5.99397 60.3957 6.15524 60.0727 6.55845C59.7497 6.88103 59.5073 7.36488 59.5073 7.92941C59.5073 8.41325 59.6691 8.89715 60.0727 9.30036Z" fill="white" stroke="white" stroke-width="0.114286" stroke-miterlimit="10"/>
<path d="M64.7549 10.2681V5.42944H65.4815L67.8227 9.21968V8.25199V5.42944H68.4688V10.2681H67.8227L65.3198 6.31655V7.28424V10.2681H64.7549Z" fill="white" stroke="white" stroke-width="0.114286" stroke-miterlimit="10"/>
<path d="M58.3697 17.2189C56.4321 17.2189 54.8982 18.6705 54.8982 20.6866C54.8982 22.6221 56.4321 24.1543 58.3697 24.1543C60.3073 24.1543 61.8417 22.7027 61.8417 20.6866C61.8417 18.6705 60.3073 17.2189 58.3697 17.2189ZM58.3697 22.7027C57.32 22.7027 56.4321 21.8157 56.4321 20.606C56.4321 19.3963 57.32 18.5093 58.3697 18.5093C59.4193 18.5093 60.3073 19.3157 60.3073 20.606C60.3073 21.8963 59.4193 22.7027 58.3697 22.7027ZM50.8608 17.2189C48.9233 17.2189 47.3893 18.6705 47.3893 20.6866C47.3893 22.6221 48.9233 24.1543 50.8608 24.1543C52.7989 24.1543 54.3328 22.7027 54.3328 20.6866C54.3328 18.6705 52.7989 17.2189 50.8608 17.2189ZM50.8608 22.7027C49.8117 22.7027 48.9233 21.8157 48.9233 20.606C48.9233 19.3963 49.8117 18.5093 50.8608 18.5093C51.9105 18.5093 52.7989 19.3157 52.7989 20.606C52.7989 21.8963 51.9105 22.7027 50.8608 22.7027ZM41.8991 18.2673V19.7189H45.3708C45.2901 20.5254 44.9671 21.1705 44.5634 21.5737C44.079 22.0576 43.2716 22.6221 41.8991 22.6221C39.7191 22.6221 38.1043 20.9285 38.1043 18.7512C38.1043 16.5738 39.7999 14.8803 41.8991 14.8803C43.0294 14.8803 43.9175 15.3641 44.5634 15.9287L45.613 14.8803C44.7249 14.0739 43.5946 13.4287 41.9798 13.4287C39.0732 13.4287 36.5703 15.848 36.5703 18.7512C36.5703 21.6543 39.0732 24.0737 41.9798 24.0737C43.5946 24.0737 44.7249 23.5898 45.6938 22.5414C46.6627 21.5737 46.9856 20.2028 46.9856 19.1544C46.9856 18.8318 46.9856 18.5093 46.9048 18.2673H41.8991ZM78.5546 19.3963C78.2315 18.5899 77.4238 17.2189 75.648 17.2189C73.8717 17.2189 72.4184 18.5899 72.4184 20.6866C72.4184 22.6221 73.8717 24.1543 75.8092 24.1543C77.3432 24.1543 78.3122 23.1866 78.6352 22.6221L77.5049 21.8157C77.1012 22.3801 76.6165 22.7833 75.8092 22.7833C75.0019 22.7833 74.5172 22.4608 74.1136 21.735L78.7158 19.7995L78.5546 19.3963ZM73.8717 20.5254C73.8717 19.2351 74.9213 18.5093 75.648 18.5093C76.2129 18.5093 76.7782 18.8318 76.9395 19.2351L73.8717 20.5254ZM70.0767 23.8317H71.6106V13.7513H70.0767V23.8317ZM67.6548 17.9447C67.2507 17.5415 66.6052 17.1383 65.7974 17.1383C64.1022 17.1383 62.4872 18.6705 62.4872 20.606C62.4872 22.5414 64.0216 23.993 65.7974 23.993C66.6052 23.993 67.2507 23.5898 67.5737 23.1866H67.6548V23.6705C67.6548 24.9607 66.9282 25.6865 65.7974 25.6865C64.9095 25.6865 64.2635 25.0414 64.1022 24.4769L62.8102 25.0414C63.2139 25.9285 64.1829 27.0575 65.8785 27.0575C67.6548 27.0575 69.1081 26.0091 69.1081 23.5092V17.3803H67.6548V17.9447ZM65.8785 22.7027C64.8289 22.7027 63.9405 21.8157 63.9405 20.606C63.9405 19.3963 64.8289 18.5093 65.8785 18.5093C66.9282 18.5093 67.7355 19.3963 67.7355 20.606C67.7355 21.8157 66.9282 22.7027 65.8785 22.7027ZM85.5786 13.7513H81.9454V23.8317H83.4793V20.0415H85.5786C87.2738 20.0415 88.8889 18.8318 88.8889 16.8964C88.8889 14.9609 87.2738 13.7513 85.5786 13.7513ZM85.6593 18.6705H83.4793V15.2029H85.6593C86.7896 15.2029 87.4356 16.1706 87.4356 16.8964C87.355 17.7028 86.7089 18.6705 85.6593 18.6705ZM94.9444 17.2189C93.8137 17.2189 92.6834 17.7028 92.2797 18.7512L93.6524 19.3157C93.9754 18.7512 94.4597 18.5899 95.0251 18.5899C95.8323 18.5899 96.559 19.0738 96.6396 19.8802V19.9609C96.3977 19.7995 95.7517 19.5576 95.1057 19.5576C93.6524 19.5576 92.1991 20.3641 92.1991 21.8157C92.1991 23.1866 93.41 24.0737 94.7021 24.0737C95.7517 24.0737 96.236 23.5898 96.6396 23.106H96.7203V23.9124H98.1736V20.0415C98.0123 18.1867 96.6396 17.2189 94.9444 17.2189ZM94.7827 22.7027C94.2984 22.7027 93.5718 22.4608 93.5718 21.8157C93.5718 21.0092 94.4597 20.7673 95.1863 20.7673C95.8323 20.7673 96.1554 20.9286 96.559 21.0899C96.3977 22.0576 95.59 22.7027 94.7827 22.7027ZM103.26 17.3803L101.565 21.735H101.484L99.708 17.3803H98.0929L100.758 23.5092L99.2232 26.8962H100.758L104.875 17.3803H103.26ZM89.6962 23.8317H91.2301V13.7513H89.6962V23.8317Z" fill="white"/>
</svg>
