<svg width="20" height="20" viewBox="0 0 20 20" fill="none" xmlns="http://www.w3.org/2000/svg">
<path d="M8.33342 18.3334H11.6667M6.66675 12.5001H13.3334M4.16675 7.50008C4.16675 5.95299 4.78133 4.46925 5.87529 3.37529C6.96926 2.28133 8.45299 1.66675 10.0001 1.66675C11.5472 1.66675 13.0309 2.28133 14.1249 3.37529C15.2188 4.46925 15.8334 5.95299 15.8334 7.50008C15.834 8.43931 15.6068 9.36467 15.1714 10.1969C14.736 11.0291 14.1053 11.7433 13.3334 12.2784L12.8817 14.4167C12.822 14.8109 12.6229 15.1705 12.3206 15.4305C12.0183 15.6904 11.6329 15.8333 11.2342 15.8334H8.76592C8.36726 15.8333 7.98184 15.6904 7.67957 15.4305C7.37731 15.1705 7.17821 14.8109 7.11842 14.4167L6.66675 12.2876C5.89459 11.7506 5.26389 11.0347 4.82854 10.201C4.39319 9.36729 4.16613 8.4406 4.16675 7.50008Z" stroke="#1A141F" stroke-width="2" stroke-linecap="round" stroke-linejoin="round"/>
</svg>
