<svg width="196" height="100" viewBox="0 0 196 100" fill="none" xmlns="http://www.w3.org/2000/svg">
<path d="M168.746 48.5944C163.099 52.5496 156.812 55.4714 147.284 56.0127C147.352 55.6929 149.591 44.0979 162.662 36.212C172.67 30.1408 185.151 25.2199 181.848 14.3999C182.879 15.2004 183.735 16.2031 184.365 17.3466C184.994 18.49 185.383 19.7501 185.508 21.0493C186.037 28.6215 178.618 41.6436 168.746 48.5944Z" fill="#A7A9AC"/>
<path d="M180.328 24.1864C178.169 21.8305 169.256 25.2751 169.256 25.2751C169.256 25.2751 166.181 26.5054 163.72 26.4316C162.324 26.4316 161.813 25.7611 162.625 25.1152C163.114 24.8172 163.642 24.5895 164.194 24.4386C164.44 24.3362 164.653 24.1665 164.807 23.949C164.962 23.7314 165.052 23.4747 165.067 23.2083C165.27 20.6802 165.233 14.449 159.833 14.5475C154.758 14.6459 153.891 18.4473 156.142 22.8762C157.557 25.6688 154.985 25.878 153.011 25.6319C146.337 24.7769 136.28 20.754 132.546 9.8418C148.238 14.0369 173.876 8.82685 181.835 14.3752C181.922 14.4613 185.981 20.2988 180.328 24.1864Z" fill="white"/>
<path d="M85.0769 38.2419L85.323 38.4019L84.4987 39.2999C84.2507 39.6157 83.9366 39.8734 83.5786 40.0551C83.2205 40.2368 82.827 40.3381 82.4258 40.3518C81.9353 40.3477 81.4482 40.271 80.9802 40.1242C80.1222 39.7844 79.2017 39.6313 78.2799 39.6751C74.3062 39.6751 74.0232 44.3378 74.0171 44.3685L71.3536 56.917C70.7754 60.1156 68.7578 62.3546 66.2235 62.3546C64.8887 62.3546 63.2832 62.3546 62.3975 62.3546C63.4063 57.5321 66.0882 44.6269 66.242 43.8272C66.7894 41.4159 69.1453 36.6119 78.7104 36.6119C80.941 36.5694 83.1412 37.1327 85.0769 38.2419Z" fill="white"/>
<path d="M110.408 36.618C113.193 36.5624 115.949 37.1829 118.441 38.4264C118.128 39.0416 117.211 40.5055 115.483 40.444C114.972 40.4269 114.466 40.3357 113.982 40.1734C112.986 39.8638 111.949 39.7083 110.906 39.712C109.799 39.6141 108.685 39.8092 107.677 40.2779C107.313 40.4596 106.994 40.7192 106.742 41.0381C106.49 41.357 106.312 41.7275 106.219 42.1233C105.899 43.9687 107.449 44.3992 110.525 46.1769C113.601 47.9546 115.144 49.4801 115.895 50.6489C116.781 52.0083 116.775 53.38 116.51 55.0101C116.262 56.2009 115.759 57.3237 115.035 58.3008C114.31 59.278 113.382 60.086 112.315 60.6692C109.637 62.1404 106.616 62.8729 103.562 62.7913C100.304 62.8682 97.0947 61.9847 94.335 60.2509L95.8112 58.5408C96.0973 58.2674 96.4578 58.0847 96.8475 58.0157C97.2372 57.9468 97.6386 57.9946 98.0011 58.1533C99.6165 59.1192 101.458 59.6412 103.34 59.6665C107.111 59.6665 108.323 58.0611 108.612 56.9723C108.719 56.5331 108.707 56.0731 108.576 55.6404C108.445 55.2076 108.2 54.8179 107.868 54.5118C107.142 53.7614 105.653 52.9063 103.31 51.713C101.718 50.9721 100.356 49.8162 99.3666 48.3668C98.5851 46.9816 98.3317 45.3602 98.6531 43.8026C98.8696 42.7187 99.3196 41.695 99.9718 40.8027C100.624 39.9103 101.463 39.1708 102.43 38.6356C104.858 37.2539 107.615 36.5567 110.408 36.618Z" fill="white"/>
<path d="M133.647 37.024H140.899C140.758 37.4853 140.253 39.0416 139.632 39.4844C138.896 40.0673 137.975 40.3664 137.036 40.3272C136.698 40.3272 136.476 40.3272 136.421 40.3272H132.921L132.829 40.7639L130.436 52.039C129.876 54.6471 129.329 56.8431 129.606 57.895C129.68 58.2373 129.879 58.5395 130.165 58.7422C130.451 58.9448 130.802 59.0332 131.15 58.9899C132.024 58.9648 132.856 58.6112 133.481 57.9995C134.137 57.2929 135.04 56.8657 136.003 56.8062C136.792 56.8303 137.545 57.1433 138.119 57.6858C134.834 61.6103 130.903 62.7606 128.671 62.7606H128.56C125.084 62.6929 123.417 61.598 122.593 59.9372C122.101 58.953 121.56 57.04 122.261 53.7245L124.986 41.0591L125.14 40.3579H120.834L121.228 38.6417C121.591 37.4607 122.784 37.0301 123.922 37.0301H125.847L125.927 36.5688C126.33 34.7543 127.363 33.1415 128.843 32.0169C130.688 30.6944 133.21 30.6882 134.994 30.6882L133.801 36.3227L133.647 37.024Z" fill="white"/>
<path d="M92.1698 37.0548C92.6372 37.0548 95.4914 37.0056 96.0819 37.0548L94.538 44.3625L91.9483 56.6648L91.8868 56.9109C91.3086 60.1095 89.291 62.3485 86.7567 62.3485C85.428 62.3485 83.8226 62.3485 82.9307 62.3485C83.9333 57.526 86.5045 45.482 86.6521 44.6823L87.6117 40.1981C88.1838 37.9098 90.0845 37.0548 92.1698 37.0548Z" fill="white"/>
<path d="M64.9316 36.9932C65.4114 36.9932 66.2664 36.9932 66.6417 37.0486L51.8788 59.4205C51.8788 59.4205 49.9104 62.3853 47.6406 62.3853H45.3893L40.5975 38.8632C40.4253 37.6329 41.4956 37.0547 42.3937 37.0547H49.0431L51.5159 52.039L51.6697 53.0048L52.0264 52.3281L59.943 39.8228C60.4426 38.9455 61.1698 38.2195 62.0479 37.7214C62.926 37.2234 63.9223 36.9718 64.9316 36.9932Z" fill="white"/>
<path fill-rule="evenodd" clip-rule="evenodd" d="M26.5914 56.1788C26.3022 56.9354 25.9147 59.7219 22.8391 60.054C21.1475 60.2324 17.869 59.5066 18.8532 54.8501C19.1266 53.4103 19.8541 52.0959 20.9289 51.0996C22.0038 50.1034 23.3695 49.4776 24.826 49.3141C26.1999 49.1033 27.5069 48.5792 28.6459 47.7824L26.5914 56.1788ZM36.4948 39.5706C35.1231 37.6698 32.6503 36.7349 28.2522 36.7349C24.2724 36.7349 21.3813 37.5468 18.8101 39.14L18.4533 39.3676L18.7732 40.0627C18.9085 40.2041 19.2776 41.4036 20.2556 41.3975C20.8811 41.3786 21.4946 41.221 22.0518 40.9361C23.499 40.126 25.1361 39.7162 26.7943 39.749C27.4542 39.7286 28.102 39.9286 28.6355 40.3173C29.1691 40.706 29.5579 41.2614 29.7408 41.8957C29.8303 42.3642 29.812 42.847 29.6873 43.3074C29.5626 43.7678 29.3348 44.1937 29.0211 44.553L28.406 44.9529C28.1353 45.082 27.7293 45.2789 27.2126 45.4819C25.8171 46.0202 24.3761 46.432 22.9068 46.7121C19.985 47.3703 12.4498 48.0654 11.2933 54.9732C10.6782 58.7684 12.6035 63.0066 22.2548 62.9697C27.0958 62.9697 33.4622 60.7614 34.4649 56.0127C35.2215 52.402 37.0238 44.024 37.0238 44.024C37.0853 43.7288 37.805 41.3913 36.4948 39.5583V39.5706Z" fill="white"/>
<path d="M84.4068 84.6773H83.4719L82.8075 82.832H79.2214L78.5571 84.6773H77.6221L80.6485 76.447H81.3866L84.4068 84.6773ZM82.5615 82.0508L81.036 77.7019L79.4859 82.0508H82.5615Z" fill="white"/>
<path d="M90.7487 84.6774H89.9121V83.9946C89.7237 84.2417 89.4779 84.4391 89.196 84.5699C88.9142 84.7006 88.6047 84.7607 88.2943 84.745C88.0428 84.7605 87.7908 84.7242 87.5538 84.6385C87.3169 84.5528 87.1 84.4195 86.9165 84.2468C86.4551 83.7855 86.2275 82.9796 86.2275 81.8294C86.2275 80.6791 86.4551 79.8794 86.9165 79.4181C87.1009 79.2427 87.3196 79.1074 87.5588 79.0206C87.7981 78.9338 88.0527 78.8974 88.3066 78.9137C88.6127 78.8982 88.918 78.9559 89.1973 79.0822C89.4765 79.2084 89.7216 79.3995 89.9121 79.6395V76.4409H90.7425L90.7487 84.6774ZM89.9121 81.8109C89.9435 81.2991 89.8615 80.7866 89.6722 80.31C89.5497 80.1062 89.3766 79.9376 89.1696 79.8205C88.9627 79.7034 88.729 79.6419 88.4912 79.6419C88.2534 79.6419 88.0197 79.7034 87.8127 79.8205C87.6058 79.9376 87.4326 80.1062 87.3102 80.31C86.9659 81.2831 86.9659 82.3449 87.3102 83.318C87.4326 83.5218 87.6058 83.6904 87.8127 83.8075C88.0197 83.9246 88.2534 83.9861 88.4912 83.9861C88.729 83.9861 88.9627 83.9246 89.1696 83.8075C89.3766 83.6904 89.5497 83.5218 89.6722 83.318C89.8609 82.839 89.9428 82.3247 89.9121 81.8109Z" fill="white"/>
<path d="M97.7491 78.9814L95.6515 84.6713H94.9134L92.8281 78.9814H93.7324L95.2824 83.5518L96.8449 78.9814H97.7491Z" fill="white"/>
<path d="M103.82 84.6711H102.99V84.1298C102.772 84.3382 102.514 84.5001 102.232 84.6059C101.949 84.7116 101.649 84.7589 101.347 84.7449C101.058 84.7707 100.766 84.7383 100.489 84.6496C100.213 84.5608 99.9564 84.4176 99.7359 84.2282C99.5913 84.0737 99.4793 83.8917 99.4064 83.6931C99.3335 83.4944 99.3012 83.2832 99.3114 83.0718C99.3002 82.8457 99.341 82.62 99.4306 82.4121C99.5201 82.2042 99.6561 82.0195 99.8281 81.8723C100.24 81.5528 100.754 81.3952 101.274 81.4295H102.99V80.882C102.99 80.0454 102.498 79.6518 101.526 79.6518C101.252 79.6323 100.977 79.6817 100.726 79.7956C100.476 79.9095 100.258 80.0842 100.093 80.3038L99.5329 79.7809C99.7504 79.4852 100.044 79.2536 100.382 79.1104C100.753 78.9821 101.145 78.9237 101.538 78.9382C103.058 78.9382 103.82 79.5533 103.82 80.8328V84.6711ZM102.99 82.6597V82.0446H101.397C100.542 82.0446 100.117 82.3829 100.117 83.0472C100.117 83.7115 100.548 84.0191 101.421 84.0191C101.887 84.0748 102.356 83.9444 102.725 83.6562C102.834 83.5163 102.913 83.3559 102.959 83.1848C103.004 83.0136 103.015 82.835 102.99 82.6597Z" fill="white"/>
<path d="M111.232 84.665H110.402V81.1957C110.402 80.1869 109.941 79.6764 109.006 79.6764C108.816 79.6674 108.626 79.6978 108.448 79.7655C108.27 79.8333 108.108 79.9369 107.972 80.0701C107.707 80.383 107.572 80.7862 107.597 81.1957V84.6958H106.767V79.0059H107.597V79.621C107.795 79.3944 108.04 79.2145 108.315 79.0943C108.591 78.9741 108.89 78.9166 109.19 78.9259C109.457 78.9116 109.723 78.9517 109.974 79.0437C110.225 79.1357 110.454 79.2777 110.648 79.4611C110.855 79.6675 111.016 79.9146 111.122 80.1868C111.228 80.4589 111.276 80.7502 111.263 81.0419L111.232 84.665Z" fill="white"/>
<path d="M118.269 83.89C118.033 84.1663 117.742 84.3905 117.414 84.5482C117.091 84.6819 116.743 84.7468 116.393 84.7389C116.06 84.7533 115.727 84.6953 115.418 84.5689C115.109 84.4426 114.831 84.2508 114.603 84.0069C114.129 83.3766 113.872 82.6091 113.872 81.8201C113.872 81.0312 114.129 80.2636 114.603 79.6334C114.831 79.391 115.108 79.2007 115.416 79.0754C115.724 78.9501 116.055 78.8928 116.387 78.9075C116.739 78.8949 117.089 78.9578 117.414 79.0921C117.74 79.253 118.031 79.4766 118.269 79.7502L117.697 80.2792C117.536 80.089 117.335 79.9357 117.109 79.8296C116.883 79.7235 116.637 79.6671 116.387 79.6641C116.131 79.6532 115.875 79.7073 115.645 79.8213C115.415 79.9352 115.218 80.1055 115.071 80.3162C114.827 80.7922 114.7 81.3193 114.7 81.854C114.7 82.3887 114.827 82.9157 115.071 83.3918C115.218 83.6041 115.416 83.7757 115.647 83.8908C115.879 84.0059 116.135 84.0606 116.393 84.0499C116.646 84.0425 116.893 83.9797 117.119 83.8659C117.344 83.7522 117.542 83.5903 117.697 83.3918L118.269 83.89Z" fill="white"/>
<path d="M121.664 77.3512H120.735V76.4163H121.664V77.3512ZM121.609 84.665H120.778V78.9752H121.615L121.609 84.665Z" fill="white"/>
<path d="M129.108 84.665H128.277V81.1588C128.277 80.15 127.816 79.6394 126.881 79.6394C126.69 79.6286 126.499 79.6587 126.321 79.7276C126.143 79.7966 125.981 79.9028 125.848 80.0393C125.712 80.1912 125.609 80.3683 125.542 80.5604C125.476 80.7525 125.448 80.9559 125.46 81.1588V84.665H124.636V78.969H125.485V79.5841C125.683 79.3567 125.929 79.1763 126.206 79.056C126.482 78.9358 126.782 78.8787 127.084 78.889C127.35 78.8756 127.616 78.9155 127.866 79.0064C128.117 79.0972 128.346 79.2372 128.542 79.418C128.748 79.626 128.909 79.8743 129.015 80.1473C129.121 80.4204 129.169 80.7124 129.157 81.005L129.108 84.665Z" fill="white"/>
<path d="M136.267 84.8373C136.299 85.4796 136.078 86.1089 135.652 86.5904C135.43 86.8217 135.16 87.0024 134.862 87.1202C134.564 87.238 134.244 87.2902 133.923 87.2732C133.565 87.2845 133.208 87.226 132.872 87.101C132.545 86.9491 132.247 86.7409 131.992 86.4859L132.533 85.9569C132.72 86.1214 132.927 86.262 133.148 86.3751C133.395 86.4702 133.659 86.5162 133.923 86.5105C134.148 86.5236 134.372 86.4849 134.579 86.3974C134.786 86.31 134.97 86.1761 135.117 86.0061C135.372 85.648 135.499 85.2149 135.48 84.7758V83.89C135.293 84.1321 135.051 84.3256 134.773 84.4541C134.496 84.5826 134.192 84.6423 133.887 84.6282C133.635 84.6428 133.382 84.6056 133.145 84.5188C132.908 84.4321 132.692 84.2976 132.509 84.1238C132.055 83.4162 131.813 82.5932 131.813 81.7525C131.813 80.9118 132.055 80.0888 132.509 79.3812C132.693 79.2077 132.911 79.0739 133.149 78.9882C133.387 78.9025 133.64 78.8667 133.893 78.883C134.197 78.8683 134.501 78.9278 134.777 79.0564C135.054 79.1849 135.295 79.3787 135.48 79.6211V78.9506H136.316L136.267 84.8373ZM135.43 81.7617C135.457 81.2601 135.375 80.7588 135.191 80.2916C135.069 80.089 134.898 79.9213 134.692 79.8049C134.487 79.6884 134.255 79.6272 134.019 79.6272C133.783 79.6272 133.551 79.6884 133.345 79.8049C133.14 79.9213 132.968 80.089 132.847 80.2916C132.657 80.7575 132.573 81.2595 132.601 81.7617C132.573 82.262 132.657 82.7622 132.847 83.2257C132.967 83.4298 133.138 83.599 133.344 83.7166C133.549 83.8342 133.782 83.896 134.019 83.896C134.256 83.896 134.488 83.8342 134.694 83.7166C134.899 83.599 135.071 83.4298 135.191 83.2257C135.376 82.7652 135.458 82.2697 135.43 81.774V81.7617Z" fill="white"/>
<path d="M148.306 84.6527H143.219V76.4224H144.098V83.8715H148.306V84.6527Z" fill="white"/>
<path d="M151.516 77.3451H150.575V76.4102H151.51L151.516 77.3451ZM151.455 84.6528H150.618V78.9691H151.449L151.455 84.6528Z" fill="white"/>
<path d="M156.707 79.6335H155.477V84.6528H154.647V79.6335H153.921V79.0184H154.647V77.9419C154.627 77.5501 154.757 77.1654 155.01 76.8654C155.144 76.7124 155.311 76.5919 155.498 76.513C155.686 76.4342 155.889 76.399 156.092 76.4102H156.707V77.1299H156.24C155.736 77.1299 155.477 77.4067 155.477 77.9727V79.0245H156.707V79.6335Z" fill="white"/>
<path d="M163.234 82.0263H159.39C159.357 82.544 159.509 83.0566 159.82 83.4718C159.975 83.643 160.165 83.7776 160.378 83.8659C160.591 83.9543 160.821 83.994 161.051 83.9823C161.328 83.9855 161.604 83.9326 161.861 83.827C162.118 83.7213 162.35 83.5649 162.545 83.3672L163.111 83.8655C162.856 84.1371 162.554 84.3601 162.219 84.5236C161.844 84.6811 161.439 84.7566 161.032 84.7451C160.699 84.7664 160.365 84.7148 160.054 84.5936C159.742 84.4725 159.461 84.2849 159.23 84.0438C158.728 83.4199 158.481 82.6282 158.541 81.8294C158.492 81.0661 158.709 80.3094 159.156 79.6888C159.361 79.4333 159.623 79.2299 159.921 79.0952C160.219 78.9604 160.545 78.8983 160.872 78.9137C161.196 78.8977 161.519 78.9559 161.816 79.0838C162.113 79.2117 162.378 79.4061 162.589 79.6519C163.025 80.2309 163.243 80.9455 163.204 81.6695L163.234 82.0263ZM162.398 81.4111C162.389 81.0885 162.331 80.7691 162.226 80.4638C162.108 80.2089 161.92 79.9929 161.683 79.8416C161.447 79.6902 161.172 79.6098 160.891 79.6098C160.61 79.6098 160.335 79.6902 160.098 79.8416C159.862 79.9929 159.674 80.2089 159.556 80.4638C159.456 80.7722 159.4 81.0932 159.39 81.4173L162.398 81.4111Z" fill="white"/>
</svg>
