<svg width="28" height="28" viewBox="0 0 28 28" fill="none" xmlns="http://www.w3.org/2000/svg">
<path d="M19.5718 22.2547C16.737 24.2402 13.5811 25.707 8.79785 25.9788C8.83182 25.8182 9.95584 19.9974 16.5178 16.0386C21.5419 12.9908 27.8074 10.5204 26.1491 5.08867C26.6667 5.49051 27.0967 5.9939 27.4126 6.56794C27.7286 7.14197 27.9238 7.77452 27.9865 8.42676C28.252 12.2281 24.528 18.7653 19.5718 22.2547Z" fill="#A7A9AC"/>
<path d="M25.3877 10.0011C24.3039 8.81845 19.8294 10.5477 19.8294 10.5477C19.8294 10.5477 18.2854 11.1653 17.0502 11.1283C16.3492 11.1283 16.0929 10.7917 16.5006 10.4674C16.7458 10.3178 17.0109 10.2035 17.288 10.1277C17.4117 10.0764 17.5184 9.99118 17.596 9.88196C17.6735 9.77274 17.7188 9.64389 17.7265 9.51016C17.8284 8.241 17.8099 5.11289 15.0986 5.1623C12.551 5.21171 12.1156 7.12007 13.2458 9.34341C13.9561 10.7453 12.6653 10.8503 11.6741 10.7268C8.32362 10.2976 3.27479 8.27806 1.40039 2.8C9.2778 4.906 22.1484 2.29049 26.1443 5.07584C26.1875 5.11907 28.2256 8.04955 25.3877 10.0011Z" fill="#5E217C"/>
</svg>
