<svg width="23" height="23" viewBox="0 0 23 23" fill="none" xmlns="http://www.w3.org/2000/svg">
<path d="M3.68238 14.9555C3.67758 14.8355 3.67518 14.7155 3.67038 14.5979C3.65118 14.5379 3.63438 14.4779 3.61518 14.4179C3.61278 14.3171 3.60798 14.2163 3.60558 14.1179C3.56958 13.9763 3.53598 13.8347 3.49998 13.6931C3.49998 13.5323 3.48798 13.3715 3.49998 13.2131C3.55758 12.4907 3.55278 11.7563 3.69678 11.0507C3.88398 10.1291 4.22718 9.25067 4.68798 8.42027C5.45358 7.04747 6.47118 5.90267 7.79838 5.06987C8.46318 4.64987 9.19998 4.32827 9.93198 4.03307C11.18 3.53147 12.5 3.43307 13.8272 3.50747C14.2568 3.53147 14.6816 3.66827 15.1112 3.74507C15.1832 3.75707 15.2672 3.71867 15.344 3.70427C16.052 4.15307 16.6952 4.68107 17.264 5.29787C18.2096 6.32747 18.8696 7.51547 19.2032 8.86907C19.484 10.0067 19.5728 11.1563 19.3688 12.3347C19.1984 13.3307 18.8528 14.2427 18.3872 15.1235C17.8544 16.1339 17.0864 16.9355 16.2296 17.6747C15.8696 17.9843 15.8168 18.3083 15.9296 18.5267C16.208 19.0739 16.7216 19.2083 17.204 18.8123C18.4088 17.8259 19.3952 16.6691 20.0432 15.2363C20.612 13.9787 20.9672 12.6707 20.9912 11.2955C21.0032 10.5443 20.8928 9.78827 20.7968 9.03947C20.7488 8.66987 20.6144 8.30747 20.5016 7.94987C20.3792 7.56347 20.2376 7.18187 20.1056 6.79787C20.2016 6.86027 20.3312 6.90107 20.3888 6.98987C20.8064 7.62827 21.2456 8.25467 21.6056 8.92667C22.124 9.89867 22.3976 10.9691 22.4888 12.0539C22.5632 12.9395 22.4936 13.8491 22.3784 14.7347C22.2416 15.7811 21.8456 16.7651 21.3224 17.6819C20.7248 18.7259 19.9448 19.6283 19.0064 20.3819C18.1688 21.0563 17.2568 21.6251 16.2296 21.9515C15.392 22.2179 14.5328 22.4147 13.64 22.4771C12.56 22.5539 11.5136 22.4099 10.4864 22.1387C9.84558 21.9707 9.24558 21.6443 8.62158 21.4019C8.48958 21.3515 8.32398 21.3131 8.19438 21.3491C7.30158 21.5987 6.41358 21.8699 5.52318 22.1291C5.09598 22.2539 4.66638 22.3595 4.23918 22.4819C4.00158 22.5491 3.79518 22.5299 3.61998 22.3283C3.43518 22.1171 3.47838 21.8963 3.54558 21.6587C3.63918 21.3275 3.71358 20.9939 3.79518 20.6603C4.54878 20.4419 5.30478 20.2211 6.05838 20.0027C6.31518 19.9283 6.53838 19.9811 6.79278 20.0891C7.33038 20.3195 7.89198 20.4971 8.45358 20.6627C8.80398 20.7659 9.17118 20.8307 9.53358 20.8739C10.0352 20.9363 10.5416 20.9963 11.048 20.9963C11.4344 20.9963 11.756 20.6003 11.7512 20.2355C11.7464 19.8491 11.4368 19.5443 11.024 19.5155C10.784 19.4987 10.5464 19.4771 10.3088 19.4579C9.32958 19.3787 8.37918 19.1651 7.50318 18.7163C6.85278 18.3827 6.23598 18.2891 5.54478 18.5771C5.18478 18.7283 4.77918 18.7715 4.39278 18.8627C4.46238 18.5963 4.52958 18.3299 4.60158 18.0659C4.67598 17.7923 4.65918 17.5499 4.54398 17.2691C4.25838 16.5611 4.03758 15.8267 3.78558 15.1043C3.77358 15.0491 3.71838 15.0059 3.68238 14.9555ZM14.0576 8.48746C13.9664 8.09386 13.94 7.66667 13.772 7.30907C13.0352 5.74667 11.4536 5.12507 9.89118 5.70107C8.77758 6.11147 7.93278 7.28507 7.99758 8.50907C8.01438 8.85467 8.23758 9.11867 8.56878 9.21227C8.96238 9.32267 9.52878 8.98186 9.51198 8.48267C9.48078 7.56347 10.3472 6.95387 11.048 6.99467C11.6168 7.02827 12.0776 7.30667 12.332 7.82987C12.6392 8.45867 12.548 9.04667 12.0536 9.55787C11.792 9.82907 11.5376 10.1099 11.2712 10.3787C10.6688 10.9883 10.2968 11.7011 10.2464 12.5675C10.2248 12.9251 10.3328 13.1963 10.6568 13.3955C10.9592 13.5803 11.2352 13.5227 11.4488 13.3139C11.6048 13.1627 11.7296 12.9179 11.7512 12.7019C11.8136 12.0875 12.0992 11.6123 12.5456 11.2139C12.6872 11.0891 12.8288 10.9643 12.9608 10.8299C13.6016 10.1867 14.0072 9.43787 14.0576 8.48746ZM11.0048 14.4875C10.4504 14.4851 9.98238 14.9531 9.98718 15.5075C9.99198 16.0499 10.4528 16.5083 10.9952 16.5107C11.54 16.5131 12.0008 16.0619 12.0104 15.5171C12.0176 14.9579 11.564 14.4899 11.0048 14.4875Z" fill="#EBB9F8"/>
<path d="M20.108 6.79736C20.24 7.18136 20.3816 7.56056 20.504 7.94936C20.6168 8.30936 20.7512 8.66936 20.7992 9.03896C20.8976 9.78776 21.0056 10.5438 20.9936 11.295C20.972 12.6702 20.6144 13.9806 20.0456 15.2358C19.3952 16.6686 18.4112 17.8278 17.2064 18.8118C16.7216 19.2078 16.2104 19.0734 15.932 18.5262C15.8192 18.3054 15.872 17.9838 16.232 17.6742C17.0888 16.9374 17.8568 16.1334 18.3896 15.123C18.8552 14.2398 19.2008 13.3302 19.3712 12.3342C19.5728 11.1558 19.484 10.0062 19.2056 8.86856C18.872 7.51496 18.212 6.32456 17.2664 5.29736C16.6976 4.67816 16.0544 4.15256 15.3464 3.70376C15.068 3.56456 14.7896 3.42056 14.5088 3.28376C13.6088 2.84936 12.6536 2.64296 11.6648 2.53736C10.376 2.40056 9.14959 2.66456 7.94479 3.07976C7.49119 3.23576 7.00159 3.01976 6.87919 2.59496C6.76399 2.20616 7.03999 1.75736 7.47919 1.64456C8.23759 1.44776 8.99119 1.22216 9.76159 1.08056C10.2776 0.986955 10.82 0.967755 11.3432 1.00856C12.0656 1.06616 12.7928 1.15496 13.4936 1.33736C14.168 1.51256 14.8256 1.78616 15.4616 2.07416C16.4168 2.50616 17.2592 3.12776 18.0056 3.85976C18.7304 4.57256 19.328 5.38856 19.8104 6.28856C19.8992 6.46136 20.0072 6.62936 20.108 6.79736Z" fill="#8C24A7"/>
<path d="M4.3976 18.8619C4.784 18.7707 5.1896 18.7275 5.5496 18.5763C6.2408 18.2883 6.86 18.3843 7.508 18.7155C8.3816 19.1643 9.33439 19.3779 10.3136 19.4571C10.5512 19.4763 10.7912 19.4979 11.0288 19.5147C11.4416 19.5435 11.7512 19.8483 11.756 20.2347C11.7608 20.5995 11.4368 20.9955 11.0528 20.9955C10.5488 20.9955 10.0424 20.9355 9.53839 20.8731C9.17359 20.8275 8.80879 20.7651 8.4584 20.6619C7.8968 20.4963 7.3352 20.3187 6.7976 20.0883C6.5432 19.9803 6.32 19.9275 6.0632 20.0019C5.3072 20.2203 4.5536 20.4387 3.8 20.6595C3.4832 20.7387 3.1544 20.7891 2.8472 20.8995C2.2904 21.1011 1.7912 21.0507 1.3568 20.6331C0.951195 20.2443 0.915195 19.7691 1.0616 19.2531C1.3904 18.0843 1.7048 16.9107 2.0384 15.7419C2.1416 15.3843 1.8656 15.1515 1.784 14.8563C1.5896 14.1507 1.328 13.4595 1.172 12.7467C0.979995 11.8659 0.948795 10.9683 1.0472 10.0659C1.1816 8.81791 1.4696 7.61551 2.0576 6.49951C2.3024 6.03631 2.5808 5.58751 2.8616 5.14591C3.0416 4.86511 3.3248 4.73551 3.656 4.77151C3.9656 4.80271 4.14799 5.01631 4.256 5.28751C4.3784 5.59471 4.2152 5.85391 4.0592 6.09391C3.4376 7.03951 2.9456 8.04271 2.7104 9.15631C2.4896 10.2099 2.4224 11.2611 2.6288 12.3315C2.7752 13.0995 2.96 13.8459 3.32 14.5443C3.3752 14.6547 3.4328 14.7627 3.488 14.8731C3.4928 14.9043 3.4976 14.9331 3.5024 14.9643C3.536 15.2355 3.63199 15.5139 3.5912 15.7731C3.5264 16.1907 3.3728 16.5939 3.2576 17.0043C3.0392 17.7795 2.8232 18.5571 2.5856 19.4043C3.0032 19.2963 3.3584 19.2147 3.7064 19.1115C3.9416 19.0371 4.1672 18.9435 4.3976 18.8619Z" fill="#8C25A7"/>
<path d="M3.5 13.6904C3.536 13.832 3.5696 13.9736 3.6056 14.1152C3.5696 13.976 3.536 13.8344 3.5 13.6904Z" fill="#FBF8FC"/>
<path d="M3.48801 14.8659C3.43281 14.7555 3.37521 14.6475 3.32001 14.5371C3.37521 14.6475 3.43041 14.7555 3.48801 14.8659Z" fill="#FBF8FC"/>
<path d="M3.6152 14.418C3.6344 14.478 3.6512 14.538 3.6704 14.598C3.6512 14.538 3.632 14.478 3.6152 14.418Z" fill="#FBF8FC"/>
<path d="M14.0576 8.4867C14.0072 9.4347 13.6016 10.1859 12.9608 10.8315C12.8288 10.9659 12.6848 11.0907 12.5456 11.2155C12.0992 11.6139 11.8136 12.0867 11.7512 12.7035C11.7296 12.9195 11.6024 13.1643 11.4488 13.3155C11.2352 13.5243 10.9592 13.5819 10.6568 13.3971C10.3328 13.1979 10.2248 12.9267 10.2464 12.5691C10.2968 11.7027 10.6688 10.9899 11.2712 10.3803C11.5376 10.1115 11.792 9.8331 12.0536 9.5595C12.548 9.0459 12.6392 8.4603 12.332 7.8315C12.0776 7.3083 11.6168 7.0299 11.048 6.9963C10.3472 6.9531 9.4808 7.5651 9.512 8.4843C9.5288 8.9835 8.9624 9.3243 8.5688 9.2139C8.2376 9.1203 8.0168 8.8563 7.9976 8.5107C7.9352 7.2867 8.78 6.1131 9.8912 5.7027C11.4512 5.1267 13.0352 5.7483 13.772 7.3107C13.94 7.6683 13.9664 8.0931 14.0576 8.4867Z" fill="#8C23A7"/>
<path d="M11.0048 14.4873C11.5616 14.4897 12.0176 14.9577 12.008 15.5193C11.9984 16.0641 11.5376 16.5153 10.9928 16.5129C10.4504 16.5105 9.98961 16.0497 9.98481 15.5097C9.98241 14.9529 10.4504 14.4849 11.0048 14.4873Z" fill="#8D25A8"/>
</svg>
