<svg width="23" height="23" viewBox="0 0 23 23" fill="none" xmlns="http://www.w3.org/2000/svg">
<path d="M11.1704 15.0154C11.6912 13.5562 12.6464 12.5194 14.1728 12.1522C15.9704 11.7202 17.4896 12.2314 18.6536 13.6978C19.1072 14.2714 19.3376 14.9386 19.4504 15.6586C19.5704 16.4314 19.448 17.1658 19.1696 17.881C19.0952 18.0754 19.0112 18.2698 18.9008 18.4426C18.7808 18.6298 18.8096 18.7402 18.968 18.8986C19.8896 19.8082 20.7992 20.7298 21.7088 21.649C22.1456 22.0906 22.1096 22.5106 21.6176 22.9018C21.5888 22.9282 21.5792 22.969 21.56 23.0002C21.3608 23.0002 21.1592 23.0002 20.96 23.0002C19.9232 21.9754 18.8888 20.9482 17.8448 19.9282C17.7776 19.8634 17.6072 19.8106 17.5472 19.8514C16.6592 20.4178 15.68 20.5402 14.66 20.4826C14.4224 20.4178 14.1824 20.3554 13.9448 20.2858C13.2536 20.0794 12.6776 19.681 12.1784 19.177C11.9 18.8962 11.8904 18.4882 12.1208 18.1978C12.3776 17.8762 12.7328 17.809 13.0952 18.0322C13.2632 18.1354 13.4144 18.2698 13.5704 18.3922C14.4104 19.0522 15.3392 19.1458 16.316 18.7834C16.5656 18.6922 16.7744 18.4906 17.0024 18.3394C18.344 17.2354 18.2936 15.361 17.1416 14.2594C16.2992 13.453 15.2936 13.3258 14.2376 13.7002C13.6016 13.9258 13.088 14.3554 12.8264 15.0178C12.6104 15.4066 12.5048 15.8218 12.4976 16.2682C12.4904 16.7146 12.1712 17.0074 11.7296 16.9978C11.3144 16.9906 10.9856 16.6786 11.0096 16.2538C11.0312 15.841 11.1128 15.4282 11.1704 15.0154Z" fill="#8C24A7"/>
<path d="M11.1704 15.0156C11.1152 15.4284 11.0312 15.8388 11.0096 16.254C10.9856 16.6788 11.3144 16.9908 11.7296 16.998C12.1712 17.0052 12.488 16.7148 12.4976 16.2684C12.5048 15.822 12.6104 15.4068 12.8264 15.018C13.5656 15.018 14.3048 15.0084 15.044 15.0276C15.3464 15.0348 15.6608 15.0612 15.9488 15.1524C16.7744 15.4092 17.3432 16.3356 17.204 17.2092C17.144 17.5884 17.072 17.9652 17.0048 18.3444C16.7768 18.4956 16.568 18.6948 16.3184 18.7884C15.3416 19.1508 14.4128 19.0572 13.5728 18.3972C13.4168 18.2748 13.2656 18.1404 13.0976 18.0372C12.7376 17.814 12.3824 17.8812 12.1232 18.2028C11.8904 18.4932 11.9 18.9012 12.1808 19.182C12.6824 19.6884 13.2584 20.0844 13.9472 20.2908C14.1848 20.3628 14.4224 20.4228 14.6624 20.4876C14.2448 20.6652 13.844 20.9028 13.4096 21.0108C12.596 21.2124 11.7704 21.3972 10.94 21.4764C10.0328 21.5628 9.10881 21.5652 8.20401 21.3612C7.49361 21.2004 6.77601 21.0564 6.08241 20.8356C5.28561 20.5836 4.55361 20.1876 3.95361 19.5828C3.88881 19.5156 3.85041 19.422 3.80001 19.3404C3.87921 19.35 3.95841 19.3548 4.03521 19.374C4.64721 19.5324 5.25441 19.7268 5.87361 19.8468C7.04001 20.0748 8.21841 20.0436 9.39441 19.9356C9.50241 19.926 9.61281 19.8972 9.71121 19.854C10.1984 19.6452 10.3064 19.0452 9.93921 18.6684C9.65361 18.3732 9.29841 18.4284 8.95521 18.4596C7.72161 18.5652 6.50241 18.5148 5.30481 18.186C4.38081 17.9316 3.48081 17.6196 2.72241 17.0052C2.82801 16.374 3.03201 15.7956 3.57921 15.3996C3.89841 15.1692 4.23681 15.0204 4.64721 15.0204C6.81921 15.0228 8.99361 15.018 11.1704 15.0156Z" fill="#EAB9F7"/>
<path d="M2.72 17.0002C3.4784 17.6146 4.3784 17.9266 5.3024 18.181C6.5 18.5098 7.7192 18.5626 8.9528 18.4546C9.296 18.4258 9.6512 18.3706 9.9368 18.6634C10.304 19.0426 10.196 19.6426 9.7088 19.849C9.6104 19.8922 9.5 19.921 9.392 19.9306C8.216 20.0386 7.0352 20.0698 5.8712 19.8418C5.252 19.7194 4.6448 19.5274 4.0328 19.369C3.956 19.3498 3.8768 19.3474 3.7976 19.3354C3.0848 18.9874 2.3456 18.6874 1.7264 18.169C0.516802 17.1586 -0.140797 15.901 0.0392025 14.2954C0.154403 13.2802 1.0136 12.373 1.9064 12.1378C2.2016 12.061 2.5136 12.0154 2.816 12.0154C5.336 12.0058 7.856 12.0226 10.3736 12.001C10.8944 11.9962 11.2424 12.4594 11.1848 12.8434C11.1272 13.2226 10.796 13.5082 10.3328 13.513C9.524 13.5202 8.7128 13.5154 7.904 13.5154C6.2432 13.5154 4.5848 13.5394 2.924 13.5082C1.7432 13.4866 1.3352 14.365 1.5608 15.3562C1.7216 16.0474 2.1392 16.5898 2.72 17.0002Z" fill="#8C24A7"/>
<path d="M6.02241 8.58599C5.12721 6.64679 5.84961 4.37879 7.62801 3.19559C8.38161 2.69639 9.23121 2.48519 10.1312 2.48039C10.3544 2.48039 10.58 2.47799 10.8032 2.47559C10.7576 2.82599 10.928 3.11159 11.084 3.39719C11.5208 4.19159 11.6096 5.02919 11.3672 5.89559C11.0504 7.02839 10.3544 7.82519 9.24801 8.25479C8.60001 8.50679 7.94961 8.55239 7.27041 8.38919C6.84081 8.28839 6.38001 8.15879 6.02241 8.58599Z" fill="#EBB9F8"/>
<path d="M6.0224 8.58524C6.38 8.15564 6.8408 8.28524 7.2704 8.38844C7.9496 8.55164 8.6 8.50604 9.248 8.25404C10.3544 7.82444 11.0504 7.02764 11.3672 5.89484C11.612 5.02604 11.5208 4.19084 11.084 3.39644C10.9256 3.10844 10.7576 2.82284 10.8032 2.47484C10.8752 2.14844 11.0792 1.94684 11.4032 1.89404C11.7296 1.83884 12.0104 1.97324 12.1664 2.24924C12.4064 2.66924 12.6008 3.11804 12.8144 3.55244C12.8384 3.70844 12.8528 3.86684 12.8888 4.02284C13.0856 4.88924 13.028 5.75324 12.7616 6.58364C12.464 7.51004 11.8928 8.26604 11.1416 8.89244C10.4504 9.46844 9.656 9.83804 8.7848 9.94604C8.156 10.0228 7.5008 9.90524 6.86 9.87404C6.62 9.77324 6.3416 9.71804 6.1496 9.55964C5.8328 9.30044 5.8616 8.93804 6.0224 8.58524Z" fill="#8C24A7"/>
<path d="M6.85519 9.87433C7.49839 9.90553 8.15119 10.0255 8.77999 9.94633C9.65119 9.83833 10.448 9.46873 11.1368 8.89273C11.888 8.26633 12.4592 7.51033 12.7568 6.58393C13.0256 5.75353 13.0808 4.88953 12.884 4.02313C12.848 3.86953 12.8336 3.71113 12.8096 3.55273C13.2584 3.86953 13.568 4.30393 13.82 4.77913C14.5328 6.12313 14.5544 7.47913 13.8752 8.84713C13.3712 9.85993 12.5744 10.5607 11.5376 10.9495C10.6232 11.2927 9.67279 11.3071 8.71759 11.0191C7.99279 10.7983 7.35679 10.4527 6.85519 9.87433Z" fill="#EBB9F7"/>
<path d="M3.0104 4.99049C3.0272 3.09208 3.8936 1.67369 5.4824 0.680085C6.2432 0.204885 7.0856 -0.00151489 7.9832 0.0200851C8.3888 0.0296851 8.6888 0.272085 8.744 0.636885C8.7992 1.00169 8.5904 1.33049 8.2088 1.46009C8.096 1.49849 7.97361 1.51529 7.85601 1.51769C6.2768 1.56569 5.0288 2.66969 4.6424 4.04249C4.4552 4.71209 4.472 5.38169 4.6712 6.04649C4.6976 6.13289 4.7216 6.21929 4.7456 6.30569C4.8776 6.78809 4.6856 7.14089 4.2224 7.27289C3.8288 7.38329 3.4184 7.14089 3.308 6.69689C3.1688 6.14009 3.0584 5.57849 2.936 5.01689C2.9624 5.00729 2.9864 5.00008 3.0104 4.99049Z" fill="#8C25A8"/>
</svg>
